<mxfile modified="2023-10-26T13:56:31.274Z" host="app.diagrams.net" agent="Mozilla/5.0 (Macintosh; Intel Mac OS X 10_15_7) AppleWebKit/537.36 (KHTML, like Gecko) Chrome/118.0.0.0 Safari/537.36 Edg/118.0.2088.61" etag="8nE875kE11CmAQpUTTG6" version="22.0.8" type="device">
  <diagram id="d1ab7348-05c3-a1e3-ca4d-12c340fd6b49" name="Page-1">
    <mxGraphModel dx="1509" dy="838" grid="1" gridSize="10" guides="1" tooltips="1" connect="1" arrows="1" fold="1" page="1" pageScale="1" pageWidth="1169" pageHeight="827" background="none" math="0" shadow="0">
      <root>
        <mxCell id="0" />
        <mxCell id="1" parent="0" />
        <mxCell id="0oO7P-rnS31lydjLmnYO-146" value="" style="sketch=0;points=[[0,0,0],[0.25,0,0],[0.5,0,0],[0.75,0,0],[1,0,0],[1,0.25,0],[1,0.5,0],[1,0.75,0],[1,1,0],[0.75,1,0],[0.5,1,0],[0.25,1,0],[0,1,0],[0,0.75,0],[0,0.5,0],[0,0.25,0]];rounded=1;absoluteArcSize=1;arcSize=2;html=1;strokeColor=none;gradientColor=none;shadow=0;dashed=0;fontSize=12;fontColor=#9E9E9E;align=left;verticalAlign=top;spacing=10;spacingTop=-4;whiteSpace=wrap;fillColor=#E1F5FE;" vertex="1" parent="1">
          <mxGeometry x="285.87" y="731" width="455.26" height="75" as="geometry" />
        </mxCell>
        <mxCell id="Mzdmz-6m3bua8gfHEATt-170" value="" style="sketch=0;points=[[0,0,0],[0.25,0,0],[0.5,0,0],[0.75,0,0],[1,0,0],[1,0.25,0],[1,0.5,0],[1,0.75,0],[1,1,0],[0.75,1,0],[0.5,1,0],[0.25,1,0],[0,1,0],[0,0.75,0],[0,0.5,0],[0,0.25,0]];rounded=1;absoluteArcSize=1;arcSize=2;html=1;strokeColor=none;gradientColor=none;shadow=0;dashed=0;fontSize=12;fontColor=#9E9E9E;align=left;verticalAlign=top;spacing=10;spacingTop=-4;whiteSpace=wrap;fillColor=#F3E5F5;" parent="1" vertex="1">
          <mxGeometry x="267" y="121" width="493" height="586" as="geometry" />
        </mxCell>
        <mxCell id="Mzdmz-6m3bua8gfHEATt-143" style="edgeStyle=orthogonalEdgeStyle;rounded=0;orthogonalLoop=1;jettySize=auto;html=1;" parent="1" source="127" edge="1">
          <mxGeometry relative="1" as="geometry">
            <mxPoint x="280" y="348.11" as="targetPoint" />
            <Array as="points">
              <mxPoint x="240" y="503.1099999999999" />
              <mxPoint x="240" y="348.11" />
            </Array>
          </mxGeometry>
        </mxCell>
        <mxCell id="127" value="Line Bot&lt;br&gt;&lt;span style=&quot;font-size: 10px;&quot;&gt;User Message Callback&lt;/span&gt;" style="rounded=1;absoluteArcSize=1;arcSize=2;html=1;strokeColor=none;gradientColor=none;shadow=0;dashed=0;fontSize=12;fontColor=#9E9E9E;align=left;verticalAlign=top;spacing=10;spacingTop=-4;fillColor=#E1F5FE;" parent="1" vertex="1">
          <mxGeometry x="30" y="438.11" width="170" height="130" as="geometry" />
        </mxCell>
        <mxCell id="Mzdmz-6m3bua8gfHEATt-141" style="edgeStyle=orthogonalEdgeStyle;rounded=0;orthogonalLoop=1;jettySize=auto;html=1;entryX=0;entryY=0.5;entryDx=0;entryDy=0;" parent="1" source="128" target="Mzdmz-6m3bua8gfHEATt-139" edge="1">
          <mxGeometry relative="1" as="geometry" />
        </mxCell>
        <mxCell id="128" value="Desktop&lt;br&gt;&lt;span style=&quot;font-size: 10px;&quot;&gt;Store Manager&lt;/span&gt;" style="rounded=1;absoluteArcSize=1;arcSize=2;html=1;strokeColor=none;gradientColor=none;shadow=0;dashed=0;fontSize=12;fontColor=#9E9E9E;align=left;verticalAlign=top;spacing=10;spacingTop=-4;fillColor=#FFF8E1;" parent="1" vertex="1">
          <mxGeometry x="30" y="138.11" width="170" height="130" as="geometry" />
        </mxCell>
        <mxCell id="Mzdmz-6m3bua8gfHEATt-142" style="edgeStyle=orthogonalEdgeStyle;rounded=0;orthogonalLoop=1;jettySize=auto;html=1;" parent="1" source="129" edge="1">
          <mxGeometry relative="1" as="geometry">
            <mxPoint x="280" y="348.11" as="targetPoint" />
          </mxGeometry>
        </mxCell>
        <mxCell id="129" value="Mobile Devices&lt;br&gt;&lt;span style=&quot;font-size: 10px;&quot;&gt;Customers&lt;/span&gt;" style="rounded=1;absoluteArcSize=1;arcSize=2;html=1;strokeColor=none;gradientColor=none;shadow=0;dashed=0;fontSize=12;fontColor=#9E9E9E;align=left;verticalAlign=top;spacing=10;spacingTop=-4;fillColor=#F1F8E9;" parent="1" vertex="1">
          <mxGeometry x="30" y="278.11" width="170" height="140" as="geometry" />
        </mxCell>
        <mxCell id="130" value="" style="strokeColor=#dddddd;fillColor=#ffffff;shadow=1;strokeWidth=1;rounded=1;absoluteArcSize=1;arcSize=2;labelPosition=center;verticalLabelPosition=middle;align=center;verticalAlign=bottom;spacingLeft=0;fontColor=#999999;fontSize=12;whiteSpace=wrap;spacingBottom=2;html=1;" parent="1" vertex="1">
          <mxGeometry x="80" y="486.82000000000005" width="70" height="70" as="geometry" />
        </mxCell>
        <mxCell id="134" value="" style="strokeColor=#dddddd;fillColor=#ffffff;shadow=1;strokeWidth=1;rounded=1;absoluteArcSize=1;arcSize=2;labelPosition=center;verticalLabelPosition=middle;align=center;verticalAlign=bottom;spacingLeft=0;fontColor=#999999;fontSize=12;whiteSpace=wrap;spacingBottom=2;html=1;" parent="1" vertex="1">
          <mxGeometry x="80" y="188.11" width="70" height="70" as="geometry" />
        </mxCell>
        <mxCell id="138" value="" style="strokeColor=#dddddd;fillColor=#ffffff;shadow=1;strokeWidth=1;rounded=1;absoluteArcSize=1;arcSize=2;labelPosition=center;verticalLabelPosition=middle;align=center;verticalAlign=bottom;spacingLeft=0;fontColor=#999999;fontSize=12;whiteSpace=wrap;spacingBottom=2;html=1;" parent="1" vertex="1">
          <mxGeometry x="80" y="328.11" width="70" height="70" as="geometry" />
        </mxCell>
        <mxCell id="139" value="" style="dashed=0;connectable=0;html=1;fillColor=#757575;strokeColor=none;shape=mxgraph.gcp2.mobile_devices;part=1;" parent="138" vertex="1">
          <mxGeometry x="0.5" width="50" height="36.5" relative="1" as="geometry">
            <mxPoint x="-25" y="16.75" as="offset" />
          </mxGeometry>
        </mxCell>
        <mxCell id="VxR14Vq80_6-qc9pXVwi-163" value="" style="sketch=0;outlineConnect=0;fontColor=#232F3E;gradientColor=none;strokeColor=#232F3E;fillColor=#ffffff;dashed=0;verticalLabelPosition=bottom;verticalAlign=top;align=center;html=1;fontSize=12;fontStyle=0;aspect=fixed;shape=mxgraph.aws4.resourceIcon;resIcon=mxgraph.aws4.mobile_client;" parent="138" vertex="1">
          <mxGeometry x="5" y="5" width="60" height="60" as="geometry" />
        </mxCell>
        <mxCell id="VxR14Vq80_6-qc9pXVwi-173" value="" style="sketch=0;outlineConnect=0;gradientColor=none;fontColor=#545B64;strokeColor=none;fillColor=#879196;dashed=0;verticalLabelPosition=bottom;verticalAlign=top;align=center;html=1;fontSize=12;fontStyle=0;aspect=fixed;shape=mxgraph.aws4.illustration_desktop;pointerEvents=1" parent="1" vertex="1">
          <mxGeometry x="90" y="200.36" width="52.47" height="47.75" as="geometry" />
        </mxCell>
        <mxCell id="VxR14Vq80_6-qc9pXVwi-177" value="" style="shape=image;imageAspect=0;aspect=fixed;verticalLabelPosition=bottom;verticalAlign=top;image=data:image/jpeg,/9j/4AAQSkZJRgABAQAAAQABAAD/2wBDAAEBAQEBAQEBAQEBAQEBAQEBAQEBAQEBAQEBAQEBAQEBAQEBAQEBAQEBAQEBAQEBAQEBAQEBAQEBAQEBAQEBAQH/2wBDAQEBAQEBAQEBAQEBAQEBAQEBAQEBAQEBAQEBAQEBAQEBAQEBAQEBAQEBAQEBAQEBAQEBAQEBAQEBAQEBAQEBAQH/wAARCAQQBBADASIAAhEBAxEB/8QAHwABAAICAgMBAQAAAAAAAAAAAAkKCAsBBwIDBgUE/8QAURABAAEEAgADBAIMDAQEBAYDAAMBAgQFBgcIERIJEyExFLIKFSIyOEFRc3eBsbYjOWFxcniGkaG3wfAWNXXRFyW04SQmM1IYQkNGxfGCkuL/xAAeAQEAAgIDAQEBAAAAAAAAAAAACAkGBwQFCgECA//EAE4RAAEEAQMCAwMHBwoDBwMFAAABAgMEBQYHERIhCBMxCRRBIjZRdHa0tRUjMjQ4c7YWMzU3QkNhcYGyJFKDJVNydZGhsRdUYmSCpcHR/9oADAMBAAIRAxEAPwC/wAAAAAAAAAAAAAAAAAAAAAAAAAAAAAAAAAAAAAAAAAAAAAAAAAAAAAAAAAAAAAAAAAAAAAAAAAAAAAAAAAAAAAAAAAAAAAAAAAAAAAAAAAAAAAAAAAAAAAAAAAAAAAAAAAAAAAAAAAAAAAAAAAAAAAAAAAAAAAAAAAAAAAAAAAAAAAAAAAAAAAAAAAAAAAAAAAAAAAAAAAAAAAAAAAAAAAAAAAAAAAAAAAAAAAAAAAAAAAAAAAAAAAAAAAAAAAAAAAAAAAAAAAAAAAAAAAAAAAAAAAAAAAAAAAAAAAAAAAAAAAAAAAAAAAAAAAAAAAAAAAAAAAAAAAAAAAAAAAAAAAAAAAAAAAAAAAAAAAAAAAAAAAAAAAAAAAAAAAAAAAAAAAAAAAAAAAAAAAAAAAAAAAAAAAAAAAAAAAAAAAAAAAAAAAAAAAAAAAAAAAAAAAAAAAAAAAAAAAAAAAAAAAAAAAAAAAAAAAAAAAAAAAAAAAAAAAAAAAAAAAAAAAAAAAAAAAAAAAAAAAAAAAAAAAAAAAAAAAAAAAAAAAAAAAAAAAAAAAAAAAAAAAAAAAAAAAAAAAAAAAAAAAAAAAAAAAAAAAAAAAAAAAAAAAAAAAAAAAAAAAAAAAAAAAAAAAAAAAAAAAAAAAAAAAAAAAAAAAAAAAAAAAAAAAAAAAAAAAAAAAAAAAAAAAAAAAAAAAAAAAAAAAAAAAAAAAAAAAAAAAAAAAAAAAAAAAAAAAAAAAAAAAAAAAAAAAAAAAAAAAAAAAAAAAAAAAAAAAAAAAAAAAAAAAAAAAAAAAAAAAAAAAAAAAAAAAAAAAAAAAAAAAAAAAAAAAAAAAAAAAAAAAAAAAAAAAAAAAAAAAAAAAAAAAAAAAAAAAAAAAAAAAAAAAAAAAAAAAAAAAAAAAAAAAAAAAAAAAAAAAAAAAAAAAAAAAAAAAAAAAAAAAAAAAAAAAAAAAAAAAAAAAAAAAAAAAAAAAAAAAAAAAAAAAAAAAAAAAAAAAAAAAAAAAAAAAAAAAAAAAAAAAAAAAAAAAAAAAAAAAAAAAAAAAAAAAAAAAAAAAAAAAAAAAAAAAAAAAAAAAAAAAAAAAAAAAAAAAAAAAAAAAAAAAAAAAAAAAAAAAAAAAAAAAAAAAAAAAAAAAAAAAAAAAAAAAAAAAAAAAAAAAAAAAAAAAAAAAAAAAAAAAAAAAAAAAAAAAAAAAAAAAAAAAAAAAAAAAAAAAAAAAAAAAAAAAAAAAAAAAAAAAAAAAAAAAAAAAAAAAAAAAAAAAAAAAAAAAAAAAAAAAAAAAAAAAAAAAAAAAAAAAAAAAAAAAAAAAAAAAAAAAAAAAAAAAAAAAAAAAAAAAAAAAAAAAAAAAAAAAAAAAAAAAAAAAAAAAAAAAAAAAAAAAAAAAAAAAAAAAAAAAAAAAAAAAAAAAAAAAAAAAAAAAAAAAAAAAAAAAAAAAAAAAAAAAAAAAAAAAAAAAAAAAAAAAAAAAAAAAAAAAAAAAAAAAAAAAAAAAAAAAAAAAAAAAAAAAAAAAAAAAAAAAAAAAAAAAAAAAAAAAAAAAAAAAAAAAAAAAAAAAAAAAAAAAAAAAAAAAAAAAAAAAAAAAAAAAAAAAAAAAAAAAAAAAAAAAAAAAAAAAAAAAAAAAAAAAAAAAAAAAAAAAAAAAAAAAAAAAAAAAAAAAAAAAAAAAAAAAAAAAAAAAAAAAAAAAAAAAAAAAAAAAAAAAAAAAAAAAAAAAAAAAAAAAAByAAAAAAAAAAAAAAAAAAAAAAAAAAAAAAAAAAAAAAAAAAAAAAAAAAAAAAAAAAAAAAAAAAAAAAAAAAAAAAAAAAAAAAAAAAAAAAAAAAAAAAAAAAAAAAAAAAAAAAAAAAAAAAAAAAAAAAAAAAAAAAAAAAefl8a/CiNrx1+1X8IXgC0+TD21zqzkXZ8uFTJ0XSnAr8Pf9j7X38db8PI2Ou+lQYPEdNk+mt8e95ZnajCyYY8i3UV2mdHbgS5HpPR2q9eZ2jpjRmnstqfP5GRY6eKwtGe9cl446pFjgY/yoIkcjp7MzoYK8fMk0scaK44ORydDE1ZbuSuV6VWFOZJ7EjY2J9CJ1Ly5zl7NY1Fc5ezUVSSO++yO26+++2yy2la3XXVpbbbSlPOtbq1+FKUp8fOtaUQM+O/7II8HvhDztpwPraS/wAT/cWtvyMTN4113vcHE4DxvYwXVikweW9n/RtvrIc6GWyWLI1nFNXy3ZYOVBLh7rG08vouuqi+0B9uJ4vvHLXc8L1u4v6D6Fz6z41OqeuttmWZ/ItbLStnuOx+dWR6/c8utmjuvsytNhwcf4jkx1iplcby8rHszr4YVzHhv9lA+dlLVHiPyjomuSKeHbnTN7pkRFVj/L1HqOvy5q8KrJaOCc1WrwqZle8aRx1jvwvMlLR8CcIrmLl7kfKrx26qtR3onPdslj1T+5T1Wzhvfsp/xt5O8kyOOdFeGHU8drP6otTutN2lv9zbj+utfdSb/B7R41hSTe78rfpFvG4rPXSt9cb0193SRbwp/ZSPS3Ms3A414uOnN50xlz3xw3djdc5WX2Jwe26vlWTM3PGLsLE5voMOz7q2yLSR8/yr7qW1utjsuurFR5E39Vezg8JupMLNiKm3btK2lYiVs5prOZutlqsiJ0pMi38hkqVr/wDOO7RnhevdWco1zdZUN4NeUrSWX5lbrefl1rleCSB6du3DI4pGIvwWORqp/knC7dbpDxG9E+JTiUXOehu2ODdq8Xk91SXZcM5Bgbi7XTzWVktwd3gQS12Oh2dLaVrLqtziYOyg8rqT4sV1K0p3V5/7+Pl/f8moD6u7d7T6S5dhc96e7F5n1jzPW3U+i8l4NyTbcZ3FsfrslvxJMzU5WLJlYGRdZZTM12VWbAzIvOHLx5orro7rHvg++ydfEn1jXV8X8WvA9L4heKQ0hxpedcYs13AO18PHp9zfl5eLhYtnBOXXwx2WWwYNNTwzKyZLpJs/kM8lVYO93so929Ge95faHN0dzsHGj5mYa55GB1hBEiOd5bI5pVwuWVjWp+cgu46eZ7kbFQ59d3aa35wWQ6K+oasuGsr0otmLqtUHKvCdS9LfeIEVV9FZK1E9ZC9+I4vCD7V7wNeNaLWa3p/ufT67n+fHZ6+pOxPd8G7LhybrKSSYeFottNTE5VJj23W/ScrhGz5NrYbq0tvz/VS6lJHKXUup521pdT8tK0rT/BWLqjSGq9EZezgNZaczel83Ud02MXnsZbxdyP6H+Rbiic+J/rHNEskMrVR8cjmuRTduPyePytdlrG3at6u/9GarMyZnPHdFVirw5Pi13Dmr2ciL2OQGOnOAAAAAAAAAAAAAAAAAAAAAAAAAAAAAAAAAAAAAAAAAAAAAAAAAAAAAAAAAAAAAAAAAAAAAAAAAAAAAAAAAAAAAAAAAAAAAAAAAAAAAAAAAAAAAAAAAAAAAAAAAAAAAAAAAAAAAA4/H8/l86eX+v/Z8vzTm/DeuOL7rm3P+U8e4Tw/jeDLs9/yjlW41+g4/pdfD5e9zdpt9nPjYODjWedKXT5M8cdK3W0rd51o/pDDPZlir1oZbFieRkMEEEb5ZppZXNjjjiija98kj3ua1jGNc57lRrWqqoi/l72RsdJI9sbGIrnve5Gsa1E5VznOVEaiInKqqoiJ3U+pY7eJTxY+Hrwh8ByOyfEP2lxnrbjMdJ48Cm4y7pd5yPNgi99dquJ8ZwI8vkHKdvWPykrrdDrc/Kjh9WTNFHixyTWVs/aCfZMvCOG/bvrPwFcexexeSxVnwMnvnm+uzMbgGpntrWGWfg3D8imFuOY5MP8JXF3O/rpOPQ5UMOTj6zl2pnpW+np3h3/3T4lefbPs/vfsnlXaHOttddSfecp2N2XXFxqy3yx6zS66O2HU8f0uNfLJXC0OhwNdpsGl91uHgQWVras48NnsyN1N1Vx+pd132trNDzLFYbRs12O1zmKyuavTVxVhvlYKOVvPFrMsdaZy1zMRKxzXJpHWe9mEwfnUsAjM1kmcsWZruMbXcnZVdM3vac3/kgVGL35mTgsR+0F+yUO7O5vt31v4K9Vs+g+uJ6ZOvye1NzTCye5+S4l3nFdNpYseTN0nWmNkR3S22y6+be8rj8sfPwOR8cy6SYdlZDdbvd8l2+z5DyPb7TkG+3Wdk7PcbzdZ+XtdvttlmS3T5mw2ezz5cjNz87KnvvmycvKnlyJ5b7r5ZL7rrq1/LF8GzHh62m2DwbcJtrpKhh1fFEzI5qRiXNQ5mWNrfz+WzM7X3bTld1PbAkkVOur3Nq1YI/kkW9R6szuqrK2szfmsqiqsVdF6Ktdq/2YK7FSNnCcJz0ukdwnW9ygBuwxsAAAADzjkkhkjlikvikivtkjkjuuskjksupdZJHfbWl1l9l1KXW3W1pdS6lK0rStExXg/9ul4/fCT9q9D/AOJV3e/WmBWGGvX3d8mfy2/FwLLrbbsfj/OfpcHOtJWHGp7jWYkm82nHddSkVbeOTx2e5vhyGudxdpNtt2cQ/Cbi6L0/q3Hua9GMy+OgsWKrpERFmoXull7H2EREVtijarzNVEVH9k47fEZ7MYKwlrEZG3QmTjla8z2NfwvPTLGqrHK34dEjHt47cGwy8H32Rx4IPEL9q+N90T7Pwq9h5lIYJMfsHJs3PWGXmyUp6rdb2jrMTGwtdi2eV98uZzvScJw46UtjjyMiS6nnPlxzk3HeX6XW8j4pvdNyXj25xIs7Ubzj+zw9xp9phTU9UOXr9lr5sjDzMWW34xZGPNJFJT42X1o07bLTww+OnxZeDbd27jw6938z6/xb8q3L2HE4c2zc8A3kvnZSS7ecC38ey4lscmWKyuPTYzaim2xYpJPoOfiyXUlpVJvb7I3TmS98zGxGsp9OW1WSWLSGsnz5PCuVXKqVqOoII35fHxtThrPyhXzTnduudE5em9tMb/XoPLr6ooNuxJ0tW/RRsFpqcNRXy13L5Ey+qr5boPj29ENsYKfng9+yk9BsKarinja6cn49l19ziz9udKxzbPR3XVr7uubyDrXdZsu61kEdltJs7N41yTk0+TLJdTA4xixWWRLO/h38W/hs8WHGf+LvDx3LwXtPURxQy50XHNtH9vdHWelKxQcm4tn24fJuL5kltaVswuQ6nWZlba23UgrbdSqovd7w1b3bF23w7kaBzWIoJL5cOoa0P5V0zbVf5vyM9jksY9r5U7x1rUtS3xyrq6KioSA09rbTOqI2uxGVrzTKnK05XeRdZwiKqLWl6ZHcfF0aPZ2/S4MjAGjDKwAAAAAAAAAAAAAAAAAAAAAAAAAAAAAAAAAAAAAAAAAAAAAAAAAAAAAAAAAAAAAAAAAAAAAAAAAAAAAAAAAAAAAAAAAAAAAAAAAAAAAAAAAAAAAAAAAAAAAAAAAAAAHn5fGvwoAPC+SyO2t991tlttPOt11fK2lKfOta1+Hl/v8AHRHL45/an+ELwB6XIs7g57Fu+ypsGmXoOleB3YnIeytz76OsmHNmauzKgw+J6fKpS66Lfcuz9JrMqOOePWTbHOjswZKQftAvbl+L3xw3bvhOk20vh/6Dz65GL/4XdebfLt2/JdZL9xWHsbntkWv3HKLJ47pI8rSa3H49xLJgvsizuP7DIx7c++X/AIdPBHvb4i56uQwmGXSmhpJG+8a71PBYqYuSHq4kXCVOhlzUEyIj2s9ya2gkrPLs5Guq8prrWG52mtItkhnspfyiJwzGU3tfK168dPvMveOq3uiqki+Zx3bG4tV+0G9v/wCFDwf/AG64B1NkYniW72wa5ODNxzhe5gs674ds463Q3W837Dxos/AvzcKe2SzJ4zxWHebmLKxpdbu7+MySxZlKSfjQ9o14svHpyf7dd+9k5mbxjDzLszjPVfGKT8e6u4ldWl9sV2o4rDlZFufsYY5JIbeRclzN9ye+CS7Gl3V+LSPHjwZF/Xhy8DGynh3hqZPHYhNYa8iY1bGuNT161rIQzqxqSpgqSsdSwNdXdaR+5sffWJ3l2clYIo6w3N1Lq974p7C0MYq/IxlJzo4Vai9veJEVJLT+OOfMVI+eVZEz4AEzzXQAAAAAAAAAAAAAAfXcG7A531fybW82625pyrr/AJhppffanlXC+QbbjHItbLWtPO/B3Oly8LYY1b/KlL6Q5FtL7fub6XW/B8iOFkMdQy1Oxj8nRqZGjbifBap3q8NupYhlarJYpq9iOWKWN7FVr2SRua5qqioqKf0immgkZLBJJFJG5HMkje6N7XNXlHNcxWua5FROFaqKnqi8lknwffZLni86Wrq+MeJTj+i8T3B8asONJvci7F4L21gYltbYqX2cj0+vk41yX6Lj+cnud9xezc7Wey36by6C6STJWpfB97ZbwF+Mz7VaTg/bmH1/2Vs/cRWdT9w0xOB8zlzZ/hZr9JNl5uTxbmGZfWl9bMTh3I99mWxWVkycbG+TWIivTe72Zvh93T97ymlKFnajVE/mSJd0lHEun7FhyoqOvaVnVMc2NF5V35Ikw8rlVVc9/CIba0zvPqzBeXBclbnKLelFivuVbLWpwnEdxv57nj087z07enqpuPrbqXU86VtupX40rbXzpWn8/wAq/qrV5NYt4QPbO+PjwbV1el4h23ldl9a6+sMVOq+5/pvO+LQ4MXotswtDssrNx+YcSxooqSUxcLjPJdbp45ZPf5OqzK20sra68GX2SL4O+/pNVxLxBYWf4Vew8v3ONXO5Tm05F1Ds827ys88XsPCwcKbjlsvpvyJrub6Hj+m10V0ePTkexm/hLqft8PZ2+InZtLeTpYFu5Wk6/mSfl7REVi7dgrs618zJaaez8sVXNY3zJnU4spThbwrrnrxITTG8OkdRLHBPZXC338N92yLmshc9eE6YbicQu5VeGpJ5Ll+DSxePxOO8k49y7SazknFd7qOSce3WHDsNPvdBssPb6faYE9tL4M3W7LAlyMPNxJ7K0vhyMaWWGWyvqjvup8X7aCUkcsMj4po3xSxOdHLFKx0cscjHK17JGPRrmPY5HNcxzUcjkVqoioqG1Gva9qPY5r2uRFa5qo5rkVOUVFTlFRU7oqLwqAB+T9AAAAAAAAAAAAAAAAAAAAAAAAAAAAAAAAAAAAAAAAAAAAAAAAAAAAAAAAAAAAAAAAAAAAAAAAAAAAAAAAAAAAAAAAAAAAAAAAAAAAAAAAAAAAAAAAAAA8vnX8vz/UVp5/Cr5jmXNOI9e8Z3XM+d8o4/wziXHcGXZ77k/KNvgaLQaXXQUpWbO2m22c+NgYGLFStPXPlTxRW+dKVu+Kq17QX7Jj4Dwau86z8B2gxOzeUxVnwMrvXmmBm43XWnnsrWCWXhPFZvoG65rlQ3e9rjbjcXaLjceRFBl4uJzDVZFaV3Bs9sJutvxn2YDbPSWQzsjJI2ZHKujdU0/hmSLyk2XzUzW0qaIxXSMgWWS5Ya1yVas7+EXG9R6twOlaq2s1fircoqxVmqkluwqf2YKzV8x/K8IruEjbzy97U7lkfxIeKvw++EfgOV2X4hu0eMdacVg9/HhSbrLuk3G/zoIffXanivG8GPK5Bync3R+clNVx/W7DOpDS7Ivhtx45JbKaPtA/slTuXt/wC3XW/gm0+x6K68n+k6/J7a31mDldxcjxLvOK+bQYcd+do+t8XJjrLbZkY0u/5Xbb9FzsDdcYzrJMWyuv3r4he7fE1z7Y9n99dl8q7R5xsq3Wybrk+wuybcHFrJfNbq9Fq4LcfT8b0kEkkl+Lo+P6/WafErffXGwovXd59NL2/DX7MDbLbJMfqfd+WrujrWLy7DMVNA5uhsPYRY3o2HGTok2fmhejm+9ZjipJwj2YeJ6I8i3rPezN5zzaWBR+ExruWLKx/ORsMXty+dvCVmuT+7g+WnKoszk9P1d7v95ync7PkfJt1teRch3mbkbLc77e7HM2+52+xzJLpsvP2m02E2RnbDNypbrpcjLy55p55Lrr5JLrq1q/KBaLVq1qVaGpTrw1a1eJkMFevEyCCGKNqMjiiijYyOONjWo1rGMa1rURGoiIiGkpHvke6SRznve5XOe9Vc9zlXlXOcqq5yqvqqqq/4gByD8AAAAAAAAAAAAAAAAAAAAAAB8VEVFRURUXsqKnKL/mg5M2fCH7RLxeeBzeR7Hw+9vbzQ8fkzKZm3603l93Jer+Q3XX21ya7Thezlk1mPl5dttIZt7oq6XktkPnZibvHr91S4Z4Evsk3w197Xabgfiw1MHhl7LyqQYdvML8vI23SO/wA6/wBNnvbuQzW37fr2s8nrkrj8vjyuPa7Ht88nnM819kVaDQiFv94ItiPEFFbvZ/TUWm9YzMd5Gt9JxwYrN+d08RvycccPuOcjReEdHlK1iZGIrYLNdyo9NgaV3K1RpN0cdO661Qa5OvG3lfPW6eUVyQ8r5lZV794Htbz3cx3ou4r0m80vJdTrt9x3ba3e6Pb4WPsdVuNPm42y1eywMyK2fFztfn4ck2JmYmTDfZNBk48skM0d9skd91t1K1/VatbwOe1M8X/gE2+NH092BNuetL836Vu+led1y+Q9abW2Was2dJgau/KhzeIbXLuvrJNuuH52lzcvIsgrtvtriRVwr7wfs9PbjeEvx0003Btpsbeh/EBnUx8X/wAKOfbbE+g8n2V9lvvI+tea1iwNXzCskl3px9NlY2i5fL6J5I+NS4WPdnyUO+JHwA71eH733O1qT9w9va7nyJq3TdSZ9nG1kVyo/UWCati7i0YxOqa5At7FRtRHSXYFcjElLo3dnTmq/LqzSJiMu5ET3G3I3y5nrxylS1w2OXlV4bG/y5l9EY7jkmmHFK0rSlaVpWlflWnxpX+atHKC5tPkAAAAAAAAAAAAAAAAAAAAAAAAAAAAAAAAAAAAAAAAAAAAAAAAAAAAAAAAAAAAAAAAAAAAAAAAAAAAAAAAAAAAAAAAAAAAAAAAAAAAAAAAAAAOPOnw/l8/L9Xzc/Hy/l/L5OK18vj5+VPx/wD9/iR1eOX2pHhE8AWknu7k59FtexZ8L6Xx7pjg1cXkPZm995HdfizTaa3Kx8XjGoyvTdWLf8uztHqJ6RTRYGVm51lmHfkOltI6p1znKOmdHafy2pc/kpPLpYnC0Z792ZeU6neTXjerIYkVHz2JFjggjRZJpY40VxwshkqGKqyXclbr0qsScvnsytiYn+CK5U6nL6NY3lzl7IiqSK3XW2087q0tpT51r8KU/nqgb9oJ7ffwneDz7ecC6vy8XxK97YH0jBk4pwfc49vAuIbSKt8V9nOew8ePP11mXhZFklmVxvi8G/30GXjya7cx8dulszbKqvtA/bp+Lvxu13XCON7Sbw9dCbCuRiV616+3GXTf8o1cvnZ7rsTn8UWv2/IIp4qyRZei1EHHeKZOPLbj7LSbabHszr4TlzHhr9lFYmWhqvxHZNYYuYbMO22nbv55/dr0h1NqGsqoxqpyybH4J6O+P5ZT5caxw1nvx/PUdHxcfpMdmLcfrz26qdVyduF7tlsev/ceimdvjU9pF4tPHvyW7bd9dj5c/FMTNuzON9TcUpk8d6t4rWlbqQ367i8eVkV2myx7JJI7ORcozN/yT3U0mP8Abe3E93jR4JAuj0ZofSG3mBpaY0RpzEaXwOOibFVxeGowUarE6Wosj2wsas08it6pbE75bE8iukllkernEccjk7+WtSXcjbsXbUq8yTWJHyvVe/CIrlVGtRP0WNRrWp2a1E4ADLDggAAAAAAAAAAAAAAAAAAAAAAAAAAAAAAeVl98V9kkd90ckd1t8clla2X2SWVpdZfZdbWl1t9t1KXW3W1pW2tPOlaVpR4j8SRslY+KVjJI5GqySORqPY9jk4c17HIrXNci8K1UVFTsqH1FVqorVVFReUVFVFRU9FRU7opY19m/9kOd/wDheu0PV3ijrvfEX0Vi+41+LyDKzbMnujgGuspZHHXU7/Z5MUPPtRh2UvpboeYZsW2strDDreX4GvwYdRPeK8Nvil6G8XPW2s7Y8PnY+h7F4dsPRDkT6ua+Ha6HZ1hsnl0fKdBm2Y+74zvsaySy+bUbvBws2kMkOVHFJiZGNPNqQGSHhd8W/iB8GvZmD2t4eexNxwTkuPdjx7bCx5K5fGOX6qGW6S7Qcz41k1u1XJNNL6pfTj58F2RgTSfbDT5Wu2sONnwVd+Kj2aO3+7DMjrDaFuP253Ck8y1PjYofJ0XqawqK5zbdCsxfyFfsP7rksXD7s+Rz5LmNnkkWwzduhd5stp9YcfnVly+ITpjSV7urIU2Jw3mOZy/8RG1P7mZetEbwyVETpNtgIJ/Zf+3K6H8d0Ol6t7Lpquj/ABPSQRY//BGx2NbeHdk5cVn8Pl9W77PvpJPmTei7Kl4LuZaclwor5LdXkcqwtfn7mOdelaVp50r50/LR5+dxtstd7Sapv6M3D03kdM6hx7l66l6L81Zg6lbHdx1yPqqZGhP0qsN2lNNXk4VqPR7XMbLTC53FahoxZHEXIrlWVP0o3fLjfwiuimjXh8UreflMe1rvj3RUVeQGCHbAAAAAAAAAAAAAAAAAAAAAAAAAAAAAAAAAAAAAAAAAAAAAAAAAAAAAAAAAAAAAAAAAAAAAAAAAAAAAAAAAAAAAAAAAAAAAAAAAAAAAdG+IPxI9IeFbrbbdt9/di6DrfgenrSGTa7ueW7I2OwksllxtNx/UYcOVueSb7Msgmvw9Ho8HYbTKshnkgxL4oJr4+6MvKiw8bIy577I4ceGSaSSS6ltlscdvrvuuur8LbaW0rWta18vh51+HxUCvbAYPiK8evfOz7M43znB5N1lw2uTx3qTqDJlk4tDxrRUyosbJ3Gsk2GdNoNryDllcenIuTb3c5vHthbB9reN4kWbr9Fq4rNsbHaU2y11ujpnSW7G6GG2o0nlJJX29QZaRIpLXu7oeMVjJ5oZMfUv3XSsjjvZaSDH1Gdc0izysiqT6U3l3x0ds3Tw0eocvjKGZ1RNaq6dq5Ox7rXsS1GRPszzzqiMiggSaFvMskLZZZY4WyNc5VTtb2gn2St2/2z9uutvBFptj0fwCb6Tr8rt7kcOBl9vcixa+qK+fjettvz9F1zh5UdZbYsu2Tf8ALPdXYufg7LimxjkxY6wHIORb/lu72vJuVbzccm5Jvc6fZ7vkHINnm7nd7nY5V9ZcnYbTbbGfJz9hm5Ml10mRl5c8s819a3ySXXV8393KuF8u4NtZNJzHjW64xtrIrMiuButdl6/Ivxpa30hy4rMuGKs2Jkei+7Hy4feY+RbSt0MsltPU+Zeq7w/7H7G7QaUpx7NYbArQyFSCSfVlOzVzeW1E3oY5lu9qNr7MtxkiosscMFhlCDrVKtaJnCJFPO60zOs5W5DI5Rb8MieZVZXlauPZG9EVvuscLnQdCpxxIiyOend0r/iASCMeAAAAAAAAAAAAAAAAAAAAAAAAAAAAAAAAAAAAAAAA9+Nk5OFk4+Zh5E+JmYk8WTi5WNLJBk42TBJbLBkY88V1ksE8MtlkkUsd1skcltt9l1t1tKravsoPsiHecJk4z4fPH3vM7kvD61xdJxDxJZFs+fybjNtPRj4Wv7chhsly+TaS230Q289xo5uSYF1ls3KYOQQ5OZv9TUjGit+vDrtl4itJy6X3CwsdiWJkrsJqKm2KvqHTtyRqIlvE5Hy3yRormsWxTmSajdYxsdqtKiNVmT6W1dmtI323sRacxFc1LNR6udVtxp3WOeHqRHdlXpkTpkZzyxzfjuJ+O8i0HLdFqOT8V3Wq5HxvkGuw9vot9o8/F2um3Gq2EFmVgbLV7LBlnws/BzMaWPIxcvFmlgyIZLJopLo77bq/sVp5/wA346fla272VXtnO5PZ7b/X9e8xu3Ha3hX2uz95vOt58y2be8Avzp635/Jeqc3Pmjh12RWWW/P2fDsvIg41yKeuTfZfodznz8gpsK+gPEJ0/wCKHqzjPc3RvN9Rz7r7leL7/XbnVSXUkxsmOltudp9xrsi2LYaTfaqe6uLttJtcbE2WuybbocrGju8vPzL+KHwj7keGDUvumoIH53RWTsSN0zrqhVlZjMixOpzKORZzKmJzccSdU1CeV7Jka+ajYtQtkWKaehtwcPrakjqzkq5SFjVu4yV6ebGvCI6WBVRvn11cvZ7U5ZyjZGtVU57nARUM+AAAAAAAAAAAAAAAAAAAAAAAAAAAAAAAAAAAAAAAAAAAAAAAAAAAAAAAAAAAAAAAAAAAAAAAAAAAAAAAAAAAAAAAAAAAAAAAAAAOg/E/ssvT+Hbu7Z4Mt0GZgdUc+zMWay6tt8WRjcYzpYZba0+NLrL7aXW1/FXyqp33fCtf6Edf11tsrWv+Nf71wLxZ/gzd9/oe7G/dPYft+Sn7f86/m4/qRtDbyKvvmB4Vf1a52T6feKvfj159O6L9CFIntXpX/wAtNpY1c7y26X1BIjefkpIuYosV7W/Byta1qu4+Cd+OyfOco4jxfnGnl0HL+Pafk2nlrJf9r91gYuxxoMiTHlxfpuJbkxSVwthHBNLHjbLCvgz8Wt9b8bJhv8rqYBdqezp4Nv7snZdTcgyeD7G+kskXHd5XL3vFrpLvo0eNjY2zu9/yXTYsVtuTPk5OZXl+RkTSRxwwY0VvlSRxz+Tz+P8AN8K/s/7st2N8XfiH8Ot+GztbuXqDD4+OZJZtNXbUmX0td7or2WcDkn2KKJIjel8lRtCx3VfeFdwqVu6J3d3A2/lYunNQ3IajXI6TFW3LdxUvdFcjqVlXxMV3HCyV/Il7r0yJ6lb/ALS8OfcHT1883MeH51mjiltjj5VqfLc8amtmyZ8fDrJtsCksGunz6wXS4ut3NNbuKw1jkl10PqpR0d/f/wD5UrbX+6v+/L4rWXnT03Ur8rrb47raU8vVZJbWOSy6vl91ZfZddZfbXzpfbdW27zpWtGI/angq6O7LsyszD0NOv+Ry2X1h3HC7Idfg1yLcW3GxPp/F6x/aCfDhvt+k5Mepx9Ds9hNdJdkbj1SVuXl+Hf25Glst7jgvEfoaxpi67yYJNbaJZNksI96+Wx1nIaesyflSixV5klXH2MlG3l3TF0oiEztB+MjA5DyKevsRLhLK9LHZfEI+5jXO4RFkmpPVbtVOe6+TJcThezU4IBRm12p4Du6OBXZWdxbEh7Q0Fl9/uZuMR32cjihrk2Y+LTM4jNWTZTZmVSSk92NxyXk0GJDbJflZsVtvmwsycXKwp5cXMx5sXJx5ZIJ4MmKSGaGeK6tksUsUltl8ckd9t1t9l1tt9t1K0utpWnkuv2q302j3uw0ee2s3A0zrTHvjjfImHydea7TWTu2LIY1748jQmTuixXKkD+UVE6uOVlzp7VOm9V0WZHTWax2ZqO4VZKNmKZYlVEcjJ4Uck9eTv8qKxDE9Pi1UPQA20d8AAAAAAAAAAAAAAAAAAAAAAAAAAAAAAAAAAAAABId7O72k3ffs6O1o+ZdabCTkXXXIMzDs7S6c3GdPFxPnmqgupHdkQ+mzIpx3mGBjVvpoOXYOLLlYMnlibLF3GimztNmx4jENdaE0luXpbL6L1vg6OodN5yq+pkMbfhSSN7XJyyaF/aWtbrSoyepcrSQ2atiOOevNHIxrk5+Myl7DXq+RxtmSpcrSJJFPE5WuRUVFVqp+i9j0RWvY5Fa9qq1zXNU2xvgz8aXRXjq6Z03dHRfJbdpqsr3eDyfi+w9xi8v4Bya2CybO4pzHTxz5FddtMSl9L4J4psjWbfCuh2mlz9hq8nHy5cs2qH8D3jl7z8A3dOr7i6V3l1lt9cbX874Hs58i7h/ZPFo5/e5HHeTYMV3l67KXzS6Xd49lNrx7Pkrma+alkuZi5myi8CPjw6P9oB0lrO4OnNrWHLg9xrewOvtrkY3/ABd1vyq6GsuRoeQYsNaWyY81LZMnRb3Gt+1u/wBdT6XiXRzxZ2FheZXxn+CbVHhlzrtQYJL2o9oszdWPD590fm3NP2JnKsOC1I6JiMZL36KGTRsdfJNb0ObBcRYJJqbb7mUtZ1Up3Fip6grRos9blGx3GNREWzURzlVeV7ywcq6JV5Tqj7pmsAggbVAAAAAAAAAAAAAAAAAAAAAAAAAAAAAAAAAAAAAAAAAAAAAAAAAAAAAAAAAAAAAAAAAAAAAAAAAAAAAAAAAAAAAAAAAAAAAAAAx08Wf4M3ff6Huxf3T2Cn9f86/m4/qRrgPiz/Bm77/Q92L+6ewU/r/nX83H9SNoTeb9d0/9UvfeapSD7V358bS/ZXUP41SPWA00VKgAAdXdldJ9Wdu43u+fcM1O6y6Q2wY+9rZfg8ixLIYMiLEjg3+tuxNvdh4V2RfkQavIysjT1yKWX5Gvn9Ppr2i58/l5f7/w/wC7LtF6/wBb7c5qpqLQWrNQaQzlKRH18np/K3cVajVHNXhX07EKSxuVqJJBOyeCRqdMkL29k7nB6hzmm7seRwGXyGIuxqitsY+1NVk9UXpcsT2pIxeEVzJGvY7jhzFIkO1fZw7nD+k7Pp3ldm7xbLZZIeK8vuxtdufTHHj2w4mDyTGgg0Wzy8qe7Kluv2mFxPCw4bIo78vJkrdfWPHm/XPOettrdpedcW3PGNh/DXQR7PBmhizoYMiTFvzNZl0tuw9rr7siGWOPY6zIy8Gatl10GRJb5XVs+1r8fj8a/D4/i/u8n5e70ek5NrZ9LyTTajkWnyr4ZMjU7vW4W11k8sF110Es2BsMfIxJJse66t+NLdDWTHkr7yK6y/yupcL4d/bXb3aBShg97sFQ3b0/D5cEmcqrBp/WkEKdDPMfYhi/I+Xlaz5a+906M0rk72OVVVlpoPxiaoxKwUtcYyDUtJvQx2SppHj8wxqcIrnta33G4qJ34dFWe9UXql5d1JVi+P8Av/seaartP2eXWfJ7cjY9abTP683NY7pItVPdk8i4rkyRYt1sUFLc7IrvtTfmZvplzNjbtN1j40d18eFoaW0sspG52t4Wu5+n/peZyPis2045iXS1/wCMeM3X7vj30eyeHFty8yfHhszdFDlTzxxYkfJMDS5WVdd5QQSUXr+H32hPhe8RsVOrpDcKhg9U2Uja7ResnRac1Ck71YiwVY7szaWUXqXpauMu2nP45SL4JM/Q+9O3O4LImYLUFaLIyIirhsorMflGv47sjhnejLSt4Xlak1hOEV3CcGPA5rStK+VaVpX8laeVXCbjXte1r2Oa9jkRWuaqOa5F9Fa5OUVF+CovBtQAP0AAAAAAAAAAAAAAAAAAAAAAAAAAAAAAAAADL/wReNrurwF95aLu3pjb+mbHui1vNeFbDIybeK9jcRvnslz+LcmxIL6eqKSlK5Gq2kcd2foNrZjbTX3UkivhnxAGO6s0np3XOnMvpPVmIpZ3T2dpTY/KYvIQtmrWqs7VY9jmuRel7eUfFKxWywytZLE9kjGvTl0b9vG3K9+jYkq26srZYJ4nKx0b2L1IqKnHKKicOb3a5vLVRU5Q2vvgf8bXS/j16L0Hd3TW3pfBk0s1nNOHZ8sP/FHXXMYcaKXacT5PiRV/gsrF97ZPr9hFb9r95qpsPbaySXDy460zDarD2efj/wC4PZ498avtrrfJl3HFNrdh6jtfrHKzJcbQdkcPjnuvlwMrypNHr+Ramk+Tm8R5LHjzZWi2UkkckWdpNjvNPtdmh4YfEz1H4vOluGd8dJ8ji5FwjmeBSeKl9I4dvodtB5Rbji/JddZLNdqeR6DNpJgbXAvllstlstyMSfM1+Rh5uT5ePGr4O8/4YtZrfxMdzL7T6mtyrpXPvY6aTFzu6pX6YzkzU6WZGrH1Oo2ZOlmVpMWeLmzXvQwzd213Eq61xyQWXRwZ6lG1LtZFRqWWpw1LlZq8cxvVU81jefJkXj9BzFXv8BCA2gAAAAAAAAAAAAAAAAAAAAAAAAAAAAAAAAAAAAAAAAAAAAAAAAAAAAAAAAAAAAAAAAAAAAAAAAAAAAAAAAAAAAAAAAAAAAAGOniz/Bm77/Q92L+6ewU/r/nX83H9SNcB8Wf4M3ff6Huxf3T2Cn9f86/m4/qRtCbzfrun/ql77zVKQfau/PjaX7K6h/GqR6wGmipUAAAAAAAPK266y62+yt1l9tba23W1rbdbdSvnS626nxpWlfuqVpWnlWvnR4j+sM81eVk0EssEsbkcyWGR8UrHNVFRzJGOa9rkVEVFa5FRURUVFTk/pHJJE9skT3xyMcjmvjc5r2qioqKjmqioqKnKKiovP/tjJ2l4Quje1K5Gbm8Ws4nyCWlbq8g4V9H0WVNJSmTJ6thrLcSfj2xvycvIpk7HOyNPTeZtIrIqbmC37qka3a/gC7d4NTI2PCL4e0NFHS6SlNPjXa7lUcdlmLbS6bik+RlTZ00+TkSQ4mLxvZcizJIceTJycfDtupZScXz/ACU8qf3/AOPl5nw8/wAlP5fuv9Fg/h39pv4qPD5JRx1bWcu4mjaqxMfpLcCWxm4GVmdCeRjczJK7OY3hnLYui9cgZw3it0t6Df8AoLxKblaIWGtLk11Lh41a12Nz7pLTmxIqfJrZBXe/11RqcMb500LeefJdwVWM7BzdZl5Ov2OHk4GfhTzYuXh5mPNj5GLk48l0U+PkQzW2SQzxSWXxywyW23xSW1sutpdStH8qyx2j0d1f3JhXY3POKYOyzrMb6NhcjxqV1/J9ZbbDkxYv0Pd4ltmXLj4V+XPkYup2X2w0V2XW2bJ1WTWyiLjub2fHOuJ/TN31Pm3c/wBBH7/I/wCHsm2DA5lgY1lMyekUMFvu9fyj3GNDjQ0k1V2FudnsMqkGv4rWy2t9fQD4Y/a4eHXfVcfp7W1p2zevLXkwfk/VVqJ2mMhberWdGL1SiRVGebIv5uDLsx0vykb5j3d1nFtz4mtvddeRRv2V0nnZelnuOYljbSnlXpTpp5VOiu/ly8MZZbUlVVRqNcvHMdw/t2Ot2OmzszV7bAy9Xstdkz4edr87Gnw8zCzMaW+HIxcrGnsingyceWy+KaCaO2WKS26ySy2+3yp/EtSqW6t6vBbpWILdWzEyaCzWmjngmikaj2SRSxOfHJG9jmuY9j3Nc1UVFVFRVkU1zXtR7FRzHIitc1UVrkVOUVFTlFRUVFRUVU4UAOSfQAAAAAAAAAAAAAAAAAAAAAAAAAAAAAAJc/ZFe1E5n7Obu+Km7yNryHw2dlbLX4XcnBYLr8mTW+n0YeJ2TxHErdW2HlvG8e6n03Eh9EfLtDDJo8+tM3H49tdJEYMA3P200ju9ojPbf63xcWV09qCnJVswyIiTVpeOqrkKM3Cvq5CjYSO1TtRK2SGeJjkVW9THdphczkMBkquVxs7oLdSRsjHp6PanZ8Uiej4pW8skYvZzVXtyiKm4T4HzviHZ3DOL9h8A5Dq+WcK5potbyTi/JNLk2Zmq3Wk2+LHma7Y4OTHX0y4+Tjy2SW/K+3z9Eltklt1tPrVDT7H79rJJ4dec6nwYd/cjrH0R2Tv6xdU8q3OZWmH1L2Jvcrzposmee+tmDwPnuznpSW6t9mDxvmGVbuJYsbX8g5Js8S+VStLqUutr50rSlaVp8q0r8qvJ14mfDxqvw17m5PQuoWy3MVKsmQ0jqNInR1dRYCSVza1ljkRI2X63arlabXKtS4xelX1pq00s9NE6woazwsOSqq2OyxGw5Cn1cvqWkanW3j1WKTu+B6/pRqiLw9rkTkBHszAAAAAAAAAAAAAAAAAAAAAAAAAAAAAAAAAAAAAAAAAAAAAAAAAAAAAAAAAAAAAAAAAAAAAAAAAAAAAAAAAAAAAAAAAAAAx08Wf4M3ff6Huxf3T2Cn9f86/m4/qRrgPiz/Bm77/Q92L+6ewU/r/nX83H9SNoTeb9d0/9UvfeapSD7V358bS/ZXUP41SPWA00VKgAAAAAAAAAAAAH1FVFRUVUVF5RU5RUX6UX4L/iEVU7p2VO6KnwOne2ug+ru68KmPzrjkU+yigjx8HlWrus1vKtdFHX7iLF29uPN9KxYbL57cfWbrF22ngvyJsmPXUyq2T2RDd5+CLszqiPM3/GbZOxOFY0cuTPs9RhyRb7TY0GN9JyJd7x2y/KyLMPGsjzJJNtqp9nroMLE+m7aXT35EeHbO55/wC/90c0urStK0rWlaeVaVp99S6nyrbXy+Hl51/7p/eFT2jniG8LdujjMbn5tc7cxSxtt6A1bbs3qEVVHIsiYDISPmvYGwjFd5basklDr6fMx3Tyq772x8Q+u9uHwVPenag06xzWvwmVmllbDEitRUx1tyunovRqL0Ma6Ssi8dVZU9ap1aVpWtK0rStPnStK0r/dVwnq778GHW/cFuw3+hjh4F2BNTJyftzrMWyml3mdfbZJ58m0sNscVZsmaOT3+81X0XZ0mz8vZ7WHkc0cGIhq7W6X7C6Y31dFzrRTYFJZMi3VbrG9WXoeQQY/ubrsvTbSyy2DKsthysSWfFupDstdXKhx9tg4GZddjW+oXwneP7YjxZYyvX0tmmaZ1/HAx+V271JYr1c5BI2NqzyYmRZG189RY/q6bOPV0rGdLrNWuqqhY5tpvRordCo38i3kqZhkfVbwGQfHDkoFREV7oW9XRdgb3/PVVk6W8LNHCruDqoBOQ2yAAAAAAAAAAAAAAAAAAAAAAAAAAAAAABf0+x+/an3eKnq+zwo938irleIXpnj0NeJ8g2+X73Y9t9W633GFi58+VPfWbYc04RbJi6rklZK3Zu508mo5LfLsc67lGVh0C3aXSXc/Yfh37Z4D3Z1Pv5+M9hdb8iweS8a20Prujsy8W6tk+Bscel8dmw025wZcrT73VTXVxttps7O1uXbdjZctl0VfF54acH4mNqslpmZlanrHDMny+hM/JGnXjc5HCvFOxK1jpvyTmGMbRyULUciNdDcZE6zSrqmc6A1na0XnYbzFfJj51ZBlKrV7TVXOTl7Wr8nz4P5yF3ZeUczlGyO529x8fh8P/ZhX4AfGp1749fDNwXv7gl8GDm7OCuj7C4dTKplZ3AexdTj49OTcVzb/ACskkiglng2ejzpooJNvxrZafb1xsf6f7iPNR5OtR6ezOks/mdL6ix9jFZ7AZK5ictjrTOienfozPgsQyJ+ivTIxel7HOjkYrJI3vjex7p60btbI061+nKyerbhjsQSsXlr45Wo9q8p6LwvDkXu1UVqoioqAB0xygAAAAAAAAAAAAAAAAAAAAAAAAAAAAAAAAAAAAAAAAAAAAAAAAAAAAAAAAAAAAAAAAAAAAAAAAAAAAAAAAAAAAAAAAMdPFn+DN33+h7sX909gp/X/ADr+bj+pGuA+LP8ABm77/Q92L+6ewU/r/nX83H9SNoTeb9d0/wDVL33mqUg+1d+fG0v2V1D+NUj1gNNFSoAAAAAAAAAAAAAAAAHz/KuI8Y5zoc7jHMdFr+R8f2NPTmavZxVkx7rvdyw2ZEN8d0eVg58Fk830LZ67IxNlr5L7p8DLx56Wy2/QDt8Fns3pjL0M9pzLZHB5rF2YbmOyuKuWKF+nZge2SKevarSwzRSMc1FRzZE+KKjmqrXczH5G9irlfIY23Yo3qsrJq1qrNJBPDKxUcx8csbmva5qoipwv+fKERPe3s1e2ePcP5x3X0XxvknZXUHX9ddP2FDgY9mz5V1ri7OLPkg221wcC2zM3XEbbdXmz5fJMDXW28dhsrbyPHxcPHj3mwjFbHf2N1lkkXf0d9lsll93X1t9l1tK2X21s5hStLra+dK0rStaVpWny+DDn2q/2PVwTvWHkffPgi1Wi6z7ovplbnkvTcd2Ppetez8utLp8mfjPqrDreu+Z5lfX6bY6Y3Ct5mVirsoeOZeTs+SZHpn8CPtS7OU05pXRHiauotixA2jjd1mxtax74rEtWCPWlaJjUi6mRRsXP1IkiRzvMydSFiTXkvs2H0XqfcTw86B3G9+dmM/kqGSXL1XxRRT2Vx2YyGPinqrE1jJJlq1Ilmie1sksqPka5z3+WtE4fXc94BzfqzmXIuveyOJ77g/OeJbOfT8k4pybWZWo3ml2MHldJjZ2BmRxTw3XWXRzQ3+msWTjSw5WPJLjzRS3/ACK9+hfpZSlVyONt1r9C7BDaqXac0dmrarzxtlhnrzwvfFLFLG5r45I3uY5rkc1VRT+csUkMj4Zo3xSxPVkkcjXMexzV4c1zHIjmuaqKitVEXnsvAAcs/mAAAAAAAAAAAAAAAAAAAAAAAAAAAATNexO9o7meAfxRYOs5vuZoPDl3fl6nh/bmLPLd9A4rnUnvg4p2jFHWvphv4lmZs0HIr46XVyeH7Hc3fRs3Y67S2QbJ/FycfMxoMvEmiycXLijyMfIgksmgngmspfDNDLHW6OSKSO62+y+y66262tLqVrSvnXTjL9H2OZ7RSviK6FyfCR2fvPpXcXhz0uFbw3M2GTS/Y816Rsmg1ukktrff77Jz+tsubC4hsbqWW22aDM4VNdJl5s+0mtpD9qn4Xmy16/iQ0Zjvz9b3PEbm1KkX87WVY6uF1U+NjeVfVesWIysq9TlryYyd3SyrPIslti9cLHI/R+Rm/Nydc+Ge93Zkv6U9JFcvZJER00LeyI9JGoiq9qFlgBRmSiAAAAAAAAAAAAAAAAAAAAAAAAAAAAAAAAAAAAAAAAAAAAAAAAAAAAAAAAAAAAAAAAAAAAAAAAAAAAAAAAAAAAAAAAAx08Wf4M3ff6Huxf3T2Cn9f86/m4/qRrgPiz/Bm77/AEPdi/unsFP6/wCdfzcf1I2hN5v13T/1S995qlIPtXfnxtL9ldQ/jVI9YDTRUqAAAAAAAAAAAAAAAAAABOT7Gr73vv8Ap9e/V5enHQcexq+977/p9e/V5enHSt29+Z2E/dWvv9o9NXgO/ZV2s+q5/wDijMkU3tMfZM9A+0b4VJk7zGxuvO/OPauXF6/7t0mtil2uLbFSSbF43zXBjvxv+MeGSZV919NblZEOx0ks2Tl8c2esky9nDs9dz4uPB1314Iu3Nr033/w6fjfIMT3mXot3iXS5vEec6D318WLyjhe+rDDDudLleVPXSsWPs9Vk1v1e812q22Pk4EO2fYieNDwR9CeO/p/Z9P8Ae/Fo9phXUnzOJ8u1vuMPmnXvI74Pc4/JeG7uTHyL9fnxUpZZl4k0WTqNziUu12712x18kmNfZ14OPHlrPw6ZClpDV0l/Vuz9mx0z4d0nvGV0l58iLJkNMSTyJ/w6OV0trBPkZTsL5k1R1S2+V1ncO4u1eO1dFLkca2KhqBjVVsyIjK9/pTtFca1P5xUThllE60XhJOtnHTqehIh7Rb2bPevs5u2b+F9kYd/JeuuRZWbL1Z3FqdfPj8X55qoLveXY01l0mTTj/MNbBfF/xBxTMy58jDkupma7L22kycDb5cd70paE15pLcvSuH1pojN0tQ6bzlVlvHZKhKkkb2OTiSGWPtLVt1pOuvcp2GRWqliOWvPFHKxzEhnlMZfw16fHZKtJVuVnrHNDK1Ucip6K1fR8bk4cyRiqx7VRzVVF5ADLzgAAAAAAAAAAAAAAAAAAAAAAAAAAGSnhA8T/PfBv4jOrfEV11PJXedd8igzthqPpF+Ph8s4tmW3a/lnD9ndbbfT6ByTQZOw1d8tYpZMDInxtpiW2Z+Biyx41jo9Tabw2r9PZvS2oaMOSweocXdw+Wo2G9UNuhkK8lWzDI3t2fFI5EVFRzXdLmqjmtVOTTuWKFutdqyOhs1J4rEErOzmSxPa9rmr/gre/r25RUXlUXb1dHdy8F8QvUPXXdnWe1t3XBezeKajlvHM+nptmrhbXFsmuw8+C26+uFttZkVn1u410t3v8AW7TEy8DIpbPBJbb2spofYw/jxuhzOZ+AXsHcecGTbue0egL83IpSkc9nnmdl9f4Fsl3nWk9l1ewdRg49nlbWLn+fkX/dwWLl1fP8VPP+R5BvEhsrlvD/ALxav21yLZpKeNuuu6byEzePytpfIufYwt9HojWySLWVal1WJ0MyNO5En6BYLovUsGrNO4/MRK1JZIkiuxNXnyLsSI2xGqeqIruJI+e6xSMX4nIDRhlQAAAAAAAAAAAAAAAAAAAAAAAAAAAAAAAAAAAAAAAAAAAAAAAAAAAAAAAAAAAAAAAAAAAAAAAAAAAAAAAAAAAAAAY6eLP8Gbvv9D3Yv7p7BT+v+dfzcf1I1wHxZ/gzd9/oe7F/dPYKf1/zr+bj+pG0JvN+u6f+qXvvNUpB9q78+NpfsrqH8apHrAaaKlQAAAAAAAAAAAAAAAAAAJyfY1fe99/0+vfq8vTjoOPY1fe99/0+vfq8vTjpW7e/M7CfurX3+0emrwHfsq7WfVc//FGZADMyXx0Z4jPDh074rupeUdJ96cM13NuBcrxqx5WDmW1izdZsIrL/ALXcg4/tIvTnaLkWnmkrkarca6WLMxZPVbSS6CbIhm1wvtR/ZY9uezc7Stxc+ufznoHmmyy6dT9vR4VLIsyltsmVXhvNY8aOmLpee6vEsvvvgpSLXcn1+PLveP22Ww7nUaHZ2uoO+Oh+q/Et1Vy/pfujiGs5t17zbWS63daXZxedba1/hMPZ6zMs9OXqN5qMy2LY6Xda6XH2Op2OPj5uDPDkQxyUmH4RvF/rTwv6uYsT7We22zVuP+VujXz/AJt7XdEbszg/NcsdHOVomovU3y4MjDE2pd7JXs1ddbgbeY3W1BV6Y6uarxu9xyCN4VVTulayre8ld6/Ty6Fy9cfZXsfqHhKh7U72XXaPs3O3vtblV2fM+guc5+bL1B2xfiW2250MdL8mThfMK4sduHq+eaPF/wDrx22Y2DybXw15Bo4IYrdrqdFFe9Rm3G42kN19HYXXehsxXzenM9VZZp24HIj43cIk9O5Aq+bUv05uuvcqTNZNXnjfG9vKIroP5fEX8Ffs4vJV31rlWTy5InJ2VE/Rkjd6Pjkbw+N7OWvY5FReF4ADOTrAAAAAAAAAAAAAAAAAAAAAAAAAAO1Oje4+b+HruDrfu/rjY3avm3V/L9LzHj+RS6S2CbK1OZHPLrc+yK6y7I1O4xKZOo3OFdd7rYanOzcKel0ORJbXa7eGTv7hXik6D6p8QPXs/vuKdp8O1XKMGC+aOfK1GZkxXQ7vjuxvh/gvtxxneQbLj25sj/g4tprcyKytbY6VrqNVyX7Fz8aN0sPangY5ntbrq4lMvubpazLm8/TjTTYeu7N4ph1kupSyyLLn0nL9Zrcel18l+dzbZ320shlvVOe1W2FZrba3Gby4Okj9R7Yy+RnHQxos93RWVnjjsulVjeuVMHkn1r8Sucra9O1lXoiI5eN77F6r/Jeel0/ak4p5tvNdHLwyLIwt5j6eeyLZiR0TvTqe2HlVVC42A87RMEAAAAAAAAAAAAAAAAAAAAAAAAAAAAAAAAAAAAAAAAAAAAAAAAAAAAAAAAAAAAAAAAAAAAAAAAAAAAAAAAAAAAAAMdPFn+DN33+h7sX909gp/X/Ov5uP6ka4D4s/wZu+/wBD3Yv7p7BT+v8AnX83H9SNoTeb9d0/9UvfeapSD7V358bS/ZXUP41SPWA00VKgAAAAAAAAAAAAAAAAAATk+xq+977/AKfXv1eXpx0HHsavve+/6fXv1eXpx0rdvfmdhP3Vr7/aPTV4Dv2VdrPquf8A4ozIAZmS+AADonxJ+HDqTxY9N8z6L7s4xj8o4HzXXX4mZBdSyHZanYRecmq5Fx7Y3RyS6jkWizaR7DT7OC267GyobaSWT4smRjT6zv2j3s8e2/Z098Z/WHO4sjf8C392fuOn+0oMK+DTdgcThyLLPu/TW+HW8t0NMjFw+Xcdulvm1mZNi5uLdl6LbaXaZ+06YdeObwUdRePToHlHRfbWBSyPOsu2vCeY4eNDLyHrvm+Jjzx6Xl3H5Za2VpPiXTSY2z11Zosfe6XK2Olzb7cXOkutm14K/GBqHwx62ZTyk1vKbUamuwR6v0+1z5nY2R3RC3U+Eh6l8rJUo+n3yvEiMytFi1pWrZhoWK+sdytvKutcas1dscGepRudRsrw3z2oiqtKw74xyL/NPXvDIvUi9DpGu1QgyV8XHhR7d8Fne3M+ge59N9ruU8VyaTa7aYts12h5nxbMkm+0PNOK5ksdlc7Qb7GhvkgvrZblYGbBnaTa4+FutXssHGxqepLTWpMHrDA4jVGmsnUzOBztCtk8Tk6MrZ6t2lbibNBNDIxVRUcxyI5q8Pjejo5GtexzUg9cqWcfanpXIZK9mtK+GeGVqtfHIxytc1zV788+i+ipwqdlTkA7w4wAAAAAAAAAAAAAAAAAAAAAAAGRvhE8RfJ/CV4l+mfEVxK7Iv2fVnN9Xv8AN1+PLSG/fcaluv1fMeMXy3XW22Q8n4ln7rj819brfdxbK6S26y6O26mOQ6LU2ncVq7Tuc0vnKzLuH1DichhsnUk58uxRyVSanZifwvPD4Znp1N4c1eHNVHNRU5NK3PQt1rlZ6xz1J4rEL29lZLDI2Rjk+HZzUXj4onHobhHgHOOM9mcG4b2LwzawbziPPOL6HmHF9zi1rdjbXj/JNXi7jT7GCvz91mYGXBkWeryupbfSlaUr5vr1cz7Gr8Wl/d/gs2nQvI9nTL5t4W+S28axLJ5ve5mR1bzS/Yb/AIHlSXX1tvrZrNjj8s4liwWW3R4ep45qLPeec1LLbGbxv7y7b5PaDdTXW2uVSRbGkdRX8ZDPLGsbruNSTz8RkOnhERuRxVijdbwnTxOvC8IWJaZzUOocDi8zCrem9Uile1q8+XOjeixEq/TFO2Rnfv27gBrQ70AAAAAAAAAAAAAAAAAAAAAAAAAAAAAAAAAAAAAAAAAAAAAAAAAAAAAAAAAAAAAAAAAAAAAAAAAAAAAAAAAAAAx08Wf4M3ff6Huxf3T2Cn9f86/m4/qRrgPiz/Bm77/Q92L+6ewU/r/nX83H9SNoTeb9d0/9UvfeapSD7V358bS/ZXUP41SPWA00VKgAAAAAAAAAAAAAAAAAATk+xq+977/p9e/V5enHQcexq+977/p9e/V5enHSt29+Z2E/dWvv9o9NXgO/ZV2s+q5/+KMyAGZkvgAAAAIj/a6+zF4l7RjoSXD08Or4/wCInrPF2O46X5vk22QRZOVJHbNseveUZdtl013EeXXY8EVcitJJeObqPX7/ABY5oMfaazb61XmnDeVddcu5NwHnOh2XFuZcM3u041ynje4x7sXaaTfabMmwNnrM7Hu+MeRiZcEsV/lW+y/0eqK++O62+u4a+aqV9kQ+ypj7V4lt/Hh0Lx2lezeA6aO/v3i2pxv4fnvX+lxbIYewcTGgt/8AiOUcA1sVI97dfZWXbcIxbZff2ZHE8HC2lsHs3PGNJtlqSnsfuJlnf/T7Vd9ItJZO7Mqw6Q1LelRGUXSSKqQYLPWHtY9OpsFDLSMtK2OG7emZoPeXbtMzUk1Ph4E/KtKLqyEETeHXqcTVVZkRqfKs1mJyq/pSwp08qsbGrR0AeidFRyI5qorXIioqd0VFTlFRfiip3RSIYAfQAAAAAAAAAAAAAAAAAAAAAAAE13sB/FLXw1+0S620m42VcHgviHw8rozlFks3oxLdxyafGzOuM33N3lDfnf8AH2v0ehgyb62X4uv5Lt62SemaWKXZI0r5086fGn5fytOppN3tuNbrT8j0OdkareaDaa/daXaYl/u8vW7bV5cOdrs/Fk8q+7yMPMx4MmC/yr6ZY7bvL4Nsv4Ou/tZ4pfC50T4gdV7iyPtLrbjPJtniY11L4tTyWbAjx+W6L1UuupW/QcnxtvpZq0uu/hcG/wCNfm8/vtdNpW4XX2g94cdV6KmscZNpTPyxwqjPy5p9PesXPPIidK2L2GszV29ao5Y8MnHUjVRsrvD9n1sY3K6dmfy+jM2/Uaq9/d7PEc7WpzzwydrXrx6LPyvHKc5KgKeSRQAAAAAAAAAAAAAAAAAAAAAAAAAAAAAAAAAAAAAAAAAAAAAAAAAAAAAAAAAAAAAAAAAAAAAAAAAAAAAAAAAAABjp4s/wZu+/0Pdi/unsFP6/51/Nx/UjXAfFn+DN33+h7sX909gp/X/Ov5uP6kbQm8367p/6pe+81SkH2rvz42l+yuofxqkesBpoqVAAAAAAAAAAAAAAAAAAAnJ9jV9733/T69+ry9OOg49jV9733/T69+ry9OOlbt78zsJ+6tff7R6avAd+yrtZ9Vz/APFGZADMyXwAAAAB6MnHgy8efFyYYsjHyYr4J4JrLZIpopLa2SRyx30usvsvsrW26y62tt1ta23UrSvk94+oqtVHIqorVRUVOUVFReUVFTuiovdFTui90CpyioqcovZUVOUVF9UVDXLe3R9mNf4FO/7ezerdJfj+GXvfbbLZcMhw4LvoHW3OK0k2PIesZb47fc4us93dNvOBWSe4ul49TYaSCzJv4hnZ+TBQ20PjH8KfW/jT8PHYnh57QxKXaLm2ovs1e8gx4p9tw7leF55PGeZaK6WttI9rx7a2QZkdnrtg2GJTM1GfSXWbHNx59WZ4j/D/ANi+FnvDsjoHtbV/avnHWnI8rQbSllsn0HaYtLbMrTcj08k1kcmTouTaXJwN/pMq+OOTI1exxZJooZqyQx+lb2cHitXevb5dttZ5L3jczbujBD7zak5tao0nGsdXHZhXPXrs5DHL5WNzL/lve/3K/K5ZL8nTC3eLQv8AJnMflfHw9OFzEr3taxq9FK6vy5q/CJ0sik7ywJ2ThXxonEaHSICzE0yAAAAAAAAAAAAAAAAAAAAAAABfA+xc/EXfz3wndreHTb7Cs236C7Ht3vHsSS/yrjcB7ahztzi42NHdWvvLcfnWl55nZUkX3Eddzh2SRx3SWXz0P09/2OJ37d0/7RrjvA8/Nux+O+IfgHMOssqKSSlmFZyLWYkfYHFc6W3zp6sy/K4jn8d191PV/C8nli9NPf8AvI4P+0N20TcnwtbgNhqrYyuioquvcSrU6nsk03J52V8tvq5ZMBPmIuhO7l44armtauy9pc0uF1viHOf0QZF7sXOnojktojIuV9E4stgdyv8An2TubFEB5VydoAAAAAAAAAAAAAAAAAAAAAAAAAAAAAAAAAAAAAAAAAAAAAAAAAAAAAAAAAAAAAAAAAAAAAAAAAAAAAAAAAAABjp4s/wZu+/0Pdi/unsFP6/51/Nx/UjXAfFn+DN33+h7sX909gp/X/Ov5uP6kbQm8367p/6pe+81SkH2rvz42l+yuofxqkesBpoqVAAAAAAAAAAAAAAAAAAAnJ9jV9733/T69+ry9OOg49jV9733/T69+ry9OOlbt78zsJ+6tff7R6avAd+yrtZ9Vz/8UZkAMzJfAAAAAAAHFKfP8n4v21/x/wC3yVh/sj32c0XeXS0XjQ6u0dJe1+g9HfjdmYevx/PL5p0rDPJmZeymtjsrdkbLrHKyszkEct1Y/PiWbyr6RLkSa3TYsdnn/R/Fstdg7fX52q2mHi7DW7PDycDYYGbjxZWHm4WZDfj5WJl409kkORjZEMl8U8E1l8UsV10cll1t1aV2lsruxqXZDc3Sm5elp3R39O5GKazUR6xw5fEyqkOWw1vhFR1bJUXTV3K5rlhlWGzEiTQRuTodTafp6nwl7DXmosduJUjk4RXV7DflV7EfPo+KRGu7fpN6mL2cppzBKb7X7wE5fgC8YPK+CaLByremOxaZPY3SGyvtlkgi4ltM2a3Y8Nvyr6XUl2XX+59/oJI5MifOn0X/AA3u8+scm9ssRZPX7truDp7dTQmltwdK2kt4LVeHp5alJyzzIveI0WenZYx7vKuUbKTU7kCr1Q2a80T05b3r3zOKt4PJ3cVejWO1RsSQSovPDuhfkyM5ROpkrFbIxyJ8pj0cnqAGcnWgAAAAAAAAAAAAAAAAAAAAB3B4e+2dn0N3v013Zp6zfbDqfs/g3YUEWPd6b8unE+S63eT6+vndZbJDscfDnwMmCS6kWRj5MsEvnFJfR0+Om1DhqWosFmcDkoGWqGaxWQxV2tInMc9XIU56diJ6d+WSQzyMci+qO+ByKliSpZr2YndEleeGeNyf2Xwyska5Po4ViL/pwbirRbjXcg0uo3uoy4c/V7nWYG11udj3euDMwNhixZeHlQ3eVPVDkY80csd3lTzsvtr5fHyp+sjP9jz3H/46ezX8JXM58y7N2Wq6vwetd1LLf68u/a9SZ+x6yyps2ta+uuTnU4rZsrpL/u8izMsyvurZrb6yX0+FPJ4tda6bt6M1nqzSF5rm29LakzenbPUqc+dhspbxz3LwiNVXrXR/LU6VR6K3twWQYq6zJYzHZCPjou0qtpvHftPAyXj/AEVyp/p379jkBjR2AAAAAAAAAAAAAAAAAAAAAAAAAAAAAAAAAAAAAAAAAAAAAAAAAAAAAAAAAAAAAAAAAAAAAAAAAAAAAAAAAAGOniz/AAZu+/0Pdi/unsFP6/51/Nx/UjXAfFn+DN33+h7sX909gp/X/Ov5uP6kbQm8367p/wCqXvvNUpB9q78+NpfsrqH8apHrAaaKlQAAAAAAAAAAAAAAAAAAJyfY1fe99/0+vfq8vTjoOPY1fe99/wBPr36vL046Vu3vzOwn7q19/tHpq8B37Ku1n1XP/wAUZkAMzJfAAAAAAAAABD17bTwFReObwa8oxuK6emf3j0pZsezunZceCkmy2uZrsGt3K+v8e62nvZLOeaHGuwsLEpJFDLyzX8Uy8q+kGvupXWi1pW2tbbqVtutrWl1taVpWlaV8q0rSvxp5V+FaV+NK/wCG49rbS6laV8/KtK0rT+Svl50/w/xr+Vrffb2eBm3weeNfecs4jqPoHTfiUptu1eCW48HutfpOUS50X/idw3HpStI7Kankewg5Hr8XHhhxNdx7mGj1WNS77XzVpdT7JvxDOo5bO+HjUd5y1Mr71qnb73iRVbDkImI/UmCrq7npbbrtbmq0LeGpLWyr0RXzrzGnfrSKPiq6upxfLj6KOV6U9WOXinZdx/yu5rvc7+y6FP7JCGAvfIugAAAAAAAAAAAAAAAAAAAAAABfF+xaO17+UeDnufqXLyqz5vVHeU+3wIa3UurhcY7G4rpszBgti87rrbZOS8e5hlev4W335N9vp9UV111ntRi+xU+zrtL4mPEx1Dfke7i5/wBLcf57HDddW2OfL6v5lFpI6W0r9zdNZi9p5d9LfOl9Yo5r6UrZHfW28586fD9VXlA9oDpCPR3i13ZqQMVlbNZLF6qrJ37/AMosLj79x3CoicOyXvvSjVVGtVE9epCeG0mQXI6Bwb3O6n1Y56D/APD3Wd7I0+ntCsfr/wDByAhsbIAAAAAAAAAAAAAAAAAAAAAAAAAAAAAAAAAAAAAAAAAAAAAAAAAAAAAAAAAAAAAAAAAAAAAAAAAAAAAAAAAAx08Wf4M3ff6Huxf3T2Cn9f8AOv5uP6ka4D4s/wAGbvv9D3Yv7p7BT+v+dfzcf1I2hN5v13T/ANUvfeapSD7V358bS/ZXUP41SPWA00VKgAAAAAAAAAAAAAAAAAATk+xq+977/p9e/V5enHQcexq+977/AKfXv1eXpx0rdvfmdhP3Vr7/AGj01eA79lXaz6rn/wCKMyAGZkvgAAAAAAAAA4pTy+FKIgvbceCinjR8DPP9Zx3U12HbnTds3cPVH0eGkmwz9rxjAyq8l4jjVspSab/jHic231eFr6S2Y0/JbeN5uTS/7Ww+mX75fB43W0vtutr8rqVtr/NWnky7QGtc5tvrfSuvdOWFrZvSecx+boO6nNZJLRsMlfVm6eHOrXIUmqWo+6SV7ErFRUXg63MYutmsXfxVxvVXv1pa8nZFVvW1UbI3nsj439MjF+D2ovwNOCJV/bN+Dn/8GHjz7W4do9X9rusuy8j/AMZOqKQw+6wcfi3N83OyNnx3DtsspDBBw/l2LyPjWFh0kkmj0ev02Xken6fHSsVD2O7Ya/w26W32j9wdPytmxOrcBjczV4exz4FuV432ac/Qqoy1RtJYp2ov0orFaWNyIreErtzWKs4TK38TaarZ6Fqau/lqp1eW9Ua9vPqyRnTIxfRWvRQAz06sAAAAAAAAAAAAAAAAAAAAAms+x7+wa8F9qZ0Vr5Jvo+D2Loe0+AZ9/q8rK25XXe/5PrYb6edPVTI33FNRjWW0pX+FliurSlLa1t2SdPh/N+Knx+H9/wCz8TVPezS5tf177QXwZcotl9xDD4kOptNnT+qttIdVyvmGr4nuJbq0+NbY9Xu8y+S3yr67LbrK/fNq/ZXzttr86VpWvn+v4f3vOb7XPAx4/wAQGjM9FGrU1BtrRhld0cNfYw2ezNdz+vj5UnkW4GORVVUYyL0RU5l/4fray6WydRy8rUy7non0Ms1YHJ2+jqjcv+aqeYCqk3yAAAAAAAAAAAAAAAAAAAAAAAAAAAAAAAAAAAAAAAAAAAAAAAAAAAAAAAAAAAAAAAAAAAAAAAAAAAAAAAAABjp4s/wZu+/0Pdi/unsFP6/51/Nx/UjXAfFn+DN33+h7sX909gp/X/Ov5uP6kbQm8367p/6pe+81SkH2rvz42l+yuofxqkesBpoqVAAAAAAAAAAAAAAAAAAAnJ9jV9733/T69+ry9OOg49jV9733/T69+ry9OOlbt78zsJ+6tff7R6avAd+yrtZ9Vz/8UZkAMzJfAAAAAAAAAAAAVsfsmHwj17k8H3HfEfxvV0yeZ+GHkv03cy48Vb8vL6p59PrdDyqOtkVKSZH2k5HDxDkPvJaSRavTYfJcq22KyfJlUDW4B7V654v3B1pz/qjm2DTZ8Q7J4ZyXg3JsCvp/+L0XKtRl6TaQW3XW30jkvw82W2KX01rHJW2+2nqttalnvvp3k/h77r7W6O5nHdZybqnn3J+CbWWsN+PFny8d22VroNtiR31urXX7nFhg22slpdfZPgZuNNHJfZJbdX0AeyP3jfndA6y2Xytvru6HyLdSabjklVXrpzUMrkyFWGNe/lY7OxyTvVvZv5ajZ0t45fEvf3TiU8vQ1HBHxFlIlq21aiIiXKiN6HuX/mmrq1qfSsDl79zqQBcQR7AAAAAAAAAAAAAAAAAAAAAPvuqeUV4P2l1tzW2SsN3EOfcP5RbN6q2+5roOQ67bUlpd509NY64dL/V508q2+fm2/sFfOGGv5Y7K/wB9tPNpxG376h33/FPVPWnJvXWSvIeA8P3lZK186yV23H9fneuvz+N3vqXVr/L5qLfbIYpEyGxObaxE6quu8XK/juqtl0xcrtVfobzZXj6XKvxXmT3h1nVW6nrKvo7GztT6O1qNy/7E/wBDsUBSSSaAAAAAAAAAAAAAAAAAAAAAAAAAAAAAAAAAAAAAAAAAAAAAAAAAAAAAAAAAAAAAAAAAAAAAAAAAAAAAAAAAAx08Wf4M3ff6Huxf3T2Cn9f86/m4/qRrgPiz/Bm77/Q92L+6ewU/r/nX83H9SNoTeb9d0/8AVL33mqUg+1d+fG0v2V1D+NUj1gNNFSoAAAAAAAAAAAAAAAAAAE5Psavve+/6fXv1eXpx0HHsavve+/6fXv1eXpx0rdvfmdhP3Vr7/aPTV4Dv2VdrPquf/ijMgBmZL4AAAAAAAAAAAAoLfZOnhmr1f4yeD+IXT66mPx3xIcBht3WTDFWkcnZPVsev41urpbo7aQxVy+FZ3X98Ft/plysjD2s9Ky+6krbfpQQfZE/hyt7x9nNzTmmtwKZfKvDvynjncOpvhspXLroYJpOKc6x6TeVbrcDH4ryTO5LnRVr7uW/jeJJWlZYIfKX/AIEN05Np/E/txlJbCw4jVGR/kHnUWTojfQ1U+GjUfKvZvl1c43E3XK5OlEhcqq39JNdbqYNM9orLxNYjrFCNMpV7cuSSly+RrU4Xu+uszO3qqp2X0XXPAPWQioqIqd0VOUVPii+ikDAA+gAAAAAAAAAAAAAAAAAABX/Wn7f9fk20fgo2l278HfhT3N93rv2/hx6R2V1/z9d2d1rxvKuu+Hw+6rLWvw+H5Ph5NS3X5frp+2ja6+znnkyvZ/8AgeyZq+cs/hF8N88lfO6vnJL09xC++vndW66vnddWvnddW6vzrWtfNSr7Y2NP5MbHS/H+UWsIk+npXE4R/wD8tT/3JHeHdy/lLUjPpo0Xf+liRP8A14X1MzAFEJKoAAAAAAAAAAAAAAAAAAAAAAAAAAAAAAAAAAAAAAAAAAAAAAAAAAAAAAAAAAAAAAAAAAAAAAAAAAAAAAAAADHTxZ/gzd9/oe7F/dPYKf1/zr+bj+pGuA+LP8Gbvv8AQ92L+6ewU/r/AJ1/Nx/UjaE3m/XdP/VL33mqUg+1d+fG0v2V1D+NUj1gNNFSoAAAAAAAAAAAAAAAAAAE5Psavve+/wCn179Xl6cdBx7Gr73vv+n179Xl6cdK3b35nYT91a+/2j01eA79lXaz6rn/AOKMyAGZkvgAAAAAAAAAAAD4PtDr3jvbHWvYHV/LsSmdxbsbhfKODckw60tuplaPlelzNHtcelL7brf4XBzZo6edvl51860q+8cV+Vfh5/yflf2q2JqdmvcrSPgs1LENmvPGvTJDPXlZNDLG71R8csbHsX4Oa1fgh+JY2zRSRPajmSsfG9rk5a5r2q1zVT4oqKqKn0Gn67Q6/wB51N2X2H1ZyiL3PJuteccs4DyGKll0dI93w/fZ/HtrbSy/zvttpn66eltt3xpbSlK1rX4vhU1n2QP0XH0n7TTt3PwMSmHo+7NDw/uzTRWR+iysvJNfNx3lc9L6UpbLfnc74lyvZyXUpStLs2ll/qrb7y+FN7LNjtex7obQ7b6/ikhe7VWjsDlrTYf0IchPQgbk63Zzul1XJRXa72K5zmOiVjlVWqVzalxT8Ln8xinIqe45C1AxXJ3WJsq+S74co+J0bkXtyjgA2sdGAAAAAAAAAAAAAAAAAABxX5frp+2ja3+zf/i9/Ax/U/8ADZ/k5w5qkK/L9dP20bW/2b/8Xv4GP6n/AIbP8nOHKWfbG/NLY77Tav8AwbDEjfDt/SmpPqFL7xKZpAKHSVYAAAAAAAAAAAAAAAAAAAAAAAAAAAAAAAAAAAAAAAAAAAAAAAAAAAAAAAAAAAAAAAAAAAAAAAAAAAAAAAAAGOniz/Bm77/Q92L+6ewU/r/nX83H9SNcB8Wf4M3ff6Huxf3T2Cn9f86/m4/qRtCbzfrun/ql77zVKQfau/PjaX7K6h/GqR6wGmipUAAAAAAAAAAAAAAAAAACcn2NX3vff9Pr36vL046Dj2NX3vff9Pr36vL046Vu3vzOwn7q19/tHpq8B37Ku1n1XP8A8UZkAMzJfAAAAAAAAAAAAAAFO77K56Wtv1HhP8RGDiW2XYe05z0zybN9H3U321w8Lm/CMWslKU9NuNTSdgS0surdS76VW6ylnok9dNBshPshbqCnanswe4tnj4n0vbdRck697Y1MdLfVdHTUcnw+MchyrK/H0fQ+Gcs5NlX3eXxiivj8qUvrdTW9vTB7K/W0mqPDBWwM8ySWNA6x1DpxrXKqyso3H1tSUWu6lVVa1M1ZhiVvyEjhSNPlRv4hXvjjEoa3ltNZ0sytCrb5ROEdJG11WTjjt612Od8eXc/FAAsoNNgAAAAAAAAAAAAAAAAAAcV+X66fto2t/s3/AOL38DH9T/w2f5OcOapCvy/XT9tG1v8AZv8A8Xv4GP6n/hs/yc4cpZ9sb80tjvtNq/8ABsMSN8O39Kak+oUvvEpmkAodJVgAAAAAAAAAAAAAAAAAAAAAAAAAAAAAAAAAAAAAAAAAAAAAAAAAAAAAAAAAAAAAAAAAAAAAAAAAAAAAAAAAY6eLP8Gbvv8AQ92L+6ewU/r/AJ1/Nx/UjXAfFn+DN33+h7sX909gp/X/ADr+bj+pG0JvN+u6f+qXvvNUpB9q78+NpfsrqH8apHrAaaKlQAAAAAAAAAAAAAAAAAAJyfY1fe99/wBPr36vL046Dj2NX3vff9Pr36vL046Vu3vzOwn7q19/tHpq8B37Ku1n1XP/AMUZkAMzJfAAAAAAAAAAAAAAGN3jD6v/APGrwo+JDqSzH+kT9jdHdo8OwLKW1vvs2m/4Zt9dqciG34+eRi7KbFycavlXynhjr5V+VdSh/wC7ceS09UUlvl5+qy63/wD2p5f6tRz4o+A06p8TPiH6wsx6YkXXfePa/CIMalnoshxuLc732kxrYqeVKe59xhR1hrbT0XRVsvsrWy62tbtPY5apRmQ3r0VLL8qWtpLVFOFXO5VYZMtiMhKjFVW8Ik2NaqtRHOV7erlEbxGXxEUfk6bySInrepPXj6fJnjTn/SX/AEOiQF6hGEAAAAAAAAAAAAAAAAAADivy/XT9tG1v9m//ABe/gY/qf+Gz/JzhzVIV+X66fto2t/s3/wCL38DH9T/w2f5OcOUs+2N+aWx32m1f+DYYkb4dv6U1J9QpfeJTNIBQ6SrAAAAAAAAAAAAAAAAAAAAAAAAAAAAAAAAAAAAAAAAAAAAAAAAAAAAAAAAAAAAAAAAAAAAAAAAAAAAAAAAAAx08Wf4M3ff6Huxf3T2Cn9f86/m4/qRrgPiz/Bm77/Q92L+6ewU/r/nX83H9SNoTeb9d0/8AVL33mqUg+1d+fG0v2V1D+NUj1gNNFSoAAAAAAAAAAAAAAAAAAE5Psavve+/6fXv1eXpx0HHsavve+/6fXv1eXpx0rdvfmdhP3Vr7/aPTV4Dv2VdrPquf/ijMgBmZL4AAAAAAAAAAAAAA4rTz+fn+Knl+L50/x/l/I1hntr+ERdf+1I8YGkgx/cRbDn2h5lbSlvptlk7C6/4fzvLmtrSnlfWTN5Fk3SXU8/4estt13rtvpTZ6f+zXdfZKfE4+Oe0z3W3sjpHdz3pPqrlst3p8ve34tm/4RS+v/wB9aRcNji9VfPypH6flb5LPPZM59Mb4l8viHydMWottNQVmRr/eWsdlMBk4f8uivFccqf6/A0fv5V87R1WwicuqZms705+RNDYid/l8pWf/AB8SAQB6TCG4AAAAAAAAAAAAAAAAAAHFfl+un7aNrf7N/wDi9/Ax/U/8Nn+TnDmqQr8v10/bRtb/AGb/APF7+Bj+p/4bP8nOHKWfbG/NLY77Tav/AAbDEjfDt/SmpPqFL7xKZpAKHSVYAAAAAAAAAAAAAAAAAAAAAAAAAAAAAAAAAAAAAAAAAAAAAAAAAAAAAAAAAAAAAAAAAAAAAAAAAAAAAAAAAGOniz/Bm77/AEPdi/unsFP6/wCdfzcf1I1wHxZ/gzd9/oe7F/dPYKf1/wA6/m4/qRtCbzfrun/ql77zVKQfau/PjaX7K6h/GqR6wGmipUAAAAAAAAAAAAAAAAAACcn2NX3vff8AT69+ry9OOg49jV9733/T69+ry9OOlbt78zsJ+6tff7R6avAd+yrtZ9Vz/wDFGZADMyXwAAAAAAAAAAAAABx8vh/v/fyUP/sqPjf0Txk9A8upH6ft94b8TQVk8vhJXi/ZPO9h6f5brKctt861p5+mtlPvfJfBUnvssHVe47Q8Gm68v+YcF7i1nq8vhX7T73r/ACa20r5fGttd151p+L1Ur+NO/wBmpbbU8YG3bFd0rex2saSJz+mr9LZCwrf8eW1eeF59OTVO9MfXt/lHcc+TZx0v+XFyNnPov/Px/qVIAHqZIOgAAAAAAAAAAAAAAAAAAcV+X66fto2t/s3/AOL38DH9T/w2f5OcOapCvy/XT9tG1v8AZv8A8Xv4GP6n/hs/yc4cpZ9sb80tjvtNq/8ABsMSN8O39Kak+oUvvEpmkAodJVgAAAAAAAAAAAAAAAAAAAAAAAAAAAAAAAAAAAAAAAAAAAAAAAAAAAAAAAAAAAAAAAAAAAAAAAAAAAAAAAAAY6eLP8Gbvv8AQ92L+6ewU/r/AJ1/Nx/UjXAfFn+DN33+h7sX909gp/X/ADr+bj+pG0JvN+u6f+qXvvNUpB9q78+NpfsrqH8apHrAaaKlQAAAAAAAAAAAAAAAAAAJyfY1fe99/wBPr36vL046Dj2NVaeXfdPOnn6uvK1p+OlK28w8q+X5K+VfKv4/Kv5E46Vu3vzOwn7q19/tHpq8B37Ku1n1XP8A8UZoAMzJfAAAAAAAAAAAAAABTV+y0YPLM8BeVS27zux/E5Bff5fc0pZJ4fpIrfPy++rW+atPOvxpbXypTyu87lSnb9lnRWV1ngUyK+frjzvEbDb8fufRNj9JX3+dPx184LPKv4qedPxpoezzesfjF2Ycn9rIapYvw569DamT/wDw1ru8nO3uf5+DaK//AMjU/wD65QpogPVwQRAAAAAAAAAAAAAAAAAAA4r8v10/bRtb/Zv/AMXv4GP6n/hs/wAnOHNUhX5frp+2ja3+zf8A4vfwMf1P/DZ/k5w5Sz7Y35pbHfabV/4NhiRvh2/pTUn1Cl94lM0gFDpKsAAAAAAAAAAAAAAAAAAAAAAAAAAAAAAAAAAAAAAAAAAAAAAAAAAAAAAAAAAAAAAAAAAAAAAAAAAAAAAAAADHTxZ/gzd9/oe7F/dPYKf1/wA6/m4/qRrgPiz/AAZu+/0Pdi/unsFP6/51/Nx/UjaE3m/XdP8A1S995qlIPtXfnxtL9ldQ/jVI9YDTRUqAAAAAAAAAAAAAAAAAABLH7JTs/W8U7h5p15sciLGv7L47gT6eSaW2OmRt+HSbTJprYrbrqeqfJ1e52efTy/8A0dXL5186W0WKvOv3XnTzp+L8nl/OpE6Dfbji+61XI+PbHJ1O80efi7XU7PDv93k4WfhTWz4uRDdWl1vqjlsturZfbdFJb5xy2X2XXW1sS+Fn2l3W/ZGp1/Fu5thruuuwYIYMa/a58lcXh3Jprba21zMPZzeqDR5ElbPObXbaaO33ssUevzNhfdJZDvjbPV9BmPZp/ITx1Z4JXrRllejIrEU0nmLB1vVGMlZK56taqokjXojflpw66j2d/io0VitFwbI68zNPTmTxWQuz6QyOUsMq4zKUspYW3LinXJ3tgrZCvemnfXZM+OO1FYRkbvPjVkkqlPl8inn+P4/yv4MHZYGxxocvAzMbMxciKyWCfGnjniljvp6rJI7461pfbdb5XUup8K2+V1POlX93n8fh8fy/yfk/vbnRUVEVFRUVOUVPRU+lP8C3yKWKeNksMkc0UjUfHJE9skb2uRFa5j2KrXNcioqKiqioqKi8HID6f0AAAAAAAAAAAAKeX2Wb/wAm8C//AFPxEf8Apel1w1Ty+yzf+TeBf/qfiI/9L0umb7Pf9sPZf/zPU38D6mNb7uf1fag/d0/xCqUzAHq7IHgAAAAAAAAAAAAAAAAAAcV+X66fto2t/s3/AOL38DH9T/w2f5OcOapCvy/XT9tG1v8AZv8A8Xv4GP6n/hs/yc4cpZ9sb80tjvtNq/8ABsMSN8O39Kak+oUvvEpmkAodJVgAAAAAAAAAAAAAAAAAAAAAAAAAAAAAAAAAAAAAAAAAAAAAAAAAAAAAAAAAAAAAAAAAAAAAAAAAAAAAAAAAY6eLP8Gbvv8AQ92L+6ewU/r/AJ1/Nx/UjXAfFn+DN33+h7sX909gp/X/ADr+bj+pG0JvN+u6f+qXvvNUpB9q78+NpfsrqH8apHrAaaKlQAAAAAAAAAAAAAAAAAAAByfUVUVFRVRUXlFTlFRfpRU9FO/OnvE33d0Vkwydc883Gr1tktL5uN583234rk21k97LZdos+2bFxL8mvwnzNZ9C2N1la0szLPhdSXPpD2t/F9nTB0/enEcni+XWscU/MOIx5O44/JdW2tb8nM0l/vd7q4qV8rbIcK7kct1a+q66O34UgQGVYXWeocCrW1L8ktVvHNO3zYrqnbs1r164ufTmGSPtx2VE4JK7ReLTfHZh9eHS2srt7BwKzq0zqJz81gnRN4V0UNe1I6egjuOFdjrVN3p27cF0nr3tnrjtbT277rzmOg5Xq76223z6fY42VfjyXW0vrj5sFla5GFl20up73DyoosmKvwkisr50di+f8/l5fP8A3T5/78lJbivMuV8G3GPv+G8j3fFt1jeVItpx/Z5WpzKWUvsvrDJNhyRXTY8l1lvvsab3mPPbT0TR32edtZPekvau9r8Quw9V3Bo8LsvTWe7hk3etsxtBy6CKl1fXNLFBDZodvdZH6bIsa3G0d1/lW+fPkurWtdvYTdfE3EZFmK78XN2RZ4+qxTcvZOV6eZ4UVV9Fjkaiesnrxahs97TrbfVCVMZutg7egctJ5cT8zj/NzGmZZV6WukkbGz8q45jnLz0vguxsT9Kzx6WLPhd5fjp+X/f5f1U+Dyr5/ip5/wCDE3pPxo+H/va3CxOJ82w9fybItp6uH8l8tHyOyX0UkvggxMr0w7WsNP8A602lydli2fKuRW7zZXUvslt87L7L7a+VaX23W3W/P8ttfL/Fs+pcqXoW2KVmC3A/u2WvK2Vi8pzwqtVeFTnu1eFRe3HYsc0rrPSmuMXDmtIaiw2pMVYajor2GyFa/AvLUd0PdXkesUjUXh8UzY5WKio9jVTg9gDkmTAAAAAAABTy+yzf+TeBf/qfiI/9L0uuGqeX2Wb/AMm8C/8A1PxEf+l6XTN9nv8Ath7L/wDmepv4H1Ma33c/q+1B+7p/iFUpmAPV2QPAAAAAAAAAAAAAAAAAAA4r8v10/bRtb/Zv/wAXv4GP6n/hs/yc4c1SFfl+un7aNrf7N/8Ai9/Ax/U/8Nn+TnDlLPtjfmlsd9ptX/g2GJG+Hb+lNSfUKX3iUzSAUOkqwAAAAAAAAAAAAAAAAAAAAAAAAAAAAAAAAAAAAAAAAAAAAAAAAAAAAAAAAAAAAAAAAAAAAAAAAAAAAAAAAAMdPFn+DN33+h7sX909gp/X/Ov5uP6ka4D4s/wZu+/0Pdi/unsFP6/51/Nx/UjaE3m/XdP/AFS995qlIPtXfnxtL9ldQ/jVI9YDTRUqAAAAAAAAAAAAAAAAAAAAAAAAABzbddZdbfbddbdbWl1t1ta23W3W186XW3U+NLqV8q0rT40rTzozY6W8fniM6Yri6+DlknOeLY91nnxvnt+RuvRD67fVHr957yPe4VbYraw4sN+dla3EpXzt1t9LfSwmc0/u/n//AKq7DH5XJ4mdtjG3rFOVFTlYZHI13Cpwj2d43s7d2SMe1UVU7Iqmc6G3L17ttlI8zobVuc0xkI3MVZcVfnrxTox3Ukduqj1qXIV9Hw2q88bkVUVvdSyr0l7UfovsT6Hq+wrM3qXkE9tkd1d7fTP4pPPWlfVTH5RjQxxY0NlKUuln3uFpILa3Utsvkur91JFpd9puQ6/D2ui2uBt9ZnQWZGHna3KgzcTJgltpdFNBkY10kUsUltaXWX2X1supWlba1p86RH+/y/4eTt7qrvrt3pTYW7DrPnW94z/De+yNbBkW5egzL7vK2+/O0GfHlajJkvjtpHTJkxK5cVta+4niu8rqbWwm7lqLohz1NtpicNdcpI2Gf4J1vruVIZFX4pG+H4qjV4RFsw2d9qLqnE+6YreTTFfU1NvlxSal022LGZpjURqLNaxUjkxl53qrvdZMaq91SNV7LcurXypT4eVPP8X4v77fj+P5f6vKn46eXlSny/xQcdJe1yjr9F03e/Cfc1uvjjk5nwa2+bGp6r/T77YcZz5L8uCKKP8AhMifXbHZTTX+qmPrI7aUtrLT1X3r1L3PrK7jrbnWh5Rj22RX5EGHl+62evrPb6rI9nqcqyDY6ye6nygzsbHmrSnn6KNuYfU2DzzEdjchFLJxy6s9fJtM9PWCTpe7jnu5iPZz/a9C0zanxI7M7zV4n6F1ti7mRfGj5dP35W4vUFdeEVzX4q6sViZGKvDpaaWYEX0lXsdvjil1K+XlWlfP5eVfPz/mcu+N58gAAU8vss3/AJN4F/8AqfiI/wDS9Lrhqnl9lm/8m8C//U/ER/6XpdM32e/7Yey//mepv4H1Ma33c/q+1B+7p/iFUpmAPV2QPAAAAAAAAAAAAAAAAAAA4r8v10/bRtb/AGb/APF7+Bj+p/4bP8nOHNUhX5frp+2ja3+zf/i9/Ax/U/8ADZ/k5w5Sz7Y35pbHfabV/wCDYYkb4dv6U1J9QpfeJTNIBQ6SrAAAAAAAAAAAAAAAAAAAAAAAAAAAAAAAAAAAAAAAAAAAAAAAAAAAAAAAAAAAAAAAAAAAAAAAAAAAAAAAAAAx08Wf4M3ff6Huxf3T2Cn9f86/m4/qRrgPiz/Bm77/AEPdi/unsFP6/wCdfzcf1I2hN5v13T/1S995qlIPtXfnxtL9ldQ/jVI9YDTRUqAAAAAAAAAAAAAAAAAAAAAAAAAAAAAADzfsaHf7zjG0xd3xzcbfQbjCvrfh7XR7HL1Wzxb609NbsfOwpIcmGtba1pd7uS31W1rbXzpXyfjj9xyPie2SJ7o5Gqjmvjc5r2uReyo5rkcipwnCorV7Jx9Jyqd25j7MNyhas0rVeRksNmrPLWnhkjcj2PjmhfHJG9jkRzXse1zVRFRUXuSe9Je1K7w6+rhazsfFwO1+PQ1sirPm3WaTl0EFK2WW+jb4WLdrtj7iOl1/oz9XXNzJa/w+3j9VZKS/9I+PXw8d21wtdruWWcT5Zl3RR28S5rSLR7WTIlrdSzG1+RJLLqdvPJW31WQajZZuRSz03TRRVrW2lUPzc+fz8vL9dPOv6q+Xw/wbAwm5eosT0RWpUy1VO3RdVVsNanCcR22p5vbtx5qTIicJ2TsTj2e9oNvttj7rj83kotx9OQ9Ea47VT5JcpDA3hFbT1BF/2g1yNREj9+TIRtREajETkvExzRy2+uK+2WytKVpdZd6ra/L5VpTyr8/j8a/qez1fHyrT8XnX+T4ef5FSTpbxseIXo67HxONc2yd5xyClln/CXM6zch0dII7bY48fCummj2uohijpX3WPqdlhYnrr65seX5JfekvatdRc1rh6jtjUZ/Vu6kpZDdtfOTfcRyJrrqR23fbHDxI9jrayVrWST7Ya2LAw4/P3u0l9N0ldvYXcbTuX6I5p1xVt3CeTeVrYVcqJy2O2nELk5/7xYXr2+SnwtU2e9oHsRuglTH5nKS7cakn6GOxuqnxRYuSd3Sitp6gj4oOZ1O4Yt78nyO7J5fJK/Stfx2+X66VU8/ss3/k3gX/6n4iP/S9Lrc3FOYcW5ppsPf8AE+Q6bkWn2FnvcLZ6bY42xwsqPzrSl8GTjSSRS2/irWy6tKXUrT5+dFRn7LNr/wCTeBj/AKn4iP8A0vS6wv2ermv8YWyzmORzXZLUqte1Uc1UXQ+puHNc3lFRfXlOUVOOCSu6Vypf21zdulZr3Kk8GPlhs1ZorFeaN+QpuY+KaF74pGOaqK17Hq1yKioqp3KZgD1eEGQAAAAAAAAAAAAAAAAAAOK/L9dP20bW/wBm/wDxe/gY/qf+Gz/JzhzVIV+X66fto2t/s3/4vfwMf1P/AA2f5OcOUs+2N+aWx32m1f8Ag2GJG+Hb+lNSfUKX3iUzSAUOkqwAAAAAAAAAAAAAAAAAAAAAAAAAAAAAAAAAAAAAAAAAAAAAAAAAAAAAAAAAAAAAAAAAAAAAAAAAAAAAAAAAMdPFn+DN33+h7sX909gp/X/Ov5uP6ka4D4s/wZu+/wBD3Yv7p7BT+v8AnX83H9SNoTeb9d0/9UvfeapSD7V358bS/ZXUP41SPWA00VKgAAAAAAAAAAAAAAAAAAAAAAAAAAAAAAAAAAAAHJ2R1v252Z1FtabvrbmvIeI5/vLJZvtTnXW6/NujpWllNrqJ7Z9Vto7KXXemHZYeTFbWvqpZ5+VafPe0J0XeXtU+uur9fmbzg2k5z4dsvluTrp8nB2etwed43ZOPxqHIj2GRjSbGPR7PU3cCpLHNi62fX7OTa+6rBpo8L32T8wyg8N3/AO8/7O//AM6lz4JtxtXaA8RO3Wa01k31rePu5WSvHZjbdptdNg8nWk/4Wz1xfLhmlYqx+U9WPd8rnuu7Nud+d1dvIJMTp3V+Vbp+w3qt6avWpb+As+VI2dOcdZkfFA9ZGNVZaa1Ze384qctWpN3N4Zu8+gNhdhdq9db/AI1j3Te4xd57i3Y8Z2F91ZPd26/kuruy9LkTSWR3TUw6ZtudDF6a5GNFWvpp0R/p+X4V/uX4NpqdZu8DL1W51+FtdXnw34+brdjiQZuDmY8lK0kx8rFyY5IMiGWnwvilsusu/wDzU8kZffPsoPDh2t9N23BMfL6X5XkWySRz8Uijy+JTZN0dttl2Zw3LlixcaGL00pSDjedx6OvqkvlpNfd6nqm268dOMtrXobl6fkxUqq2N+e0+2S3QVVVqLNZxcz3Xq7U7uctWa+vr0xfBJf6G8XenMokNPXGLm0/bVWMXJY/zL+Ke7hEV8sPa7Vaq8qvS22xOf0kRCqmJBO+PZo+J/pG7N2WNxWnaHEMasl9vJOvbcnb5EGLSS6kcmz4x7mzkeDJbDS2XLkgwNhqsSnrpXayWx1krH9JFLDffZLHfFJZddbfHJbWy62+ytbbrbqXUpW26laVtrStKVpWnlWlK0qm3pPXej9c0W5DSeosXm6qtYrlo2opJ4FfyrY7NVyts1ZOEVPLsQRvRWuTjlCVmE1FgtSU2ZDAZfH5inJwqTULUdhrVVEVGyNY7zIX8LyrJo4pE+LDwAZcdyAAAAAAAAAAAAAAcV+X66fto2t/s3/4vfwMf1P8Aw2f5OcOapCvy/XT9tG1v9m//ABe/gY/qf+Gz/Jzhyln2xvzS2O+02r/wbDEjfDt/SmpPqFL7xKZpAKHSVYAAAAAAAAAAAAAAAAAAAAAAAAAAAAAAAAAAAAAAAAAAAAAAAAAAAAAAAAAAAAAAAAAAAAAAAAAAAAAAAAAGOniz/Bm77/Q92N+6ewU/r/n/ADRx/Usp/quZ95cQzOe9O9n8KwK0tzeV8A5Zx3GrXypSk+30eXgw1rdX4UpSSWlfOvy8vNTPyI5oJpcfIilgngurjzwzWXRywzQeUcsUsd9Lb7JI77LrL7L6UusupWl1KVpWjRO8bH+84KRGr0e73mK7jt1pNVcrUX6ejuqJ8O/0c0l+1fpWm6q2jyKwyJSfp/UdJtnpXy1sx5THWHwo/jjzEhka/p554XnjsegBpUqLAAAAAAAAAAAAAAAAAAAAAAAAAAAAAAAAAAAAAAyi8OH33NP7O/s3jF1lF4cfvuaf2c/ZvEgvC1/Xlon6xf8AwnIHMo/z/wD05f8AYpk8AuuOYcVpSvwrSlf56MVO9fBZ4c/ENHl5PYHXmti5Jk2XUs5vxulvH+Xwy1jvjinm2mBHbZt649JK1hxt/jbbBsvpS6uLd5U8srHHl86/jr/P+x2eIzma09ehyeByuRw+RgXmK7jLk9Kwz6W+bBJG5zHcfLY7rY9vKOYqLwd7gdS5/TNxt/T+YyGIts44mo2pq/UiOR3RIxjvLmYqp3jljlYvxaVr++vY4do8U+m7vonlWD2Zp7PeTRcX39cTjXMoIqej3cGLmyyWcb3kltvvb5ciXI45fd5WR4+BPJd5Ikucdec6603uRxnsDiPIeHb7G9V0ms5Fqc3VZV0Vsl8VMmC3LhiplYct8d/uMzGrLi5FlPXDNJZWl1b3taUrX4083wfP+r+u+1tJLxzsfhfHOa6WWtbrcHkGqxNjFBLW2ttMnDvniunwcu2la0jy8OSHKir8YprKpibdeNrXmnvIo64oVtZ41nQx16Py8Zno2IjW9SyxsWjdVqJ+jNWryvdyrrPcldobxe5/G+TT11ios9Ub0MdlMd5dHJsb2RXywcLStKiLz8hKj3qi9S8u6iiYLHffPsaevuRUzd10DzLM4Bs7qSSxcQ5Xflch4nJJSPyjxcPc097yTTRXSUpfJkZtOUyfG6kcFlvptpC73l4P/EL4eZ8i7sjrrb4mhimuji5jp7Pt7xHJsrLSCCT7eayk2Nr78q+62uPhbj7W7O+l1KVwrbrbqUnft34idrNyWwQYfUMGOy8vS38g53oxeT8xyonlwMnf7teXlURPcLNlfTlqL2Jh6K3c2/17HH/J/P1luyNRXYq+5tHKMcjUVWe62HIs6t7orqr7DV4VUXpRVMZhzWlafOlafz0cN4oqKiKioqL3RU7oqfSip2U2UAH0AAAAAAAHFfl+un7aNrf7N/8Ai9/Ax/U/8Nn+TnDmqQr8v10/bRtb/Zv/AMXv4GP6n/hs/wAnOHKWfbG/NLY77Tav/BsMSN8O39Kak+oUvvEpmkAodJVgAAAAAAAAAAAAAAAAAAAAAAAAAAAAAAAAAAAAAAAAAAAAAAAAAAAAAAAAAAAAAAAAAAAAAAAAAAAAAAAAAeN1lt1LqXU86XU8rv5afk/m8vn+VX59oL4EOT6LlW/7u6g0WVveKcgyp9vzTi+pgvytpx3c5clZNhvddgw21nz9RtJ635uygx7JsvV5suTmei/Uy311Ngh432W321tvtpfbX4VtupStK0/lpX4Vp/JWlafyOi1Fp6jqTHrQvI5qNf5teePjza8yIqJIzqRUVFRVbJGvyXt7LwqNc3SG/mwujPEJoiXRurmzVpIJ/f8ABZykkf5QweTax0bbVfzEVk0MjHLFbqScR2YV6VWORsUsdHOtK218q08vKtaV8/vqVp86XW+fwrT4fz/Nx/L+Lz8v90Wyu7/A14e+8vp2fveHw8f5XmVkkrzHiHu9Fva5MtLaVys6sEd+v3E3lbS2l28wNj6LPOkVLK+V1Ige7fZWdz8EuzNp1ZscHtPQxVvmtwP4LQ8vxofVddSz6Jl5P2n2nuIqU9c+NssPLypfucbUUrdbY0Dm9stQ4vqlqRty9Vqrw+oipZan0vqOXzOeF9YXTJ2Xnj0WjreL2em+e2i28jp6hFuTpyHre27plj1zEMDe7Vt6flct3rRqcv8Aye/IMThV7JwRZD9zknGeRcQ22ToeVaLc8b3eH5fStTv9ZmanZY9LvvLpcLNjhnsskpStY762+iS2nrsuut+L8Nr2SOWJzo5WPikY5Wujka6N7XNXhyOa9qORU44VFRF5TjhFILXqF3GWpqWRp2qNyvI+GepcrzVbMMka9L45YJ2Ryxva5Fa5r2NcjkVFRFAD8HEAAAAAAAAAAAAAAAAAAAAAAAAAAAAAAAAAMovDj99zT+zn7N4xdZReHH77mn9nP2bxILwtf15aJ+sX/wAJyBzKP8//ANOX/Ypk8AuuOYAAAAAejIxsbLglx8rHhyceeO+KeCeKOaKaOS2tkkUsclK2X2X0rW2+26l1K21rStKvePqKqKioqoqKioqKqKip3RUVO6Ki90VO6KfuKWWCRs0Mj4pY1RzJInujka5qoqOa9jmuRUVEVFRUVFRFReURUjl749mD4Y+5qZm00/HpOpOXZNL77d319Hj4Ornya0krZdsuIyR10E0V0stZsi7VwabY5V1LaSbKlKUohX759lf4luoPpu14rq8fuLiWNSWWmz4TFJ/xHDj2Us8rs/heRfJtbsi+vrrbBoJuR2WR2euaeLz9C2D8f5v5/j/r/wBzypSlf9fj+2rf23fiY3Z278itVzr9QYaHob+RtSLLkYGxNajfLq3HSJkaaNb2jZFadAzhv5lzU6Tf2hfEluRo5YqtjIJqfFR9LVo510k8zY29PLa+Sb/xsXyeUakr7Ube35vt2oN52DnavMytfssPK1+fhzy4uZhZuPLi5eLkwX3Rz4+Rjz2RzQTRSW3RyRSWWSR3UrZfSl3nR/Iu091+FToPxBYskXaPXOj3WxrDSHH5NixXajlmFZZX1RW43JNVdibasMN/8JbhZOTPr5Lq3UnxJY777LoX++vYyct09ubu/D1ziHluHZS+WLhXOLsXT8h9Nkd11sGv5Nixw6HaZE19LbI7dng8bx4ra/wudLWnndO/brxo7c6o93o6tis6HysnSxZbjlu4GSRVY1EZlIY2vrMVVVVdfq14mNT5U69lWZGhfE9t3qxIamXml0llZOlqw5ZWuxr5OET8xlIm+SiK5fS3HWcnKfKXuQbDsnsvp7tDp3d3cc7O4JyPhe1pWX3MW71uRjY+fZDW22XI1ew9N+u22JbddbT6ZrMrLxLvVSls1fPydbJdY3K43MU4chichTydGwxJILdCzDbrTMX0cyeu+WNyf4td/wDCokia1mvbgjsVJ4LVeVjZIrFeVk8MsbkRWvZLG98b2u9Uc17kXnsqgB2B/YAAOK/L9dP20bW/2b/8Xv4GP6n/AIbP8nOHNUhX5frp+2ja3+zf/i9/Ax/U/wDDZ/k5w5Sz7Y35pbHfabV/4NhiRvh2/pTUn1Cl94lM0gFDpKsAAAAAAAAAAAAAAAAAAAAAAAAAAAAAAAAAAAAAAAAAAAAAAAAAAAAAAAAAAAAAAAAAAAAAAAAAAAAAAAAAAAAOK0pX50pXz+FfOnn8PyOQB1V2b0r1b3Bq6aXsfhHH+VYVKSUg+2ODHXMwbprPd3z63YRe7ztblVtrW2mXgzwZFtPvJKVRN92+yN1mT9N3PRPM79XLW6WWHhnNbps3V+d91tbcfX8kxbZdrhQxWer0W7HD3k80laUkzIrfOqbevxrT4/l+H5f8af7q49Pzp8vOv8v/AH+P6/8As6LL6bwmdYrclj4Jn8KjbLW+VaZ27cWI+iVUTlelrnPYiqvKd1Q0jup4dNnN5a0kevNE4rIXns6Is7ThTGagrqicMdFl6SQ2pEj9WxWXWIEX+64VUWm52z4eO5OkM6TE7K4FvNBBSakEG6pj0z+N5l1919sNMbkGBfk6u6aaltb7MOXJiz7LK09/ixXedtOlq/78vjT+/wA6/wCq75tNPq93hZOu2+uw9ngZcMkGViZ2NDlY2RBLb6ZYZYZ6XxyRyW1utvsvt9N1ta21pWlUc3dvswOhOyqZey4PDk9S8kmtkktn4zFbNxmaetlKWUy+KzyW4UWPZX7r3Oin0V199a3SzSV9TUec2jsR9U2AupYYndKd1WxTJ8elllqJDIqr6eayDhPV/wASrXeH2XGo8b73ldmdVQ6hqN65Y9MandFj8u1qcqkFTMQtbjrr/wCyz3uDHc9uqZV5UrOfz/z/AA+P+rhnR3V7PXxGdO3ZWwh4zd2HxXHuvrbyDgceRtMqyGl9aR37DjV1tu8xpa2U97kVwcbZ6/FspX3ux+HnXBqSOSGSSKWO+KSK+6OSOSy6ySOSy6tt8cll1KXWX2XUrbdbdSl1t1K0rSlaNU5HEZPETLBkqVmpJ8Elic1jkTs50cvCxyNX16o5Ht7+qIVma72w3A2yyb8PrvSOc0zeY96NblKE0NewjFRFkp3Ua6pch79patmaNUVF6kPAB1xgQAAAAAAAAAAAAAAAAAAAAAAAAAAAAZReHH77mn9nP2bxi6yi8OP33NP7Ofs3iQXha/ry0T9Yv/hOQOZR/n/+nL/sUyeAXXHMAAAAAAAAAAAA+W5hwjh/YGjyuN834toeXaDNpS3K03IdVhbbXTVt+6tvvxc6GaGksVfK+Ka22k0V9Lb477LrbbqRPd8+x46a5vXN3PS3INj1NvZKyTW6LMpkcn4XkS3Vllujshy8m3fab38l9ttZMbZ7HBxIbLI8XS0pb5VmKcV/v/k/3Vm2jNx9c7fXEu6Q1Lk8K7ra+WtBOsmPsq3/AO6x0/m0rPxTmSBXtRXdD2qvJnujtztdaEnSTTeob1ODrR8mPlkW1jZu6KqSUbCyV16uOHPY2GTj+89FKZ3e/gW8Snh7uzMzmnAMzbcVxPVfXm/Dfecl4vXHjstvvysvJxILNho4La1rbS/ket09191laxWyW+m+7EKtK0rWlaVpWn4q08v5F+u+y2+2sd9tt1l1K0usutpdStK0+NPK7ztr50+FaV+FafjYK98ezo8MPe9czZZ3DLOBcuy63yV5b19XG49mz5Ul9JpJ9nqLMebju3kyJfjlZWbqZNnLbdfSPYQSXUltnBt146pGpBQ3M071p8lj9QabTuvZrfMtYexJxyvd8j6Vzp5VUjqIiIhMLQ3jAxtvyKWvcK/HSqrGOzOFR1imqqqJ5k+OketmFFVUc5YJrPCdXTEvZpT9Eq/fPskvEL1jTL2/Wk2B3RxjHpfLbHpYqaXmWPBZbfJfWfi+dlTR511vlZFHFodttc/Kvu9VmtitpVF9u9DveM7TN0fJNNtNDutdN9H2Gp3OBl6zZYU1Lbb6w5eFmwwZOPLSy626lk0Vl/prbWtvl5VrOTRW5+g9w6iXNIalxmXTpR0tWKwkWQrc8cNt42x5N6s7lePztdqO/suVOOZbac1fpfV9Nt7TWcx2YgVrHu90sMdPD1InCWKyq2zXdyqtVs8Ma8oqIrl5PyK/L9dP20bW/wBm/wDxe/gY/qf+Gz/JzhzVI/8At/7f4trx7O3Cytb4BPBHrs2GTGzcDwk+HPDy8eW26ySDJxuoeIwTwyWXUpdbfFJZdZdbdSlaXW+VaUrRUt7Y1U/kpse3n5X8ptXrwq9+PyNhk549eOe3Ppz/AIksPDtz+U9SLwvHuFLv8P1iXt/mvf8A9FMyAFDxKsAAAAAAAAAAAAAAAAAAAAAAAAAAAAAAAAAAAAAAAAAAAAAAAAAAAAAAAAAAAAAAAAAAAAAAAAAAAAAAAAAAAAAAAAAAA8LrLLqVpdZbdbX523W0ut/ur50/wYvd1eD3oPve3LyOa8G18fIZo6Wx8u0XnpOSw30sujhvv2OFdFdsLMf11uhxNrZm4Ft3lddi3V+DKOlKV+6p/f8AH+YrT5/Dz8/xf7r5U/1cezUq3YX17laG1A9PlRWImSxr/wDteioip34cnDmr6Khjup9I6X1pi58Lq3T+I1FirDVbLQzGPrZCs7lFRHIyzFJ5cjeeWSxKyVjuHMe1U5K8PdvsnOy+K/S9t0zyTE7F1VlJJrOPb27H0XK4o7aW+iCDOrfHodvN9/dJPPfx6ylKW2xwyXfGsXXMeC8y6+3EvH+b8X3vFNzF663a/f6zJ1k8llkl0dZ8X6TZZZmYt19l1IszEvmxp6U9UMsllaVrdi8vl+Knl8afGvz/AF/3PhOedYcA7O00nH+f8R0PLNRLf67sPd63Gz7LJKUrS3IguyLZL8fJj861iyobrMiG77qK+y6lKtYZvajEXeubETyYuwvdIXdVik5foRrnedDz9LXyNT0SMrl3h9mRtlqv3rKbWZi3t7l5FfKzE2/NzGmJZF+V5bGSP/KeNa5yqnVDYtRRt4RlZEREKVvz/ncJ/e7vZJ8K3VM3cdIcqy+F538JLBxPkt+VvOMy3+itbMfF2d0l++1Vl8nxmyciXf8AlT7mHDsp8oiu5PCt3r0RNkV7B4HtMXTx33Ui5Vp47t3xTIjpJSOOW7cYVJLdb766tPo+NuotbnS/P6LS3401Fm9E6jwXW+1SfPWbyqXKfNiv0pxyr1YxZIvkr6TxR90X5XxKrt3fCLvpsy+zPqXR1vJYKBXq3U+m0kzeFdE1P52xLViWzjkVPldORq1eP+deOVx3AYn3TsqcKRlcjmqrXIrXIvCtcioqL9CovdFAAfAAAAAAAAAAAAAAAAAAAAAAyi8OP33NP7Ofs3jF1lF4cfvuaf2c/ZvEgvC1/Xlon6xf/Ccgcyj/AD//AE5f9imTwC645gAAAAAAAAAAAAAAAAK08/hWnnR0v2/4eOl++NXXV9rdecd5dbZDJj4exy8WuLvtZZLWl1/2p5Dr78Teaz1XWWXSW4OfBZLWy2k1t9tPJ3Qyj6h8KPYfZt2Ls9nBLw/ist1t1dntca/7YZ0NaVu89bq5KxTXW30pb6cvMuxoK2S2z49M2226N19/WlTQqRZ6fPSafmqP8ytcq25qt9JWKjkSmtWRlp8vKJw2FHL8V4bybR2n0RunrjVFTGbU4vUN7PI9jksYV9itFRY5yNWe/kWPhqUqqL+nJcnZEvCt6JV4jK5+t9gfh9v9z8M0vTHZWfq+D7HlOnyOf6bl2JXLz+O8Et20F/Kc/j3JdXjUjy9ljaW+fG47qt1qYrcvafQ8fP5FS2eTIivi8f0Wq4xotNxvR4MGt03H9XgaXUa7Gtrbj4Gs1mLFhYGHj0rWtbYcbFhihitrddW2y22la1fA9VdO8N6h0v2q4tg1tnyPd3bPbZV1s2z2s0Nt1tk2Zkem34W+q+sWPBZDiwe8k9zjxe8vpXtavn+L4fyom+IbxIa53+u6bramzd7KYPRVa9U062+yu249cjJXddvXpIIo3WLM7adaGN9h000VeFGrJ5ksyu9HPht2v1jtloGvU3Ez1bUet8i5k+XuVIYmV6cLG/8ADYuOeOKBbz6vVIs910MXnzSO6GeWyNzgCOJIYAAAAAAAAAAAAAAAAAAAAAAAAAAAAAAAAAAAAAAAAAAAAAAAAAAAAAAAAAAAAAAAAAAAAAAAAAAAAAAAAAAAAAAAAAAAAAAADitKV+dPk/ly8PEzIJIMvGgyYJY6xSRTx2y2Xx3U9N1t1t1K0rbdbXyrTy+NPOlfOlfJ/WV8/wAXw/lPVFRfReyp8FT6FPxJHHMx0csbJY3orXxyMa9j2qnCtc1yK1yKiqioqKip2I9+6/Zu+Hjtv6TstNpJOseU5F0kldzwmkWFgTT3eu71Z/HJaX6aeySaT3uVJiY2FscmtPK7YW/CqIHu32a3iF6opm7Pjuux+1OLYtb76bLiMV9vIIseylK0kzOJzyy5t8t91a0sx9Hlb6T02+uT3dK1pS0JWlfh86/H41/3Wn+Hn5eXy/E4rb6ra0u+6pX8X/t50p+z9bDM3oLTmcV8ktT3K07lfeqCMgerlXlXSRI1YZeVVVcro+ty8/LTnkiHu/4H9hN3Us3LGmmaO1HP1v8A5Q6PbDipZJ3cu827jWxOxV5XPVXyufUjnk5X8+1y9RR8zcHN1uXk4OxxMnAzcOaTGy8LNgkxMzFyIrq2ywZOLPbZPBNHdStskcllt9l1K23UpWlX8v8Ap8Vw7uHwv9Id6Y0kfYnA9PttjSH3OLvsaO7V8jwraXVvstxd5r78bZWQ2X1pJXFuyK4c11KUnglsrdbWIfuz2SXLNP8AStx0dzCLlWJS2+WzinMro9du7Lbbb76RYHIMKKPV580l/pighz8DTwxWfdz7KSvnc1Bm9rc7juqXGujy9dOVRsSeVca1O/C13u4kXv8A3Mj3Kvoz4FVe8Ps3t5tA+95LQ76m5uAh8yRrcUxKGpIYW8qnnYWzKrbT0bwnTjblqR7u7a6ehDV/v5OHYPYfVfY3VG3u0PY3DuQcR2dt8kcUW518kOLmUh8qSSavZR1l1u2x7K1tpXJ1mVlY3nWlKS1dfNbzQTVpHQ2IZoJWKrXxzRujka5PVHMe1jk+Hqnp3TlFQr/zGEzGn78+LzuLyGHyVSRYbNDKU7FC3BI1O7Ja9qOGVi/+Jic+vdFRVAP4nVAAAAAAAAAAAAAAAAAZReHH77mn9nP2bxi6yi8OP33NP7Ofs3iQXha/ry0T9Yv/AITkDmUf5/8A6cv+xTJ4BdccwAAAAAAAAAAAAD6fiXC+U8720Wj4lo87d7GX0+cOHF5xwWXVrT32ZkyVjxcKD4eXv8qaGL1eVnqrfWlLuPat1qMEtq5Yhq1oWq+aexIyGKNqernySK1rURPiq/RwdliMNl9QZGricHjL2Xyl2ZkFPH42rPcuWZpHdLI4a9dkssjnLx2axeE5VelOVT5h211j0l2D2zmWw8X099Nbbf6cvkGwpfiabF9Na+un0m6O67Klsrb6bsfCjyZo7rraz0hju95bnd0/4ItPqK4m87Tyo99n2Vtlt41h3Sx6TFktvpdbTNnr7rI2t1PTbW+K6zGwq0rJBNjZcflJdnvrNXr9PhY+u1eFja/BxIbMfGxsSGOCCCGOlLY4ooYqW2WWWW0pbZbbSlLaW0pSlKUojlrff6jSWaho+JmQsp1Ruy1hrkpRO9FdWhcjZLSoqcte/wAuHlEVElavJaH4f/Zs6j1D7jqXe65NpfDu8qxHo3Gyxv1DcjXpekeUup5tbERvTs+GFbV7hXMc+rInKYudQeEvgHW30bbbmO3mHKYqxy27PZ49tMLAmt9N9LtXq/XLDj32X2W3x5U1+TmR3er3WVbHfWOmWNkdkdtLI7LbLbaUpS2y2ltKeVPL4Up/I8vx/krX/Hy/JTz/ACOUW81nsxqG4+/mb9i/Zeq/LneqtYirz0QxN4ihiRfSOJjGN49PiXB6B220Pthgq+nNCabxmncVA1qLFQrtbNZka1Ge8Xrbuu1esvRPl2LU0srvTqRvDUAOoM4AAAAAAAAAAAAAAAAAAAAAAAAAAAAAAAAAAAAAAAAAAAAAAAAAAAAAAAAAAAAAAAAAAAAAAAAAAAAAAAAAAAAAAAAAAAAAAAAAAAAAAAH6gAfJcv4RxDnWmyuP8w41pOS6bOtpZl6zdazF2OHkW0r52+8gyo747q2V+6srWla2XeV1vlWlEX3dvsoOquXfTdv1Bvc/rPb30unt0mV77kHEsiW666S6OzHy8qzbaus191ttL8XZS4OFFSlsGqupbSOstnlX5/e1r8/x+f5Pj8P8Cvwr5+Xz/H8aeX4vy/H/AA8nU5TB4nNReVk6Ne0nCo172Ik7P3c7OmZnC8Lw16JyndFNU7lbIbV7u0XUdwNF4XP/AJtY4L8tVlfL0+f7VPL1fJyNdUX5XSyz5aqnymOTlFqM90+DPxBdFXZOVy7g+XsuO4/rupy7iPveQ8d9zHZ7yTIy5ceKzZafHsp9zWfd67WxXX09MN8vwuuxY+XlX5fzeVa/3efw/WvEywRT2e7mismsupW262SlLrK0r/8AdZd50uYTd2+z+8O3dP0vZT8WpwnleTfJLfyjhFYNJlzTyXUvkm2Gvtim0u0lmu8vf5Ow1uRm3WedsWTBW6tzU2b2jb8ubAXfpX3K+v8A7RWmN/0Rs0S9vWTn0q/3h9lq9Pesrsrq5Ht+XKzSmr3Ix/HdyQUc/Wi6XL6MjZfpt4RE8y4qqqlU4SY91+y87364rmbTgF+F2zxzHrfN/wCU2W6nlkEFtL5L/e6DNypMTOrFZbbHHTVbTLzsyWvnHrIvOltI4tzptxx/ZZen32q2ek22DJ7rN1W4wMrWbHDm8qXe6y8DNiiyceSlt1K+iWO2703W18vKrUuVwOYwkvlZOhYq916ZXM6oJOF/u52dUT0/8Mir9LUVF4q/3I2W3Q2lyDsduBozN6ef5ixw3LNR8uKudP8AapZWt5+PtNVPlfmrTnonZ0bV5RPywHUGrQAAAAAAAAAAADKLw4/fc0/s5+zeMXWUXhx++5p/Zz9m8SC8LX9eWifrF/8ACcgcyj/P/wDTl/2KZPALrjmAAAAAAAAB8VURFVVRETuqr2RE+lVXsh+mtc9zWMa573KjWtaiuc5V7IjWpyqqq+iInKh/VhYWbssqDA12HlbDOypLYcXDw4JsrKyZrq/cxQQQWSTTSXfH02R2XXXfipX4sluofCp2H2dXG2efjycQ4rLW2+u32uPf9NzIq+df/LdXfdDNJZf5W+nKy7sXGrZJbPjVzKW1irKL1X0L151LiW049qbJ9xfF7rM5BsvRlbjN+FvqpXJrbbbjQ33WW3VxcOPHxaX20kpBSStb66c1tvRpvS3nU6D25zMM5b7tVkatSvJwna1cb1MRWrz1RQ+bIiorX+Xyik49gPAhurvE6lnNQQTbe6HmWKVctmqr0y+SrO6XK7DYaXyp5EkYv5q3dSpUVFR8aWE7Lgb1B4JuQ8g+jbrs3Jk45qrvdzR8ewr4pd1lx+da0szsq26/H1kclKW+cUVcjKvskusukwJ4/JJTwvgHEev9XFpeJaLB0+FFS3ztx4fOaaWkdtlcjKyb7r58rJvtstpJkZEl88nlT3kl1X2dPKnyp5eXw8vyOUSNW6/1NrKd0mXvPSqjldDjqyuhowJz8niFq/nXtT+9ndLIvK8KicIXXbLeGnafYnHsg0Zp6GTMuhbHe1Vlmx3tQ3l4b5nN18ae5wPc3n3SgytX9OqN7k6lAMKN+gAAAAAAAAAAAAAAAAAAAAAAAAAAAAAAAAAAAAAAAAAAAAAAAAAAAAAAAAAAAAAAAAAAAAAAAAAAAAAAAAAAAAAAAAAAAAAAAAAAAAAAAAAAAAAAAAABxWlK0rStKVpX50rTzpX+elXTHa3h/wCn+6tfTW9lcE0XJLbYZYsbNnxa4+419Jfndrd3h34+011911Keu7CyoLr/AJXXeXn590OK+f4v7vy/r/E/lNBDZjdDYhinhe3pfFNGyWNyL6o5kiOa5F/xQ6nNYLCajx9jE6gxGNzeMtsWOzj8rRrX6c8a+rZK9qOWJyfRy3lF7oqL3IK+7fZG5Ef0rc9D8297bW6SSPhvOq18rfO66+sWv5NgQVvtsjs9MOLi7DVZUklaUuytvb8bqxNdn9H9sdMbOur7M4NvuKzVlrDBmZmLSfSZ1/l6vTrt/hSZOnz7/RT1yR4mdLLDbXymsju86Uub+n4eX8vn5eX/AP1+L+f/AN/xt9xvRco1mbpuR6bW7vU58V0Gbrtrh4+fhZcF/wB/DkY2VZLDLHd+OOSytlfx0+NaNb5va7A5Hrlxyvw9l3KokKJNUVyryqLXe7qjRV558iVjUT0YqIiFfe8Ps2dnNd+95PQM9vbTPS9crYaLXZLTM87vlcS4mzKk9Njndv8As+7DFE1fk1nI1GLSMr8K/wDb40/v+P7XCyV3b7LHpLsCuZtutsvO6l5BNSSb3Ors+2vE5577qXVrLxzKyYrsOP02+7hg0ex1GJD6q31xZq08qxBd0+A/xF9KVys/Y8Om5fxjHrdWnJ+CW5G+xbYaVkr73YauyOPea62OK2kmVkTa67W49bq227GX01uahzegdRYTqkfUW9Vb396odUzEanxliRvnwpx8XxKxF7LJ8Sqzd/wS787QLZuXtLyar05X63fyj0g2bL1GQt5d5tylFEmUoNRveR9imsDPT3heOTDIc1pW2taVpWlaVrStK08q0rT50rT4+VaebhhaoqKqKioqdlRU4VP80IjPY+NzmSMdG9q8OY9qtc1U9Uc1yIqKn0KgAfD8gAAAAGUXhx++5p/Zz9m8YusovDj99zT+zn7N4kF4Wv68tE/WL/4TkDmUf5//AKcv+xTJ4BdccwAAAAAPpuKcN5RznbQ6Pielzt5spfL+Aw4vVZBZWvl77Lyb7rMbCx6XfCuRlSww0u8rK3+u62lZH+nvBDqtXXE3namTHvM+2tJbeM4V0lmnxr7bvVbbnZNaR5G0up6bK3RUtxsLz95BPDmxVpJXBdX7iaZ0XC52UvNfcVquhxlVWzXZV4Tp5iR3EDF/72d0bPXjrXsSD2U8Mm7O+9+KLR+n5q+DbM2O9qzMMlo6fpNRydfFt8aresMb8pKuPjtTKvCP8lF6kwR6y6V7A7YzKQcV00ldfHf6MvfZ9L8XS4np+/pdl3WXVyZrPKlLsbCjyciz1WXSxxRXe9pKF1B4R+A9cfRtvvLLeY8phrFNZsdjBbbga+e2tt9tdZrPeSww32X223x5WRdk5kd9K1hyY7L6x0ym1ep1ulwcbW6rCxdfgYcNmPi4uHDZj48EMdvpsjiiipbZZZZbSltlttKW220pSnlTypT9H/f5URta7yam1Z5tStI7C4dyq33OnI5s87P/ANXbajJJEci8Oii8qFUXhUfxyt1+wXgV2n2bbSzWarR6/wBbwpHKuZzVaN2Lx1lvS7qw2Gf5kEKxyJzFbtrZuIrUkZJCvyW+FkdkdtLI7LbLaeXlbbbS2lPL5fClKUeYNRcqvde6k3WojURrURrWoiI1qcIiJ2REROyInwRAAH0AAAAAAAAAAAAAAAAAAAAAAAAAAAAAAAAAAAAAAAAAAAAAAAAAAAAAAAAAAAAAAAAAAAAAAAAAAAAAAAAAAAAAAAAAAAAAAAAAAAAAAAAAAAAAAAAAAAAAAAAAD13xRyW1skjsvtrTyrbfZbdb/dWnk9gHxURyK1yI5F7Kipyip9CovZTEHu3wR+HzvW3OzeScMxdLyjKpdfTmPE/RouQUnut9H0jKlgtrh7eSynppHbu8PYw2U+NsNLqUrSITu/2U/cHCbsva9TbfA7Q0Ufrls1WRXH4/y7Hi9fnbFbHlZP2l2/uYfjNk2Z2qmmkpW3G1VfVZasb+Vfj5/Hz8vxfk/XT9p5fGvx86eXl6f91+df2MVzWjNPZ1HOt0GRWXc8XKfFexyvHynqxvRKvZOfOZJ/n68xg3e8HuxO8rLNnUGkK2Gz86PVNT6WbFhcv5zuV86ykES0si7qVFVb9Sw9eOPMTlSklyXinJ+GbfI0HLuP7rjO7xf/r6rf63L1GfHbWt1LJK4udFDLdFf6a1imttrFNbT1RXXW1pV8//AL/J/j5roPY/TvWXbmoro+xuF6DlWvrST3Vu118E2RhySWVjuyNfm1pTM1+X6K+mzMwZocmz4Vslt+dIoO7vZHaPNtzNz0VzKbRZHnfLBw3mV+Rs9LdWvp9GNg8hgpLuddDHbS6tbthj8hnmvupSs0NlPNqDN7UZamr5cPOzKV05VIXcV7rU+hEc7yJlRF9WyRuVUXiNF4Qqu3h9mZujpBbWU2wylTcTDR9crMZL5WI1PDEi9XQleaX8nZB7W8N6qtuCWVyfIqoqowgcHefbvhw7p6MypYOyeB7rSYVs3uod9BBTZ8Yy/XJWyD3G/wBffka+yXI8vXFhZkuNsLbK097iR31rbToxrC1Tt0ZX17laerNGvDop4nxPT/NsjWqqLx6pyi+qOX1K6dS6U1Lo7Jz4XVOBy+nsrVd0WKGYx9rH2o3Iqp3itRROVq8KrXs6mPT5TXuTuAHHMeDKLw4/fc0/s5+zeMXWUXhx++5p/Zz9m8SC8LX9eWifrF/8JyBzKP8AP/8ATl/2KZPALrjmAGTnUXhX7E7Pri7PLx7+JcVmrbdXcbTHv+lZkN1K3Uu1erurFPkW30pb6MrJvxcW+OSk2PJlei6OvS5zUWG03TdezWQr0K7eeFmenmSuTv0QQt5lnkd/ZZExzl+KInKpnm3+2Wu90s5Dp3QemcnqPJyub1to13OrVI3ORq2L91yNqUq7OeXT2rEMaIi8dbuGrjZh4WZsMqDCwMXJzczKkthxsTEglycnJmvr5WRQQQ2XyyyXV86WWWW3XXfGlKVrRnN0/wCCjkfI/o267LyJOM6i6kc8WgxbopN5mx1rWvpy5/O/H1cd9Lba1jspk5d0d98d9cDIj82efVfQXXnUuLZTQamzJ3N0Xu8zkGy93lbjLpd6fXT391ttmLBddZZdXFw48fF9dlJKw1l87692eVPjTy86fD7n8n+P+/5UVtbb+5LI+dj9JRPxdNepjsnO1rshM305gj5dHUaqejlWSbvyjonJ2uG8P/s2tMaZ9x1JvXch1XmmeVZj0jjpJI9OUZU6ZGx5K0iRWMxJG5ER8MaVaCuRWubajXqX4zhXX3EOvdVFpeJaLB1GFHS2t1II/OfImpZbZWfLyb7pJ8vIutttpfkZF8k19KW+qS/ypV9qCPFizYtzSWLU8tmxK5XyzTSPllle7urnySOc5zl+KucpZ9i8Ti8HQq4rDY6lisZShZXp0MdVhp060MadLIoK9dkcUbGp6I1qJ8fVVAD+J2AAAAAAAAAAAAAAAAAAAAAAAAAAAAAAAAAAAAAAAAAAAAAAAAAAAAAAAAAAAAAAAAAAAAAAAAAAAAAAAAAAAAAAAAAAAAAAAAAAAAAAAAAAAAAAAAAAAAAAAAAAAAAAAAAAAAAB+dstVrdth5GDs8DEz8PJhvgyMbMx48mCeGW2tkkUsUtt1skclta2X23UrS62taVp5Vqjt7s9mV0B2fTI2fD8Ofqbk01Jb6ZnE47P+H5562VpH9O4rPfTXWQW3V95JZprtNkT3edZsuvx8pIvj8fxfkr8/wDBxSny+Pq8vx/H/v8A93XZHFY3LReRkqVe5GqKiJNG1zmc+qxydpIncc/Kje1yeqdzANfbV7d7oYx+J19pDB6mqOY9jFyVGJ9ut1pw59LIMSO9Sl+iSpYhei9+VKsPdfs7fEX1BXL2ODx6nZXFce+Stm84PFNnbGzHtvpSO/YcXu/84hnut85JLNXHucTGjpWs2fSnl54KzQzY8suPkRXwTwSyQzQzWXRTwyx3Vskiliv9Mkckd9K232X20usupW2tKVpWi8NdbS+2ttfK+la/GlaedPKv4vL1eVafyfz0/Kxq7o8I3Q3e0WTJzngmsk3skdLIeVae2ul5Lj3W23WQV+2+uugycuLH9VbosPYVy9f6qUrfiSUp6a6qze0dWbrmwV11Z/dyU7irJA5VX9FlliebEnHPCSMmT05c1OVKyd4fZb4O+lrK7Marlw1lfMlZpfVavuY1y/pJDSzVeNbtVv8AZjbdr3U/RR87URXFQn/H+f4f6/6sn/Df5/8Azp5/P/5d/wD53+dnP3B7I/n+lyZs/pnmWt5hq7q3SR6PmFa6XkGPHS2nohi2uBBLqdrPJdStK3z4mgijt8qfd1p6rvl+ifAh4n+NZnJ8XknXkWii2F+ltw9hk8n4tl4ctuJ9tqZElKancbLOjsjplQ1r73DsvvpfX0WXVtupTIPD9gsnpHefSWSz9V1DG0p777OUkc12PiY7G3Y2PfaY5Y29Uj2Maj0Y5XOa3p5dwV2Zvwg+I7Seddh7u1GqshIiyRR38DRfnMXP1csZJHkca6asxj+zk94dWe1F/OMYvKJ+A7V6z6Y7A7XzqY/FNLLfg2X+jL3udS/E0uH6fv6SZl0d1Z5rfh6sXDjycmz1WXSRWRVrLTPPqbwOafUS4u57P2MXIsuO6yS3juu97DpopLbvVSmXlXUiy9nbStLa0s91g491K3xZGNlR3M9dVqNbo8HH1mpwcXW4GHDZBi4uHDHj40EMdtLbIo4YqWWR2WW0pS222lKW+VPLyp5UWB618QGPptko6PhTI2uFYuUsseyjEqpx1V4HIyay5vfhz/Ki54VElb2JmbBezX1Pn309Qb3XZNK4dHMlZpHGSwzaivMTpcjMhdYs1TERPTs5kLrd3hXNVaz0RyYrdQeEXgXXf0bcb6y3mPKYaxzWZ2xx7bddrpra2yW3azV1kkjsvjussutysq/Jy7L6VvgmhsuujplzbZHFbS2yy2yy2lKUtttpbSnl8KfCn8nweXl+rz+f+6ufn8Kot5vUGY1FcffzN+xfsu5+VM9VZG1V56IYk4ihjRe6MiYxv0oq9y4Lb/bPQu1uCg05oPTWM07i4WsRzKNdrbFuRjUZ7xfuP67d6y5E+VPamlkXlURWt4agB0xnQAAAAAAAAAAAAAAAAAAAAAAAAAAAAAAAAAAAAAAAAAAAAAAAAAAAAAAAAAAAAAAAAAAAAAAAAAAAAAAAAAAAAAAAAAAAAAAAAAAAAAAAAAAAAAAAAAAAAAAAAAAAAAAAAAAAAAAAAAAAAAAAAAAAAAAAAAAAAAAAAAAAAAAAAAAAAAAAAAAAAAAAAAAAAAAAAAAAAAAAAAAAAAAAAAAAAAAAAAAAAAAAAAAAAAAAAAAAAAAAAAAAAAAAAAAAAAAAAAAAAAAAAAAAAAAAAAAAAAAAAAAAAAAAAAAAAAAAAAAAAAAAAAAAAAAAAAAAAAAAAAAAAAAAAAAAAAAAAAAAAAAAAAAAAAAAAAAAAAAAAAAAAAAAAAAAAAAAAAAAAAAAAAAAAAAAAAAAAAAAAAAAAAAAAAAAAAAAAAAAAAAAAAAAAAAAAAAAAAAAAAAAAAAAAAAAAAAAAAAAAAAAAAAAAAAAAAAAAAAAAAAAAAAAAAAAAAAAAAAAAAAAAAAAAAAAAAAAAAAAAAAAAAAAAAAAAAAAAAAAAAAAAAAAAAAAAAAAAAAAAAAAAAAAAAAAAAAAAAAAAAAAAAAAAAAAAAAAAAAAAAAAAAAAAAAAAAAAAAAAAAAAAAAAAAAAAAAAAAAAAAAAAAAAAAAAAAAAAAAAAAAAAAAAAAAAAAAAAAAAAAAAAAAAAAAAAAAAAAAAAAAAAAAAAAAAAAAAAAAAAAAAAAAAAAAAAAAAAAAAAAAAAAAAAAAAAAAAAAAAAAAAAAAAAAAAAAAAAAAAAAAAAAAAAAAAAAAAAAAAAAAAAAAAAAAAAAAAAAAAAAAAAAAAAAAAAAAAAAAAAAAAAAAAAAAAAAAAAAAAAAAAAAAAAAAAAAAAAAAAAAAAAAAAAAAAAAAAAAAAAAAAAAAAAAAAAAAAAAAAAAAAAAAAAAAAAAAAAAAAAAAAAAAAAAAAAAAAAAAAAAAAAAAAAAAAAAAAAAAAAAAAAAAAAAAAAAAAAAAAAAAAAAAAAAAAAAAAAAAAAAAAAAAAAAAAAAAAAAAAAAAAAAAAAAAAAAAAAAAAAAAAAAAAAAAAAAAAAAAAAAAAAAAAAAAAAAAAAAAAAAAAAAAAAAAAAAAAAAAAAAAAAAAAAAAAAAAAAAAAAAAAAAAAAAAAAAAAAAAAAAAAAAAAAAAAAAAAAAAAAAAAAAAAAAAAAAAAAAAAAAAAAAAAAAAAAAAAAAAAAAAAAAAAAAAAAAAAAAAAAAAAAAAAAAAAAAAAAAAAAAAAAAAAAAAAAAAAAAAAAAAAAAAAAAAAAAAAAAAAAAAAAAAAAAAAAAAAAAAAAAAAAAAAAAAAAAAAAAAAAAAAAAAAAAAAAAAAAAAAAAAAAAAAAAAAAAAAAAAAAAAAAAAAAAAAAAAAAAAAAAAAAAAAAAAAAAAAAAAAAAAAAAAAAAAAAAAAAAAAAAAAAAAAAAAAAAAAAAAAAAAAAAAAAAAAAAAAAAAAAAAAAAAAAAAAAAAAAAAAAAAAAAAAAAAAAAAAAAAAAAAAAAAAAAAAAAAAAAAAAAAAAAAAAAAAAAAAAAAAAAAAAAAAAAAAAAAAAAAAAAAAAAAAAAAAAAAAAAAAAAAAAAAAAAAAAAAAAAAAAAAAAAAAAAAAAAAAAAAAAAAAAAAAAAAAAAAAAAAAAAAAAAAAAAAAAAAAAAAAAAAAAAAAAAAAAAAAAAAAAAAAAAAAAAAAAAAAAAAAAAAAAAAAAAAAAAAAAAAAAAAAAAAAAAAAAAAAAAAAAAAAAAAAAAAAAAAAAAAAAAAAAAAAAAAAAAAAAAAAAAAAAAAAAAAAAAAAAAAAAAAAAAAAAAAAAAAAAAAAAAAAAAAAAAAAAAAAAAAAAAAAAAAAAAAAAAAAAAAf/9k=;" parent="1" vertex="1">
          <mxGeometry x="85" y="491.81999999999994" width="60" height="60" as="geometry" />
        </mxCell>
        <mxCell id="StyOjbkptv3va4ijd22D-141" value="" style="strokeColor=#dddddd;shadow=1;strokeWidth=1;rounded=1;absoluteArcSize=1;arcSize=2;" parent="1" vertex="1">
          <mxGeometry x="444.18000000000006" y="422.1996774193549" width="130" height="55.16129032258064" as="geometry" />
        </mxCell>
        <mxCell id="StyOjbkptv3va4ijd22D-142" value="&lt;font color=&quot;#000000&quot;&gt;Web&lt;/font&gt;&lt;br&gt;Cloud Run" style="editableCssRules=.*;html=1;fontColor=#999999;shape=image;verticalLabelPosition=middle;labelBackgroundColor=#ffffff;verticalAlign=middle;labelPosition=right;align=left;spacingLeft=20;part=1;points=[];imageAspect=0;image=data:image/svg+xml,PHN2ZyB4bWxucz0iaHR0cDovL3d3dy53My5vcmcvMjAwMC9zdmciIHhtbG5zOnY9Imh0dHBzOi8vdmVjdGEuaW8vbmFubyIgd2lkdGg9IjM2NS40NjQ5OTY3NzA0MjQ5MyIgaGVpZ2h0PSIzNzkuMjIyOTk0NDYzNTc3OTUiIHZpZXdCb3g9IjAgMCA5Ni42OTU5OTkxNDU1MDc4MSAxMDAuMzM1OTk4NTM1MTU2MjUiPiYjeGE7PHN0eWxlIHR5cGU9InRleHQvY3NzIj4mI3hhOwkuc3Qwe2ZpbGw6IzQyODVmNDt9JiN4YTsJLnN0MXtmaWxsOiNhZWNiZmE7fSYjeGE7PC9zdHlsZT4mI3hhOwk8cGF0aCBjbGFzcz0ic3QwIiBkPSJNMjkuNzk0IDEwMC4zMzZMNDYuOTIgNTAuMTY4aDQ5Ljc3NnpNMCA5OS42NzFsMTIuOTc2LTQ5LjUwMkgyOS4yMkwxNi44OTcgOTIuMDU0eiIvPiYjeGE7CTxwYXRoIGNsYXNzPSJzdDEiIGQ9Ik0yOS43OTQgMEw0Ni45MiA1MC4xNjhoNDkuNzc2ek0wIC42NjZsMTIuOTc2IDQ5LjUwMkgyOS4yMkwxNi44OTcgOC4yODN6Ii8+JiN4YTs8L3N2Zz4=;" parent="StyOjbkptv3va4ijd22D-141" vertex="1">
          <mxGeometry width="30" height="30" relative="1" as="geometry">
            <mxPoint x="15" y="15" as="offset" />
          </mxGeometry>
        </mxCell>
        <mxCell id="VxR14Vq80_6-qc9pXVwi-225" value="" style="shape=mxgraph.gcp2.doubleRect;strokeColor=#dddddd;shadow=1;strokeWidth=1;rounded=1;absoluteArcSize=1;arcSize=2;" parent="1" vertex="1">
          <mxGeometry x="432.18000000000006" y="327.36290322580646" width="154.00000000000003" height="62.516129032258064" as="geometry" />
        </mxCell>
        <mxCell id="VxR14Vq80_6-qc9pXVwi-226" value="&lt;font color=&quot;#000000&quot;&gt;Menu service&lt;/font&gt;&lt;br&gt;Cloud Run" style="editableCssRules=.*;html=1;fontColor=#999999;shape=image;verticalLabelPosition=middle;labelBackgroundColor=#ffffff;verticalAlign=middle;labelPosition=right;align=left;spacingLeft=20;part=1;points=[];imageAspect=0;image=data:image/svg+xml,PHN2ZyB4bWxucz0iaHR0cDovL3d3dy53My5vcmcvMjAwMC9zdmciIHhtbG5zOnY9Imh0dHBzOi8vdmVjdGEuaW8vbmFubyIgd2lkdGg9IjM2NS40NjQ5OTY3NzA0MjQ5MyIgaGVpZ2h0PSIzNzkuMjIyOTk0NDYzNTc3OTUiIHZpZXdCb3g9IjAgMCA5Ni42OTU5OTkxNDU1MDc4MSAxMDAuMzM1OTk4NTM1MTU2MjUiPiYjeGE7PHN0eWxlIHR5cGU9InRleHQvY3NzIj4mI3hhOwkuc3Qwe2ZpbGw6IzQyODVmNDt9JiN4YTsJLnN0MXtmaWxsOiNhZWNiZmE7fSYjeGE7PC9zdHlsZT4mI3hhOwk8cGF0aCBjbGFzcz0ic3QwIiBkPSJNMjkuNzk0IDEwMC4zMzZMNDYuOTIgNTAuMTY4aDQ5Ljc3NnpNMCA5OS42NzFsMTIuOTc2LTQ5LjUwMkgyOS4yMkwxNi44OTcgOTIuMDU0eiIvPiYjeGE7CTxwYXRoIGNsYXNzPSJzdDEiIGQ9Ik0yOS43OTQgMEw0Ni45MiA1MC4xNjhoNDkuNzc2ek0wIC42NjZsMTIuOTc2IDQ5LjUwMkgyOS4yMkwxNi44OTcgOC4yODN6Ii8+JiN4YTs8L3N2Zz4=;" parent="VxR14Vq80_6-qc9pXVwi-225" vertex="1">
          <mxGeometry width="30" height="30" relative="1" as="geometry">
            <mxPoint x="15" y="15" as="offset" />
          </mxGeometry>
        </mxCell>
        <mxCell id="ANfDOpSylxRKEM2ptjQJ-154" value="" style="shape=mxgraph.gcp2.doubleRect;strokeColor=#dddddd;shadow=1;strokeWidth=1;rounded=1;absoluteArcSize=1;arcSize=2;" parent="1" vertex="1">
          <mxGeometry x="436.5" y="21.00290322580645" width="154.00000000000003" height="62.516129032258064" as="geometry" />
        </mxCell>
        <mxCell id="ANfDOpSylxRKEM2ptjQJ-155" value="&lt;font color=&quot;#000000&quot;&gt;Batch service&lt;/font&gt;&lt;br&gt;Cloud Run" style="editableCssRules=.*;html=1;fontColor=#999999;shape=image;verticalLabelPosition=middle;labelBackgroundColor=#ffffff;verticalAlign=middle;labelPosition=right;align=left;spacingLeft=20;part=1;points=[];imageAspect=0;image=data:image/svg+xml,PHN2ZyB4bWxucz0iaHR0cDovL3d3dy53My5vcmcvMjAwMC9zdmciIHhtbG5zOnY9Imh0dHBzOi8vdmVjdGEuaW8vbmFubyIgd2lkdGg9IjM2NS40NjQ5OTY3NzA0MjQ5MyIgaGVpZ2h0PSIzNzkuMjIyOTk0NDYzNTc3OTUiIHZpZXdCb3g9IjAgMCA5Ni42OTU5OTkxNDU1MDc4MSAxMDAuMzM1OTk4NTM1MTU2MjUiPiYjeGE7PHN0eWxlIHR5cGU9InRleHQvY3NzIj4mI3hhOwkuc3Qwe2ZpbGw6IzQyODVmNDt9JiN4YTsJLnN0MXtmaWxsOiNhZWNiZmE7fSYjeGE7PC9zdHlsZT4mI3hhOwk8cGF0aCBjbGFzcz0ic3QwIiBkPSJNMjkuNzk0IDEwMC4zMzZMNDYuOTIgNTAuMTY4aDQ5Ljc3NnpNMCA5OS42NzFsMTIuOTc2LTQ5LjUwMkgyOS4yMkwxNi44OTcgOTIuMDU0eiIvPiYjeGE7CTxwYXRoIGNsYXNzPSJzdDEiIGQ9Ik0yOS43OTQgMEw0Ni45MiA1MC4xNjhoNDkuNzc2ek0wIC42NjZsMTIuOTc2IDQ5LjUwMkgyOS4yMkwxNi44OTcgOC4yODN6Ii8+JiN4YTs8L3N2Zz4=;" parent="ANfDOpSylxRKEM2ptjQJ-154" vertex="1">
          <mxGeometry width="30" height="30" relative="1" as="geometry">
            <mxPoint x="15" y="15" as="offset" />
          </mxGeometry>
        </mxCell>
        <mxCell id="VxR14Vq80_6-qc9pXVwi-179" value="" style="shape=mxgraph.gcp2.doubleRect;strokeColor=#dddddd;shadow=1;strokeWidth=1;rounded=1;absoluteArcSize=1;arcSize=2;" parent="1" vertex="1">
          <mxGeometry x="415.4382608695653" y="502.91838709677404" width="187.47826086956525" height="62.516129032258064" as="geometry" />
        </mxCell>
        <mxCell id="VxR14Vq80_6-qc9pXVwi-180" value="&lt;font color=&quot;#000000&quot;&gt;Bot Web Hook&lt;/font&gt;&lt;br&gt;Cloud Functions" style="editableCssRules=.*;html=1;fontColor=#999999;shape=image;verticalLabelPosition=middle;labelBackgroundColor=#ffffff;verticalAlign=middle;labelPosition=right;align=left;spacingLeft=20;part=1;points=[];imageAspect=0;image=data:image/svg+xml,PHN2ZyB4bWxucz0iaHR0cDovL3d3dy53My5vcmcvMjAwMC9zdmciIHhtbG5zOnY9Imh0dHBzOi8vdmVjdGEuaW8vbmFubyIgd2lkdGg9IjIwIiBoZWlnaHQ9IjE5Ljk4OTk5OTc3MTExODE2NCIgdmlld0JveD0iMCAwIDIwIDE5Ljk4OTk5OTc3MTExODE2NCI+JiN4YTsJPHN0eWxlIHR5cGU9InRleHQvY3NzIj4mI3hhOwkuc3Qwe2ZpbGw6IzQyODVmNDt9JiN4YTsJLnN0MXtmaWxsOiM2NjlkZjY7fSYjeGE7CS5zdDJ7ZmlsbDojYWVjYmZhO30mI3hhOwk8L3N0eWxlPiYjeGE7CTxwYXRoIGNsYXNzPSJzdDEiIGQ9Ik0zIDMuOTlMMCA2LjQydjcuMTNsMyAyLjQ0eiIvPiYjeGE7CTxwYXRoIGNsYXNzPSJzdDAiIGQ9Ik0zIDMuOTlsLTMgNCAzLTJ6bS0zIDhsMyA0di0yeiIvPiYjeGE7CTxwYXRoIGNsYXNzPSJzdDIiIGQ9Ik0wIDE1Ljk5bDQgNCAyLTItNi02em0uMDEtOEw1Ljk5IDJsLTItMkwwIDMuOTl6Ii8+JiN4YTsJPHBhdGggY2xhc3M9InN0MSIgZD0iTTE3IDE2bDMtMi40MlY2LjQ0TDE3IDR6Ii8+JiN4YTsJPHBhdGggY2xhc3M9InN0MCIgZD0iTTE3IDE2bDMtNC0zIDJ6bTMtOGwtMy00djJ6Ii8+JiN4YTsJPGcgY2xhc3M9InN0MiI+JiN4YTsJCTxwYXRoIGQ9Ik0yMCA0bC00LTQtMiAyIDYgNnptLS4wMSA4bC01Ljk4IDUuOTkgMiAyTDIwIDE2eiIvPiYjeGE7CQk8Y2lyY2xlIGN4PSI2IiBjeT0iOS45OSIgcj0iMSIvPiYjeGE7CQk8Y2lyY2xlIGN4PSIxMCIgY3k9IjkuOTkiIHI9IjEiLz4mI3hhOwkJPGNpcmNsZSBjeD0iMTMuOTkiIGN5PSI5Ljk5IiByPSIxIi8+JiN4YTsJPC9nPiYjeGE7PC9zdmc+;" parent="VxR14Vq80_6-qc9pXVwi-179" vertex="1">
          <mxGeometry width="30" height="24" relative="1" as="geometry">
            <mxPoint x="15" y="18" as="offset" />
          </mxGeometry>
        </mxCell>
        <mxCell id="Mzdmz-6m3bua8gfHEATt-152" style="edgeStyle=orthogonalEdgeStyle;rounded=0;orthogonalLoop=1;jettySize=auto;html=1;exitX=1;exitY=0.5;exitDx=0;exitDy=0;entryX=0;entryY=0.5;entryDx=0;entryDy=0;" parent="1" source="VxR14Vq80_6-qc9pXVwi-200" target="Mzdmz-6m3bua8gfHEATt-148" edge="1">
          <mxGeometry relative="1" as="geometry" />
        </mxCell>
        <mxCell id="VxR14Vq80_6-qc9pXVwi-200" value="" style="shape=mxgraph.gcp2.doubleRect;strokeColor=#dddddd;shadow=1;strokeWidth=1;rounded=1;absoluteArcSize=1;arcSize=2;" parent="1" vertex="1">
          <mxGeometry x="400.00463768115947" y="154.84838709677422" width="187.47826086956525" height="62.516129032258064" as="geometry" />
        </mxCell>
        <mxCell id="VxR14Vq80_6-qc9pXVwi-201" value="&lt;font color=&quot;#000000&quot;&gt;User Service&lt;/font&gt;&lt;br&gt;Cloud Functions" style="editableCssRules=.*;html=1;fontColor=#999999;shape=image;verticalLabelPosition=middle;labelBackgroundColor=#ffffff;verticalAlign=middle;labelPosition=right;align=left;spacingLeft=20;part=1;points=[];imageAspect=0;image=data:image/svg+xml,PHN2ZyB4bWxucz0iaHR0cDovL3d3dy53My5vcmcvMjAwMC9zdmciIHhtbG5zOnY9Imh0dHBzOi8vdmVjdGEuaW8vbmFubyIgd2lkdGg9IjIwIiBoZWlnaHQ9IjE5Ljk4OTk5OTc3MTExODE2NCIgdmlld0JveD0iMCAwIDIwIDE5Ljk4OTk5OTc3MTExODE2NCI+JiN4YTsJPHN0eWxlIHR5cGU9InRleHQvY3NzIj4mI3hhOwkuc3Qwe2ZpbGw6IzQyODVmNDt9JiN4YTsJLnN0MXtmaWxsOiM2NjlkZjY7fSYjeGE7CS5zdDJ7ZmlsbDojYWVjYmZhO30mI3hhOwk8L3N0eWxlPiYjeGE7CTxwYXRoIGNsYXNzPSJzdDEiIGQ9Ik0zIDMuOTlMMCA2LjQydjcuMTNsMyAyLjQ0eiIvPiYjeGE7CTxwYXRoIGNsYXNzPSJzdDAiIGQ9Ik0zIDMuOTlsLTMgNCAzLTJ6bS0zIDhsMyA0di0yeiIvPiYjeGE7CTxwYXRoIGNsYXNzPSJzdDIiIGQ9Ik0wIDE1Ljk5bDQgNCAyLTItNi02em0uMDEtOEw1Ljk5IDJsLTItMkwwIDMuOTl6Ii8+JiN4YTsJPHBhdGggY2xhc3M9InN0MSIgZD0iTTE3IDE2bDMtMi40MlY2LjQ0TDE3IDR6Ii8+JiN4YTsJPHBhdGggY2xhc3M9InN0MCIgZD0iTTE3IDE2bDMtNC0zIDJ6bTMtOGwtMy00djJ6Ii8+JiN4YTsJPGcgY2xhc3M9InN0MiI+JiN4YTsJCTxwYXRoIGQ9Ik0yMCA0bC00LTQtMiAyIDYgNnptLS4wMSA4bC01Ljk4IDUuOTkgMiAyTDIwIDE2eiIvPiYjeGE7CQk8Y2lyY2xlIGN4PSI2IiBjeT0iOS45OSIgcj0iMSIvPiYjeGE7CQk8Y2lyY2xlIGN4PSIxMCIgY3k9IjkuOTkiIHI9IjEiLz4mI3hhOwkJPGNpcmNsZSBjeD0iMTMuOTkiIGN5PSI5Ljk5IiByPSIxIi8+JiN4YTsJPC9nPiYjeGE7PC9zdmc+;" parent="VxR14Vq80_6-qc9pXVwi-200" vertex="1">
          <mxGeometry width="30" height="24" relative="1" as="geometry">
            <mxPoint x="15" y="18" as="offset" />
          </mxGeometry>
        </mxCell>
        <mxCell id="VxR14Vq80_6-qc9pXVwi-223" value="" style="strokeColor=#dddddd;shadow=1;strokeWidth=1;rounded=1;absoluteArcSize=1;arcSize=2;" parent="1" vertex="1">
          <mxGeometry x="781.85" y="212.9483870967742" width="142.75" height="55.16129032258064" as="geometry" />
        </mxCell>
        <mxCell id="VxR14Vq80_6-qc9pXVwi-224" value="&lt;font color=&quot;#000000&quot;&gt;Event Sync&lt;/font&gt;&lt;br&gt;Pub/Sub" style="editableCssRules=.*;html=1;fontColor=#999999;shape=image;verticalLabelPosition=middle;labelBackgroundColor=#ffffff;verticalAlign=middle;labelPosition=right;align=left;spacingLeft=20;part=1;points=[];imageAspect=0;image=data:image/svg+xml,PHN2ZyB4bWxucz0iaHR0cDovL3d3dy53My5vcmcvMjAwMC9zdmciIHhtbG5zOnY9Imh0dHBzOi8vdmVjdGEuaW8vbmFubyIgd2lkdGg9IjE4LjMxOTk5OTY5NDgyNDIyIiBoZWlnaHQ9IjIwLjAwMDAwMTkwNzM0ODYzMyIgdmlld0JveD0iMCAwIDE4LjMxOTk5OTY5NDgyNDIyIDIwLjAwMDAwMTkwNzM0ODYzMyI+JiN4YTsJPHN0eWxlIHR5cGU9InRleHQvY3NzIj4mI3hhOwkuc3Qwe2ZpbGw6IzY2OWRmNjt9JiN4YTsJLnN0MXtmaWxsOiM0Mjg1ZjQ7fSYjeGE7CS5zdDJ7ZmlsbDojYWVjYmZhO30mI3hhOwk8L3N0eWxlPiYjeGE7CTxkZWZzPiYjeGE7CQk8ZmlsdGVyIGlkPSJBIiB4PSI0LjY0IiB5PSI0LjE5IiB3aWR0aD0iMTQuNzMiIGhlaWdodD0iMTIuNzYiIGZpbHRlclVuaXRzPSJ1c2VyU3BhY2VPblVzZSIgY29sb3ItaW50ZXJwb2xhdGlvbi1maWx0ZXJzPSJzUkdCIj4mI3hhOwkJCTxmZUZsb29kIGZsb29kLWNvbG9yPSIjZmZmIi8+JiN4YTsJCQk8ZmVCbGVuZCBpbj0iU291cmNlR3JhcGhpYyIvPiYjeGE7CQk8L2ZpbHRlcj4mI3hhOwkJPG1hc2sgaWQ9IkIiIHg9IjQuNjQiIHk9IjQuMTkiIHdpZHRoPSIxNC43MyIgaGVpZ2h0PSIxMi43NiIgbWFza1VuaXRzPSJ1c2VyU3BhY2VPblVzZSI+JiN4YTsJCQk8Y2lyY2xlIGN4PSIxMiIgY3k9IjEyLjIzIiByPSIzLjU4IiBmaWx0ZXI9InVybCgjQSkiLz4mI3hhOwkJPC9tYXNrPiYjeGE7CTwvZGVmcz4mI3hhOwk8ZyBjbGFzcz0ic3QwIj4mI3hhOwkJPGNpcmNsZSBjeD0iMTYuMTMiIGN5PSI2LjIxIiByPSIxLjcyIi8+JiN4YTsJCTxjaXJjbGUgY3g9IjIuMTkiIGN5PSI2LjIxIiByPSIxLjcyIi8+JiN4YTsJCTxjaXJjbGUgY3g9IjkuMTYiIGN5PSIxOC4yOCIgcj0iMS43MiIvPiYjeGE7CTwvZz4mI3hhOwk8ZyBtYXNrPSJ1cmwoI0IpIiB0cmFuc2Zvcm09InRyYW5zbGF0ZSgtMi44NCAtMikiPiYjeGE7CQk8cGF0aCB0cmFuc2Zvcm09Im1hdHJpeCguNSAtLjg3IC44NyAuNSAtNC41OSAyMC41MykiIGQ9Ik0xNC42OSAxMC4yMmgxLjU5djguMDRoLTEuNTl6IiBjbGFzcz0ic3QxIi8+JiN4YTsJCTxwYXRoIHRyYW5zZm9ybT0icm90YXRlKDMzMCA4LjUyMyAxNC4yNDQpIiBkPSJNNC40OSAxMy40NWg4LjA0djEuNTlINC40OXoiIGNsYXNzPSJzdDEiLz4mI3hhOwkJPHBhdGggZD0iTTExLjIgNC4xOWgxLjU5djguMDRIMTEuMnoiIGNsYXNzPSJzdDEiLz4mI3hhOwk8L2c+JiN4YTsJPGcgY2xhc3M9InN0MiI+JiN4YTsJCTxjaXJjbGUgY3g9IjkuMTYiIGN5PSIxMC4yMyIgcj0iMi43OCIvPiYjeGE7CQk8Y2lyY2xlIGN4PSIyLjE5IiBjeT0iMTQuMjUiIHI9IjIuMTkiLz4mI3hhOwkJPGNpcmNsZSBjeD0iMTYuMTMiIGN5PSIxNC4yNSIgcj0iMi4xOSIvPiYjeGE7CQk8Y2lyY2xlIGN4PSI5LjE2IiBjeT0iMi4xOSIgcj0iMi4xOSIvPiYjeGE7CTwvZz4mI3hhOzwvc3ZnPg==;" parent="VxR14Vq80_6-qc9pXVwi-223" vertex="1">
          <mxGeometry width="27" height="30" relative="1" as="geometry">
            <mxPoint x="16" y="15" as="offset" />
          </mxGeometry>
        </mxCell>
        <mxCell id="Mzdmz-6m3bua8gfHEATt-158" style="edgeStyle=orthogonalEdgeStyle;rounded=0;orthogonalLoop=1;jettySize=auto;html=1;entryX=0;entryY=0.5;entryDx=0;entryDy=0;" parent="1" source="VxR14Vq80_6-qc9pXVwi-182" target="Mzdmz-6m3bua8gfHEATt-150" edge="1">
          <mxGeometry relative="1" as="geometry" />
        </mxCell>
        <mxCell id="VxR14Vq80_6-qc9pXVwi-182" value="" style="shape=mxgraph.gcp2.doubleRect;strokeColor=#dddddd;shadow=1;strokeWidth=1;rounded=1;absoluteArcSize=1;arcSize=2;" parent="1" vertex="1">
          <mxGeometry x="426.2228985507247" y="607.0483870967741" width="154.00000000000003" height="62.516129032258064" as="geometry" />
        </mxCell>
        <mxCell id="VxR14Vq80_6-qc9pXVwi-183" value="&lt;font color=&quot;#000000&quot;&gt;AI service&lt;/font&gt;&lt;br&gt;Cloud Run" style="editableCssRules=.*;html=1;fontColor=#999999;shape=image;verticalLabelPosition=middle;labelBackgroundColor=#ffffff;verticalAlign=middle;labelPosition=right;align=left;spacingLeft=20;part=1;points=[];imageAspect=0;image=data:image/svg+xml,PHN2ZyB4bWxucz0iaHR0cDovL3d3dy53My5vcmcvMjAwMC9zdmciIHhtbG5zOnY9Imh0dHBzOi8vdmVjdGEuaW8vbmFubyIgd2lkdGg9IjM2NS40NjQ5OTY3NzA0MjQ5MyIgaGVpZ2h0PSIzNzkuMjIyOTk0NDYzNTc3OTUiIHZpZXdCb3g9IjAgMCA5Ni42OTU5OTkxNDU1MDc4MSAxMDAuMzM1OTk4NTM1MTU2MjUiPiYjeGE7PHN0eWxlIHR5cGU9InRleHQvY3NzIj4mI3hhOwkuc3Qwe2ZpbGw6IzQyODVmNDt9JiN4YTsJLnN0MXtmaWxsOiNhZWNiZmE7fSYjeGE7PC9zdHlsZT4mI3hhOwk8cGF0aCBjbGFzcz0ic3QwIiBkPSJNMjkuNzk0IDEwMC4zMzZMNDYuOTIgNTAuMTY4aDQ5Ljc3NnpNMCA5OS42NzFsMTIuOTc2LTQ5LjUwMkgyOS4yMkwxNi44OTcgOTIuMDU0eiIvPiYjeGE7CTxwYXRoIGNsYXNzPSJzdDEiIGQ9Ik0yOS43OTQgMEw0Ni45MiA1MC4xNjhoNDkuNzc2ek0wIC42NjZsMTIuOTc2IDQ5LjUwMkgyOS4yMkwxNi44OTcgOC4yODN6Ii8+JiN4YTs8L3N2Zz4=;" parent="VxR14Vq80_6-qc9pXVwi-182" vertex="1">
          <mxGeometry width="30" height="30" relative="1" as="geometry">
            <mxPoint x="15" y="15" as="offset" />
          </mxGeometry>
        </mxCell>
        <mxCell id="VxR14Vq80_6-qc9pXVwi-232" value="" style="shape=mxgraph.gcp2.doubleRect;strokeColor=#dddddd;shadow=1;strokeWidth=1;rounded=1;absoluteArcSize=1;arcSize=2;" parent="1" vertex="1">
          <mxGeometry x="973.0482608695654" y="302.5635483870968" width="179.56521739130437" height="62.516129032258064" as="geometry" />
        </mxCell>
        <mxCell id="VxR14Vq80_6-qc9pXVwi-233" value="&lt;font color=&quot;#000000&quot;&gt;Mock Payment&lt;/font&gt;&lt;br&gt;Cloud Run" style="editableCssRules=.*;html=1;fontColor=#999999;shape=image;verticalLabelPosition=middle;labelBackgroundColor=#ffffff;verticalAlign=middle;labelPosition=right;align=left;spacingLeft=20;part=1;points=[];imageAspect=0;image=data:image/svg+xml,PHN2ZyB4bWxucz0iaHR0cDovL3d3dy53My5vcmcvMjAwMC9zdmciIHhtbG5zOnY9Imh0dHBzOi8vdmVjdGEuaW8vbmFubyIgd2lkdGg9IjM2NS40NjQ5OTY3NzA0MjQ5MyIgaGVpZ2h0PSIzNzkuMjIyOTk0NDYzNTc3OTUiIHZpZXdCb3g9IjAgMCA5Ni42OTU5OTkxNDU1MDc4MSAxMDAuMzM1OTk4NTM1MTU2MjUiPiYjeGE7PHN0eWxlIHR5cGU9InRleHQvY3NzIj4mI3hhOwkuc3Qwe2ZpbGw6IzQyODVmNDt9JiN4YTsJLnN0MXtmaWxsOiNhZWNiZmE7fSYjeGE7PC9zdHlsZT4mI3hhOwk8cGF0aCBjbGFzcz0ic3QwIiBkPSJNMjkuNzk0IDEwMC4zMzZMNDYuOTIgNTAuMTY4aDQ5Ljc3NnpNMCA5OS42NzFsMTIuOTc2LTQ5LjUwMkgyOS4yMkwxNi44OTcgOTIuMDU0eiIvPiYjeGE7CTxwYXRoIGNsYXNzPSJzdDEiIGQ9Ik0yOS43OTQgMEw0Ni45MiA1MC4xNjhoNDkuNzc2ek0wIC42NjZsMTIuOTc2IDQ5LjUwMkgyOS4yMkwxNi44OTcgOC4yODN6Ii8+JiN4YTs8L3N2Zz4=;" parent="VxR14Vq80_6-qc9pXVwi-232" vertex="1">
          <mxGeometry width="30" height="30" relative="1" as="geometry">
            <mxPoint x="15" y="15" as="offset" />
          </mxGeometry>
        </mxCell>
        <mxCell id="TAQKrd1XatsUBQl1oVbd-141" value="" style="strokeColor=#dddddd;shadow=1;strokeWidth=1;rounded=1;absoluteArcSize=1;arcSize=2;" parent="1" vertex="1">
          <mxGeometry x="609.98" y="295.2032258064516" width="120" height="55.16129032258064" as="geometry" />
        </mxCell>
        <mxCell id="TAQKrd1XatsUBQl1oVbd-142" value="Cloud&#xa;Storage" style="editableCssRules=.*;html=1;fontColor=#999999;shape=image;verticalLabelPosition=middle;labelBackgroundColor=#ffffff;verticalAlign=middle;labelPosition=right;align=left;spacingLeft=20;part=1;points=[];imageAspect=0;image=data:image/svg+xml,PHN2ZyB4bWxucz0iaHR0cDovL3d3dy53My5vcmcvMjAwMC9zdmciIHhtbG5zOnY9Imh0dHBzOi8vdmVjdGEuaW8vbmFubyIgd2lkdGg9IjIwIiBoZWlnaHQ9IjE2IiB2aWV3Qm94PSIwIDAgMjAgMTYiPiYjeGE7CTxzdHlsZSB0eXBlPSJ0ZXh0L2NzcyI+JiN4YTsJLnN0MHtmaWxsOiM0Mjg1ZjQ7fSYjeGE7CS5zdDF7ZmlsbDojNjY5ZGY2O30mI3hhOwkuc3Qye2ZpbGw6I2FlY2JmYTt9JiN4YTsJLnN0M3tmaWxsOiNmZmY7fSYjeGE7CTwvc3R5bGU+JiN4YTsJPHBhdGggY2xhc3M9InN0MiIgZD0iTTAgMGgyMHY3SDB6Ii8+JiN4YTsJPHBhdGggY2xhc3M9InN0MSIgZD0iTTE4IDBoMnY3aC0yeiIvPiYjeGE7CTxwYXRoIGNsYXNzPSJzdDAiIGQ9Ik0xOCA3bDItN2gtMnoiLz4mI3hhOwk8cGF0aCBjbGFzcz0ic3QxIiBkPSJNMCAwaDJ2N0gweiIvPiYjeGE7CTxnIGNsYXNzPSJzdDMiPiYjeGE7CQk8cGF0aCBkPSJNNCAzaDZ2MUg0eiIvPiYjeGE7CQk8cmVjdCB4PSIxMyIgeT0iMiIgd2lkdGg9IjMiIGhlaWdodD0iMyIgcng9IjEuNSIvPiYjeGE7CTwvZz4mI3hhOwk8cGF0aCBjbGFzcz0ic3QyIiBkPSJNMCA5aDIwdjdIMHoiLz4mI3hhOwk8cGF0aCBjbGFzcz0ic3QxIiBkPSJNMTggOWgydjdoLTJ6Ii8+JiN4YTsJPHBhdGggY2xhc3M9InN0MCIgZD0iTTE4IDE2bDItN2gtMnoiLz4mI3hhOwk8cGF0aCBjbGFzcz0ic3QxIiBkPSJNMCA5aDJ2N0gweiIvPiYjeGE7CTxnIGNsYXNzPSJzdDMiPiYjeGE7CQk8cGF0aCBkPSJNNCAxMmg2djFINHoiLz4mI3hhOwkJPHJlY3QgeD0iMTMiIHk9IjExIiB3aWR0aD0iMyIgaGVpZ2h0PSIzIiByeD0iMS41Ii8+JiN4YTsJPC9nPiYjeGE7PC9zdmc+;" parent="TAQKrd1XatsUBQl1oVbd-141" vertex="1">
          <mxGeometry width="30" height="24" relative="1" as="geometry">
            <mxPoint x="15" y="18" as="offset" />
          </mxGeometry>
        </mxCell>
        <mxCell id="VxR14Vq80_6-qc9pXVwi-248" value="" style="strokeColor=#dddddd;shadow=1;strokeWidth=1;rounded=1;absoluteArcSize=1;arcSize=2;" parent="1" vertex="1">
          <mxGeometry x="608.2411594202898" y="367.0380645161291" width="121.73913043478262" height="55.16129032258064" as="geometry" />
        </mxCell>
        <mxCell id="VxR14Vq80_6-qc9pXVwi-249" value="Firestore" style="editableCssRules=.*;html=1;fontColor=#999999;shape=image;verticalLabelPosition=middle;labelBackgroundColor=#ffffff;verticalAlign=middle;labelPosition=right;align=left;spacingLeft=20;part=1;points=[];imageAspect=0;image=data:image/svg+xml,PHN2ZyB4bWxucz0iaHR0cDovL3d3dy53My5vcmcvMjAwMC9zdmciIHhtbG5zOnY9Imh0dHBzOi8vdmVjdGEuaW8vbmFubyIgd2lkdGg9IjMyMy45MDU2MTAzOTg2NzUxNSIgaGVpZ2h0PSIzNzYuNDIyMjk0OTYzNjg0MDciIHZpZXdCb3g9Ii0wLjA5NzAwMDAwMjg2MTAyMjk1IDAuMjg3OTk5OTg3NjAyMjMzOSA4NS42OTk5OTY5NDgyNDIxOSA5OS41OTUwMDEyMjA3MDMxMiI+JiN4YTs8c3R5bGUgdHlwZT0idGV4dC9jc3MiPiYjeGE7CS5zdDB7ZmlsbDojYWVjYmZhO30mI3hhOwkuc3Qxe2ZpbGw6IzY2OWRmNjt9JiN4YTsJLnN0MntmaWxsOiM0Mjg1ZjQ7fSYjeGE7PC9zdHlsZT4mI3hhOwk8cGF0aCBjbGFzcz0ic3QwIiBkPSJNLS4wOTcgNzUuODE1VjU1Ljg3NGw0Mi44NS0yMC4xODN2MTkuMDd6bTAtMzUuNDAzVjIwLjQ3MUw0Mi43NTMuMjg4djE5LjA3eiIvPiYjeGE7CTxwYXRoIGNsYXNzPSJzdDEiIGQ9Ik04NS42MDMgNzUuODE1VjU1Ljg3NGwtNDIuODUtMjAuMTgzdjE5LjA3em0wLTM1LjQwM1YyMC40NzFMNDIuNzUzLjI4OHYxOS4wN3oiLz4mI3hhOwk8cGF0aCBjbGFzcz0ic3QyIiBkPSJNNDIuNzUzIDgwLjMxNGwxNi4yMTctNy41MjUgMjEuMDg0IDkuNzE3LTM3LjMwMSAxNy4zNzd6Ii8+JiN4YTs8L3N2Zz4=;" parent="VxR14Vq80_6-qc9pXVwi-248" vertex="1">
          <mxGeometry width="26" height="30" relative="1" as="geometry">
            <mxPoint x="17" y="15" as="offset" />
          </mxGeometry>
        </mxCell>
        <mxCell id="VxR14Vq80_6-qc9pXVwi-245" value="" style="strokeColor=#dddddd;shadow=1;strokeWidth=1;rounded=1;absoluteArcSize=1;arcSize=2;" parent="1" vertex="1">
          <mxGeometry x="630.0011594202899" y="212.9441935483871" width="101.44927536231884" height="55.16129032258064" as="geometry" />
        </mxCell>
        <mxCell id="VxR14Vq80_6-qc9pXVwi-246" value="Cloud&#xa;SQL" style="editableCssRules=.*;html=1;fontColor=#999999;shape=image;verticalLabelPosition=middle;labelBackgroundColor=#ffffff;verticalAlign=middle;labelPosition=right;align=left;spacingLeft=20;part=1;points=[];imageAspect=0;image=data:image/svg+xml,PHN2ZyB4bWxucz0iaHR0cDovL3d3dy53My5vcmcvMjAwMC9zdmciIHhtbG5zOnY9Imh0dHBzOi8vdmVjdGEuaW8vbmFubyIgd2lkdGg9IjE0LjY1OTk5OTg0NzQxMjExIiBoZWlnaHQ9IjIwIiB2aWV3Qm94PSIwIDAgMTQuNjU5OTk5ODQ3NDEyMTEgMjAiPiYjeGE7CTxzdHlsZSB0eXBlPSJ0ZXh0L2NzcyI+JiN4YTsJLnN0MHtmaWxsOiM0Mjg1ZjQ7fSYjeGE7CS5zdDF7ZmlsbDojNjY5ZGY2O30mI3hhOwkuc3Qye2ZpbGw6I2FlY2JmYTt9JiN4YTsJPC9zdHlsZT4mI3hhOwk8c3R5bGU+JiN4YTsJCS5Ee2ZpbGwtcnVsZTpldmVub2RkfSYjeGE7CTwvc3R5bGU+JiN4YTsJPHBhdGggZD0iTTcuMzMgMTUuMzV2LTMuMDFMMCA4LjQ0djMuMDF6bTAgNC42NXYtMy4wMUwwIDEzLjA5djMuMDF6IiBjbGFzcz0ic3QyIEQiLz4mI3hhOwk8cGF0aCBkPSJNMTQuNjYgOC40NGwtNy4zMyAzLjl2My4wMWw3LjMzLTMuOXptMCA0LjY1bC03LjMzIDMuOVYyMGw3LjMzLTMuOXoiIGNsYXNzPSJzdDEgRCIvPiYjeGE7CTxwYXRoIGQ9Ik03LjMzIDB2My4wMWw3LjMzIDMuOVYzLjl6IiBjbGFzcz0ic3QwIEQiLz4mI3hhOwk8cGF0aCBkPSJNMCA2LjkxbDcuMzMtMy45VjBMMCAzLjl6IiBjbGFzcz0iRCBzdDEiLz4mI3hhOwk8cGF0aCBkPSJNNy4zMyAxMC43OVY3Ljc3TDAgMy44N3YzLjAyeiIgY2xhc3M9IkQgc3QyIi8+JiN4YTsJPHBhdGggZD0iTTE0LjY2IDMuODdsLTcuMzMgMy45djMuMDJsNy4zMy0zLjl6IiBjbGFzcz0iRCBzdDEiLz4mI3hhOzwvc3ZnPg==;" parent="VxR14Vq80_6-qc9pXVwi-245" vertex="1">
          <mxGeometry width="22" height="30" relative="1" as="geometry">
            <mxPoint x="19" y="15" as="offset" />
          </mxGeometry>
        </mxCell>
        <mxCell id="VxR14Vq80_6-qc9pXVwi-230" value="" style="shape=mxgraph.gcp2.doubleRect;strokeColor=#dddddd;shadow=1;strokeWidth=1;rounded=1;absoluteArcSize=1;arcSize=2;" parent="1" vertex="1">
          <mxGeometry x="973.0478260869565" y="471.8548387096773" width="187.47826086956525" height="62.516129032258064" as="geometry" />
        </mxCell>
        <mxCell id="VxR14Vq80_6-qc9pXVwi-231" value="&lt;font color=&quot;#000000&quot;&gt;Mail Service&lt;/font&gt;&lt;br&gt;Cloud Functions" style="editableCssRules=.*;html=1;fontColor=#999999;shape=image;verticalLabelPosition=middle;labelBackgroundColor=#ffffff;verticalAlign=middle;labelPosition=right;align=left;spacingLeft=20;part=1;points=[];imageAspect=0;image=data:image/svg+xml,PHN2ZyB4bWxucz0iaHR0cDovL3d3dy53My5vcmcvMjAwMC9zdmciIHhtbG5zOnY9Imh0dHBzOi8vdmVjdGEuaW8vbmFubyIgd2lkdGg9IjIwIiBoZWlnaHQ9IjE5Ljk4OTk5OTc3MTExODE2NCIgdmlld0JveD0iMCAwIDIwIDE5Ljk4OTk5OTc3MTExODE2NCI+JiN4YTsJPHN0eWxlIHR5cGU9InRleHQvY3NzIj4mI3hhOwkuc3Qwe2ZpbGw6IzQyODVmNDt9JiN4YTsJLnN0MXtmaWxsOiM2NjlkZjY7fSYjeGE7CS5zdDJ7ZmlsbDojYWVjYmZhO30mI3hhOwk8L3N0eWxlPiYjeGE7CTxwYXRoIGNsYXNzPSJzdDEiIGQ9Ik0zIDMuOTlMMCA2LjQydjcuMTNsMyAyLjQ0eiIvPiYjeGE7CTxwYXRoIGNsYXNzPSJzdDAiIGQ9Ik0zIDMuOTlsLTMgNCAzLTJ6bS0zIDhsMyA0di0yeiIvPiYjeGE7CTxwYXRoIGNsYXNzPSJzdDIiIGQ9Ik0wIDE1Ljk5bDQgNCAyLTItNi02em0uMDEtOEw1Ljk5IDJsLTItMkwwIDMuOTl6Ii8+JiN4YTsJPHBhdGggY2xhc3M9InN0MSIgZD0iTTE3IDE2bDMtMi40MlY2LjQ0TDE3IDR6Ii8+JiN4YTsJPHBhdGggY2xhc3M9InN0MCIgZD0iTTE3IDE2bDMtNC0zIDJ6bTMtOGwtMy00djJ6Ii8+JiN4YTsJPGcgY2xhc3M9InN0MiI+JiN4YTsJCTxwYXRoIGQ9Ik0yMCA0bC00LTQtMiAyIDYgNnptLS4wMSA4bC01Ljk4IDUuOTkgMiAyTDIwIDE2eiIvPiYjeGE7CQk8Y2lyY2xlIGN4PSI2IiBjeT0iOS45OSIgcj0iMSIvPiYjeGE7CQk8Y2lyY2xlIGN4PSIxMCIgY3k9IjkuOTkiIHI9IjEiLz4mI3hhOwkJPGNpcmNsZSBjeD0iMTMuOTkiIGN5PSI5Ljk5IiByPSIxIi8+JiN4YTsJPC9nPiYjeGE7PC9zdmc+;" parent="VxR14Vq80_6-qc9pXVwi-230" vertex="1">
          <mxGeometry width="30" height="24" relative="1" as="geometry">
            <mxPoint x="15" y="18" as="offset" />
          </mxGeometry>
        </mxCell>
        <mxCell id="Mzdmz-6m3bua8gfHEATt-146" style="edgeStyle=orthogonalEdgeStyle;rounded=0;orthogonalLoop=1;jettySize=auto;html=1;entryX=0;entryY=0.5;entryDx=0;entryDy=0;" parent="1" source="VxR14Vq80_6-qc9pXVwi-205" target="VxR14Vq80_6-qc9pXVwi-232" edge="1">
          <mxGeometry relative="1" as="geometry">
            <Array as="points">
              <mxPoint x="953" y="420" />
              <mxPoint x="953" y="334" />
            </Array>
          </mxGeometry>
        </mxCell>
        <mxCell id="Mzdmz-6m3bua8gfHEATt-147" style="edgeStyle=orthogonalEdgeStyle;rounded=0;orthogonalLoop=1;jettySize=auto;html=1;entryX=0;entryY=0.5;entryDx=0;entryDy=0;" parent="1" source="VxR14Vq80_6-qc9pXVwi-205" target="VxR14Vq80_6-qc9pXVwi-230" edge="1">
          <mxGeometry relative="1" as="geometry">
            <Array as="points">
              <mxPoint x="953" y="420" />
              <mxPoint x="953" y="503" />
            </Array>
          </mxGeometry>
        </mxCell>
        <mxCell id="VxR14Vq80_6-qc9pXVwi-205" value="" style="strokeColor=#dddddd;shadow=1;strokeWidth=1;rounded=1;absoluteArcSize=1;arcSize=2;" parent="1" vertex="1">
          <mxGeometry x="766.9963768115942" y="391.88903225806456" width="172.46376811594203" height="55.16129032258064" as="geometry" />
        </mxCell>
        <mxCell id="VxR14Vq80_6-qc9pXVwi-206" value="&lt;font color=&quot;#000000&quot;&gt;Message Queue&lt;/font&gt;&lt;br&gt;Pub/Sub" style="editableCssRules=.*;html=1;fontColor=#999999;shape=image;verticalLabelPosition=middle;labelBackgroundColor=#ffffff;verticalAlign=middle;labelPosition=right;align=left;spacingLeft=20;part=1;points=[];imageAspect=0;image=data:image/svg+xml,PHN2ZyB4bWxucz0iaHR0cDovL3d3dy53My5vcmcvMjAwMC9zdmciIHhtbG5zOnY9Imh0dHBzOi8vdmVjdGEuaW8vbmFubyIgd2lkdGg9IjE4LjMxOTk5OTY5NDgyNDIyIiBoZWlnaHQ9IjIwLjAwMDAwMTkwNzM0ODYzMyIgdmlld0JveD0iMCAwIDE4LjMxOTk5OTY5NDgyNDIyIDIwLjAwMDAwMTkwNzM0ODYzMyI+JiN4YTsJPHN0eWxlIHR5cGU9InRleHQvY3NzIj4mI3hhOwkuc3Qwe2ZpbGw6IzY2OWRmNjt9JiN4YTsJLnN0MXtmaWxsOiM0Mjg1ZjQ7fSYjeGE7CS5zdDJ7ZmlsbDojYWVjYmZhO30mI3hhOwk8L3N0eWxlPiYjeGE7CTxkZWZzPiYjeGE7CQk8ZmlsdGVyIGlkPSJBIiB4PSI0LjY0IiB5PSI0LjE5IiB3aWR0aD0iMTQuNzMiIGhlaWdodD0iMTIuNzYiIGZpbHRlclVuaXRzPSJ1c2VyU3BhY2VPblVzZSIgY29sb3ItaW50ZXJwb2xhdGlvbi1maWx0ZXJzPSJzUkdCIj4mI3hhOwkJCTxmZUZsb29kIGZsb29kLWNvbG9yPSIjZmZmIi8+JiN4YTsJCQk8ZmVCbGVuZCBpbj0iU291cmNlR3JhcGhpYyIvPiYjeGE7CQk8L2ZpbHRlcj4mI3hhOwkJPG1hc2sgaWQ9IkIiIHg9IjQuNjQiIHk9IjQuMTkiIHdpZHRoPSIxNC43MyIgaGVpZ2h0PSIxMi43NiIgbWFza1VuaXRzPSJ1c2VyU3BhY2VPblVzZSI+JiN4YTsJCQk8Y2lyY2xlIGN4PSIxMiIgY3k9IjEyLjIzIiByPSIzLjU4IiBmaWx0ZXI9InVybCgjQSkiLz4mI3hhOwkJPC9tYXNrPiYjeGE7CTwvZGVmcz4mI3hhOwk8ZyBjbGFzcz0ic3QwIj4mI3hhOwkJPGNpcmNsZSBjeD0iMTYuMTMiIGN5PSI2LjIxIiByPSIxLjcyIi8+JiN4YTsJCTxjaXJjbGUgY3g9IjIuMTkiIGN5PSI2LjIxIiByPSIxLjcyIi8+JiN4YTsJCTxjaXJjbGUgY3g9IjkuMTYiIGN5PSIxOC4yOCIgcj0iMS43MiIvPiYjeGE7CTwvZz4mI3hhOwk8ZyBtYXNrPSJ1cmwoI0IpIiB0cmFuc2Zvcm09InRyYW5zbGF0ZSgtMi44NCAtMikiPiYjeGE7CQk8cGF0aCB0cmFuc2Zvcm09Im1hdHJpeCguNSAtLjg3IC44NyAuNSAtNC41OSAyMC41MykiIGQ9Ik0xNC42OSAxMC4yMmgxLjU5djguMDRoLTEuNTl6IiBjbGFzcz0ic3QxIi8+JiN4YTsJCTxwYXRoIHRyYW5zZm9ybT0icm90YXRlKDMzMCA4LjUyMyAxNC4yNDQpIiBkPSJNNC40OSAxMy40NWg4LjA0djEuNTlINC40OXoiIGNsYXNzPSJzdDEiLz4mI3hhOwkJPHBhdGggZD0iTTExLjIgNC4xOWgxLjU5djguMDRIMTEuMnoiIGNsYXNzPSJzdDEiLz4mI3hhOwk8L2c+JiN4YTsJPGcgY2xhc3M9InN0MiI+JiN4YTsJCTxjaXJjbGUgY3g9IjkuMTYiIGN5PSIxMC4yMyIgcj0iMi43OCIvPiYjeGE7CQk8Y2lyY2xlIGN4PSIyLjE5IiBjeT0iMTQuMjUiIHI9IjIuMTkiLz4mI3hhOwkJPGNpcmNsZSBjeD0iMTYuMTMiIGN5PSIxNC4yNSIgcj0iMi4xOSIvPiYjeGE7CQk8Y2lyY2xlIGN4PSI5LjE2IiBjeT0iMi4xOSIgcj0iMi4xOSIvPiYjeGE7CTwvZz4mI3hhOzwvc3ZnPg==;" parent="VxR14Vq80_6-qc9pXVwi-205" vertex="1">
          <mxGeometry width="27" height="30" relative="1" as="geometry">
            <mxPoint x="16" y="15" as="offset" />
          </mxGeometry>
        </mxCell>
        <mxCell id="Mzdmz-6m3bua8gfHEATt-161" style="edgeStyle=orthogonalEdgeStyle;rounded=0;orthogonalLoop=1;jettySize=auto;html=1;exitX=0.5;exitY=0;exitDx=0;exitDy=0;entryX=0;entryY=0.5;entryDx=0;entryDy=0;" parent="1" edge="1">
          <mxGeometry relative="1" as="geometry">
            <mxPoint x="350.48" y="326.10999999999996" as="sourcePoint" />
            <mxPoint x="404.00463768115947" y="186.1064516129032" as="targetPoint" />
            <Array as="points">
              <mxPoint x="351" y="186.05" />
            </Array>
          </mxGeometry>
        </mxCell>
        <mxCell id="Mzdmz-6m3bua8gfHEATt-163" style="edgeStyle=orthogonalEdgeStyle;rounded=0;orthogonalLoop=1;jettySize=auto;html=1;entryX=0;entryY=0.5;entryDx=0;entryDy=0;" parent="1" source="Mzdmz-6m3bua8gfHEATt-139" target="Mzdmz-6m3bua8gfHEATt-144" edge="1">
          <mxGeometry relative="1" as="geometry">
            <Array as="points">
              <mxPoint x="350" y="269.05" />
              <mxPoint x="412" y="269.05" />
            </Array>
          </mxGeometry>
        </mxCell>
        <mxCell id="Mzdmz-6m3bua8gfHEATt-165" style="edgeStyle=orthogonalEdgeStyle;rounded=0;orthogonalLoop=1;jettySize=auto;html=1;entryX=0;entryY=0.5;entryDx=0;entryDy=0;" parent="1" source="Mzdmz-6m3bua8gfHEATt-139" target="StyOjbkptv3va4ijd22D-141" edge="1">
          <mxGeometry relative="1" as="geometry">
            <Array as="points">
              <mxPoint x="347" y="450.05" />
              <mxPoint x="430" y="450.05" />
            </Array>
          </mxGeometry>
        </mxCell>
        <mxCell id="Mzdmz-6m3bua8gfHEATt-166" style="edgeStyle=orthogonalEdgeStyle;rounded=0;orthogonalLoop=1;jettySize=auto;html=1;entryX=0;entryY=0.5;entryDx=0;entryDy=0;" parent="1" source="Mzdmz-6m3bua8gfHEATt-139" target="VxR14Vq80_6-qc9pXVwi-179" edge="1">
          <mxGeometry relative="1" as="geometry">
            <Array as="points">
              <mxPoint x="347" y="437.05" />
              <mxPoint x="347" y="437.05" />
              <mxPoint x="347" y="534.05" />
            </Array>
          </mxGeometry>
        </mxCell>
        <mxCell id="Mzdmz-6m3bua8gfHEATt-139" value="" style="strokeColor=#dddddd;shadow=1;strokeWidth=1;rounded=1;absoluteArcSize=1;arcSize=2;" parent="1" vertex="1">
          <mxGeometry x="281.48" y="326.11" width="130" height="44" as="geometry" />
        </mxCell>
        <mxCell id="Mzdmz-6m3bua8gfHEATt-140" value="HTTPS&#xa;Load Balancer" style="sketch=0;dashed=0;connectable=0;html=1;fillColor=#757575;strokeColor=none;shape=mxgraph.gcp2.network_load_balancer;part=1;labelPosition=right;verticalLabelPosition=middle;align=left;verticalAlign=middle;spacingLeft=5;fontSize=12;" parent="Mzdmz-6m3bua8gfHEATt-139" vertex="1">
          <mxGeometry y="0.5" width="32" height="32" relative="1" as="geometry">
            <mxPoint x="5" y="-16" as="offset" />
          </mxGeometry>
        </mxCell>
        <mxCell id="Mzdmz-6m3bua8gfHEATt-153" style="edgeStyle=orthogonalEdgeStyle;rounded=0;orthogonalLoop=1;jettySize=auto;html=1;entryX=0;entryY=0.5;entryDx=0;entryDy=0;" parent="1" source="Mzdmz-6m3bua8gfHEATt-144" target="VxR14Vq80_6-qc9pXVwi-245" edge="1">
          <mxGeometry relative="1" as="geometry" />
        </mxCell>
        <mxCell id="Mzdmz-6m3bua8gfHEATt-168" style="edgeStyle=orthogonalEdgeStyle;rounded=0;orthogonalLoop=1;jettySize=auto;html=1;entryX=0.25;entryY=0;entryDx=0;entryDy=0;" parent="1" source="Mzdmz-6m3bua8gfHEATt-144" target="VxR14Vq80_6-qc9pXVwi-225" edge="1">
          <mxGeometry relative="1" as="geometry">
            <Array as="points">
              <mxPoint x="470" y="320.05" />
              <mxPoint x="471" y="320.05" />
            </Array>
          </mxGeometry>
        </mxCell>
        <mxCell id="Mzdmz-6m3bua8gfHEATt-144" value="" style="shape=mxgraph.gcp2.doubleRect;strokeColor=#dddddd;shadow=1;strokeWidth=1;rounded=1;absoluteArcSize=1;arcSize=2;" parent="1" vertex="1">
          <mxGeometry x="432.18000000000006" y="237.36290322580646" width="154.00000000000003" height="62.516129032258064" as="geometry" />
        </mxCell>
        <mxCell id="Mzdmz-6m3bua8gfHEATt-145" value="&lt;font style=&quot;border-color: var(--border-color);&quot; color=&quot;#000000&quot;&gt;Order Service&lt;br&gt;&lt;/font&gt;Cloud Run" style="editableCssRules=.*;html=1;fontColor=#999999;shape=image;verticalLabelPosition=middle;labelBackgroundColor=#ffffff;verticalAlign=middle;labelPosition=right;align=left;spacingLeft=20;part=1;points=[];imageAspect=0;image=data:image/svg+xml,PHN2ZyB4bWxucz0iaHR0cDovL3d3dy53My5vcmcvMjAwMC9zdmciIHhtbG5zOnY9Imh0dHBzOi8vdmVjdGEuaW8vbmFubyIgd2lkdGg9IjM2NS40NjQ5OTY3NzA0MjQ5MyIgaGVpZ2h0PSIzNzkuMjIyOTk0NDYzNTc3OTUiIHZpZXdCb3g9IjAgMCA5Ni42OTU5OTkxNDU1MDc4MSAxMDAuMzM1OTk4NTM1MTU2MjUiPiYjeGE7PHN0eWxlIHR5cGU9InRleHQvY3NzIj4mI3hhOwkuc3Qwe2ZpbGw6IzQyODVmNDt9JiN4YTsJLnN0MXtmaWxsOiNhZWNiZmE7fSYjeGE7PC9zdHlsZT4mI3hhOwk8cGF0aCBjbGFzcz0ic3QwIiBkPSJNMjkuNzk0IDEwMC4zMzZMNDYuOTIgNTAuMTY4aDQ5Ljc3NnpNMCA5OS42NzFsMTIuOTc2LTQ5LjUwMkgyOS4yMkwxNi44OTcgOTIuMDU0eiIvPiYjeGE7CTxwYXRoIGNsYXNzPSJzdDEiIGQ9Ik0yOS43OTQgMEw0Ni45MiA1MC4xNjhoNDkuNzc2ek0wIC42NjZsMTIuOTc2IDQ5LjUwMkgyOS4yMkwxNi44OTcgOC4yODN6Ii8+JiN4YTs8L3N2Zz4=;" parent="Mzdmz-6m3bua8gfHEATt-144" vertex="1">
          <mxGeometry width="30" height="30" relative="1" as="geometry">
            <mxPoint x="15" y="15" as="offset" />
          </mxGeometry>
        </mxCell>
        <mxCell id="Mzdmz-6m3bua8gfHEATt-148" value="" style="strokeColor=#dddddd;shadow=1;strokeWidth=1;rounded=1;absoluteArcSize=1;arcSize=2;" parent="1" vertex="1">
          <mxGeometry x="630.0011594202898" y="145.1980645161291" width="121.73913043478262" height="55.16129032258064" as="geometry" />
        </mxCell>
        <mxCell id="Mzdmz-6m3bua8gfHEATt-149" value="Firestore" style="editableCssRules=.*;html=1;fontColor=#999999;shape=image;verticalLabelPosition=middle;labelBackgroundColor=#ffffff;verticalAlign=middle;labelPosition=right;align=left;spacingLeft=20;part=1;points=[];imageAspect=0;image=data:image/svg+xml,PHN2ZyB4bWxucz0iaHR0cDovL3d3dy53My5vcmcvMjAwMC9zdmciIHhtbG5zOnY9Imh0dHBzOi8vdmVjdGEuaW8vbmFubyIgd2lkdGg9IjMyMy45MDU2MTAzOTg2NzUxNSIgaGVpZ2h0PSIzNzYuNDIyMjk0OTYzNjg0MDciIHZpZXdCb3g9Ii0wLjA5NzAwMDAwMjg2MTAyMjk1IDAuMjg3OTk5OTg3NjAyMjMzOSA4NS42OTk5OTY5NDgyNDIxOSA5OS41OTUwMDEyMjA3MDMxMiI+JiN4YTs8c3R5bGUgdHlwZT0idGV4dC9jc3MiPiYjeGE7CS5zdDB7ZmlsbDojYWVjYmZhO30mI3hhOwkuc3Qxe2ZpbGw6IzY2OWRmNjt9JiN4YTsJLnN0MntmaWxsOiM0Mjg1ZjQ7fSYjeGE7PC9zdHlsZT4mI3hhOwk8cGF0aCBjbGFzcz0ic3QwIiBkPSJNLS4wOTcgNzUuODE1VjU1Ljg3NGw0Mi44NS0yMC4xODN2MTkuMDd6bTAtMzUuNDAzVjIwLjQ3MUw0Mi43NTMuMjg4djE5LjA3eiIvPiYjeGE7CTxwYXRoIGNsYXNzPSJzdDEiIGQ9Ik04NS42MDMgNzUuODE1VjU1Ljg3NGwtNDIuODUtMjAuMTgzdjE5LjA3em0wLTM1LjQwM1YyMC40NzFMNDIuNzUzLjI4OHYxOS4wN3oiLz4mI3hhOwk8cGF0aCBjbGFzcz0ic3QyIiBkPSJNNDIuNzUzIDgwLjMxNGwxNi4yMTctNy41MjUgMjEuMDg0IDkuNzE3LTM3LjMwMSAxNy4zNzd6Ii8+JiN4YTs8L3N2Zz4=;" parent="Mzdmz-6m3bua8gfHEATt-148" vertex="1">
          <mxGeometry width="26" height="30" relative="1" as="geometry">
            <mxPoint x="17" y="15" as="offset" />
          </mxGeometry>
        </mxCell>
        <mxCell id="Mzdmz-6m3bua8gfHEATt-150" value="" style="strokeColor=#dddddd;shadow=1;strokeWidth=1;rounded=1;absoluteArcSize=1;arcSize=2;" parent="1" vertex="1">
          <mxGeometry x="609.7111594202898" y="610.728064516129" width="121.73913043478262" height="55.16129032258064" as="geometry" />
        </mxCell>
        <mxCell id="Mzdmz-6m3bua8gfHEATt-151" value="Firestore" style="editableCssRules=.*;html=1;fontColor=#999999;shape=image;verticalLabelPosition=middle;labelBackgroundColor=#ffffff;verticalAlign=middle;labelPosition=right;align=left;spacingLeft=20;part=1;points=[];imageAspect=0;image=data:image/svg+xml,PHN2ZyB4bWxucz0iaHR0cDovL3d3dy53My5vcmcvMjAwMC9zdmciIHhtbG5zOnY9Imh0dHBzOi8vdmVjdGEuaW8vbmFubyIgd2lkdGg9IjMyMy45MDU2MTAzOTg2NzUxNSIgaGVpZ2h0PSIzNzYuNDIyMjk0OTYzNjg0MDciIHZpZXdCb3g9Ii0wLjA5NzAwMDAwMjg2MTAyMjk1IDAuMjg3OTk5OTg3NjAyMjMzOSA4NS42OTk5OTY5NDgyNDIxOSA5OS41OTUwMDEyMjA3MDMxMiI+JiN4YTs8c3R5bGUgdHlwZT0idGV4dC9jc3MiPiYjeGE7CS5zdDB7ZmlsbDojYWVjYmZhO30mI3hhOwkuc3Qxe2ZpbGw6IzY2OWRmNjt9JiN4YTsJLnN0MntmaWxsOiM0Mjg1ZjQ7fSYjeGE7PC9zdHlsZT4mI3hhOwk8cGF0aCBjbGFzcz0ic3QwIiBkPSJNLS4wOTcgNzUuODE1VjU1Ljg3NGw0Mi44NS0yMC4xODN2MTkuMDd6bTAtMzUuNDAzVjIwLjQ3MUw0Mi43NTMuMjg4djE5LjA3eiIvPiYjeGE7CTxwYXRoIGNsYXNzPSJzdDEiIGQ9Ik04NS42MDMgNzUuODE1VjU1Ljg3NGwtNDIuODUtMjAuMTgzdjE5LjA3em0wLTM1LjQwM1YyMC40NzFMNDIuNzUzLjI4OHYxOS4wN3oiLz4mI3hhOwk8cGF0aCBjbGFzcz0ic3QyIiBkPSJNNDIuNzUzIDgwLjMxNGwxNi4yMTctNy41MjUgMjEuMDg0IDkuNzE3LTM3LjMwMSAxNy4zNzd6Ii8+JiN4YTs8L3N2Zz4=;" parent="Mzdmz-6m3bua8gfHEATt-150" vertex="1">
          <mxGeometry width="26" height="30" relative="1" as="geometry">
            <mxPoint x="17" y="15" as="offset" />
          </mxGeometry>
        </mxCell>
        <mxCell id="Mzdmz-6m3bua8gfHEATt-155" style="edgeStyle=orthogonalEdgeStyle;rounded=0;orthogonalLoop=1;jettySize=auto;html=1;entryX=0.009;entryY=0.402;entryDx=0;entryDy=0;entryPerimeter=0;" parent="1" source="VxR14Vq80_6-qc9pXVwi-225" target="TAQKrd1XatsUBQl1oVbd-141" edge="1">
          <mxGeometry relative="1" as="geometry">
            <Array as="points">
              <mxPoint x="509" y="317.05" />
              <mxPoint x="604" y="317.05" />
            </Array>
          </mxGeometry>
        </mxCell>
        <mxCell id="Mzdmz-6m3bua8gfHEATt-156" style="edgeStyle=orthogonalEdgeStyle;rounded=0;orthogonalLoop=1;jettySize=auto;html=1;entryX=-0.016;entryY=0.526;entryDx=0;entryDy=0;entryPerimeter=0;" parent="1" source="VxR14Vq80_6-qc9pXVwi-225" target="VxR14Vq80_6-qc9pXVwi-248" edge="1">
          <mxGeometry relative="1" as="geometry">
            <Array as="points">
              <mxPoint x="509" y="397.05" />
              <mxPoint x="600" y="397.05" />
              <mxPoint x="600" y="396.05" />
            </Array>
          </mxGeometry>
        </mxCell>
        <mxCell id="Mzdmz-6m3bua8gfHEATt-157" style="edgeStyle=orthogonalEdgeStyle;rounded=0;orthogonalLoop=1;jettySize=auto;html=1;exitX=0.5;exitY=1;exitDx=0;exitDy=0;entryX=0.538;entryY=0.058;entryDx=0;entryDy=0;entryPerimeter=0;" parent="1" source="VxR14Vq80_6-qc9pXVwi-179" target="VxR14Vq80_6-qc9pXVwi-182" edge="1">
          <mxGeometry relative="1" as="geometry" />
        </mxCell>
        <mxCell id="Mzdmz-6m3bua8gfHEATt-164" style="edgeStyle=orthogonalEdgeStyle;rounded=0;orthogonalLoop=1;jettySize=auto;html=1;entryX=0.037;entryY=0.544;entryDx=0;entryDy=0;entryPerimeter=0;" parent="1" source="Mzdmz-6m3bua8gfHEATt-139" target="VxR14Vq80_6-qc9pXVwi-225" edge="1">
          <mxGeometry relative="1" as="geometry">
            <Array as="points">
              <mxPoint x="432" y="361.05" />
            </Array>
          </mxGeometry>
        </mxCell>
        <mxCell id="Mzdmz-6m3bua8gfHEATt-167" style="edgeStyle=orthogonalEdgeStyle;rounded=0;orthogonalLoop=1;jettySize=auto;html=1;entryX=0.428;entryY=0.139;entryDx=0;entryDy=0;entryPerimeter=0;" parent="1" source="VxR14Vq80_6-qc9pXVwi-200" target="Mzdmz-6m3bua8gfHEATt-144" edge="1">
          <mxGeometry relative="1" as="geometry">
            <Array as="points">
              <mxPoint x="498" y="227.05" />
              <mxPoint x="498" y="227.05" />
            </Array>
          </mxGeometry>
        </mxCell>
        <mxCell id="Mzdmz-6m3bua8gfHEATt-177" value="" style="endArrow=classic;startArrow=classic;html=1;rounded=0;entryX=0.551;entryY=1.063;entryDx=0;entryDy=0;entryPerimeter=0;exitX=1.001;exitY=0.717;exitDx=0;exitDy=0;exitPerimeter=0;" parent="1" source="Mzdmz-6m3bua8gfHEATt-170" target="VxR14Vq80_6-qc9pXVwi-205" edge="1">
          <mxGeometry width="50" height="50" relative="1" as="geometry">
            <mxPoint x="807" y="581" as="sourcePoint" />
            <mxPoint x="857" y="531" as="targetPoint" />
          </mxGeometry>
        </mxCell>
        <mxCell id="Mzdmz-6m3bua8gfHEATt-178" value="" style="endArrow=classic;startArrow=classic;html=1;rounded=0;entryX=0.549;entryY=1.013;entryDx=0;entryDy=0;entryPerimeter=0;exitX=0.999;exitY=0.441;exitDx=0;exitDy=0;exitPerimeter=0;" parent="1" source="Mzdmz-6m3bua8gfHEATt-170" target="VxR14Vq80_6-qc9pXVwi-223" edge="1">
          <mxGeometry width="50" height="50" relative="1" as="geometry">
            <mxPoint x="777" y="367.03999999999996" as="sourcePoint" />
            <mxPoint x="879" y="299.03999999999996" as="targetPoint" />
          </mxGeometry>
        </mxCell>
        <mxCell id="0oO7P-rnS31lydjLmnYO-139" style="edgeStyle=orthogonalEdgeStyle;rounded=0;orthogonalLoop=1;jettySize=auto;html=1;exitX=0.5;exitY=1;exitDx=0;exitDy=0;entryX=0.5;entryY=0;entryDx=0;entryDy=0;entryPerimeter=0;" edge="1" parent="1" source="ANfDOpSylxRKEM2ptjQJ-154" target="Mzdmz-6m3bua8gfHEATt-170">
          <mxGeometry relative="1" as="geometry" />
        </mxCell>
        <mxCell id="0oO7P-rnS31lydjLmnYO-140" value="" style="strokeColor=#dddddd;shadow=1;strokeWidth=1;rounded=1;absoluteArcSize=1;arcSize=2;" vertex="1" parent="1">
          <mxGeometry x="305.61" y="736.5" width="120" height="60" as="geometry" />
        </mxCell>
        <mxCell id="0oO7P-rnS31lydjLmnYO-141" value="Logging" style="editableCssRules=.*;html=1;fontColor=#999999;shape=image;verticalLabelPosition=middle;labelBackgroundColor=#ffffff;verticalAlign=middle;labelPosition=right;align=left;spacingLeft=20;part=1;points=[];imageAspect=0;image=data:image/svg+xml,PHN2ZyB4bWxucz0iaHR0cDovL3d3dy53My5vcmcvMjAwMC9zdmciIHhtbG5zOnY9Imh0dHBzOi8vdmVjdGEuaW8vbmFubyIgd2lkdGg9IjIwIiBoZWlnaHQ9IjE5IiB2aWV3Qm94PSIwIDAgMjAgMTkiPiYjeGE7CTxzdHlsZSB0eXBlPSJ0ZXh0L2NzcyI+JiN4YTsJLnN0MHtmaWxsOiM0Mjg1ZjQ7fSYjeGE7CS5zdDF7ZmlsbDojNjY5ZGY2O30mI3hhOwkuc3Qye2ZpbGw6I2FlY2JmYTt9JiN4YTsJPC9zdHlsZT4mI3hhOwk8ZyBjbGFzcz0ic3QwIj4mI3hhOwkJPHBhdGggZD0iTTQgOWg0djJINHptLTIgN2g2djJIMnoiLz4mI3hhOwkJPHBhdGggZD0iTTQgNEgydjEyaDJ6Ii8+JiN4YTsJPC9nPiYjeGE7CTxwYXRoIGNsYXNzPSJzdDEiIGQ9Ik0yMCAxSDd2NGgxM3ptMCA3SDd2NGgxM3ptMCA3SDd2NGgxM3oiLz4mI3hhOwk8cGF0aCBjbGFzcz0ic3QyIiBkPSJNNiAwSDB2Nmg2eiIvPiYjeGE7PC9zdmc+;" vertex="1" parent="0oO7P-rnS31lydjLmnYO-140">
          <mxGeometry width="30" height="28" relative="1" as="geometry">
            <mxPoint x="15" y="16" as="offset" />
          </mxGeometry>
        </mxCell>
        <mxCell id="0oO7P-rnS31lydjLmnYO-142" value="" style="strokeColor=#dddddd;shadow=1;strokeWidth=1;rounded=1;absoluteArcSize=1;arcSize=2;" vertex="1" parent="1">
          <mxGeometry x="442.87" y="736.5" width="130" height="60" as="geometry" />
        </mxCell>
        <mxCell id="0oO7P-rnS31lydjLmnYO-143" value="Monitoring" style="editableCssRules=.*;html=1;fontColor=#999999;shape=image;verticalLabelPosition=middle;labelBackgroundColor=#ffffff;verticalAlign=middle;labelPosition=right;align=left;spacingLeft=20;part=1;points=[];imageAspect=0;image=data:image/svg+xml,PHN2ZyB4bWxucz0iaHR0cDovL3d3dy53My5vcmcvMjAwMC9zdmciIHhtbG5zOnY9Imh0dHBzOi8vdmVjdGEuaW8vbmFubyIgd2lkdGg9IjIwIiBoZWlnaHQ9IjEzLjUyOTk5OTczMjk3MTE5MSIgdmlld0JveD0iLTIuOTMyMDk3ODk3ODEyMDE0ZS05IC01LjI1ODAxNTA0MTgzNzk1NmUtMTUgMjAgMTMuNTI5OTk5NzMyOTcxMTkxIj4mI3hhOwk8c3R5bGUgdHlwZT0idGV4dC9jc3MiPiYjeGE7CS5zdDB7ZmlsbDojNDI4NWY0O30mI3hhOwkuc3Qxe2ZpbGw6IzY2OWRmNjt9JiN4YTsJPC9zdHlsZT4mI3hhOwk8cGF0aCBjbGFzcz0ic3QxIiBkPSJNOC44MyAxMC41OGgyLjMzdjIuNjRIOC44M3oiLz4mI3hhOwk8cGF0aCBjbGFzcz0ic3QwIiBkPSJNMTYuNDggOC42MWEuNTYuNTYgMCAwIDEtLjQtLjE3TDEyIDQuMjEgOS4yNiA3LjFhLjU3LjU3IDAgMCAxLS43Ni4wNUw2LjQyIDUuNDdsLTIuMiAyLjkyYS41Ni41NiAwIDAgMS0uNDUuMjJIMHYxLjcxYS43NS43NSAwIDAgMCAuNzQuNzVoMTguNTJhLjc1Ljc1IDAgMCAwIC43NC0uNzVWOC42MXoiLz4mI3hhOwk8cGF0aCBjbGFzcz0ic3QxIiBkPSJNMy41IDcuNWwyLjM4LTMuMTZhLjU1LjU1IDAgMCAxIC4zNy0uMjIuNjMuNjMgMCAwIDEgLjQyLjEybDIuMTIgMS43MiAyLjgtMi45NGEuNTQuNTQgMCAwIDEgLjQtLjE3aDBhLjU0LjU0IDAgMCAxIC40LjE3bDQuMzMgNC40OEgyMFYuNzRhLjc0Ljc0IDAgMCAwLS43NC0uNzRILjc0QS43NC43NCAwIDAgMCAwIC43NHY2LjgxeiIvPiYjeGE7CTxyZWN0IGNsYXNzPSJzdDAiIHg9IjYuNjciIHk9IjEyLjkyIiB3aWR0aD0iNi42NyIgaGVpZ2h0PSIuNjEiIHJ4PSIuMyIvPiYjeGE7PC9zdmc+;" vertex="1" parent="0oO7P-rnS31lydjLmnYO-142">
          <mxGeometry width="30" height="21" relative="1" as="geometry">
            <mxPoint x="15" y="19" as="offset" />
          </mxGeometry>
        </mxCell>
        <mxCell id="0oO7P-rnS31lydjLmnYO-144" value="" style="strokeColor=#dddddd;shadow=1;strokeWidth=1;rounded=1;absoluteArcSize=1;arcSize=2;" vertex="1" parent="1">
          <mxGeometry x="594.3499999999999" y="736.5" width="129.85" height="60" as="geometry" />
        </mxCell>
        <mxCell id="0oO7P-rnS31lydjLmnYO-145" value="Artifact&#xa;Registry" style="editableCssRules=.*;html=1;fontColor=#999999;shape=image;verticalLabelPosition=middle;labelBackgroundColor=#ffffff;verticalAlign=middle;labelPosition=right;align=left;spacingLeft=20;part=1;points=[];imageAspect=0;image=data:image/svg+xml,PHN2ZyB4bWxucz0iaHR0cDovL3d3dy53My5vcmcvMjAwMC9zdmciIHhtbG5zOnY9Imh0dHBzOi8vdmVjdGEuaW8vbmFubyIgd2lkdGg9IjIxLjk5OTAwMDU0OTMxNjQwNiIgaGVpZ2h0PSIyMC4zOTM5OTkwOTk3MzE0NDUiIHZpZXdCb3g9IjAgMCAyMS45OTkwMDA1NDkzMTY0MDYgMjAuMzkzOTk5MDk5NzMxNDQ1Ij4mI3hhOwk8c3R5bGUgdHlwZT0idGV4dC9jc3MiPiYjeGE7CS5zdDB7ZmlsbDojNDI4NWY0O2ZpbGwtcnVsZTpldmVub2RkfSYjeGE7CTwvc3R5bGU+JiN4YTsJPHBhdGggY2xhc3M9InN0MCIgZD0iTTUgMHYyLjQ1OEwxLjk5OSA0LjE5N3YxMi4wMUw1IDE3LjkzOHYyLjQ1NmwtNS0yLjg4N1YyLjg4NnptMTIgMGw0Ljk5OSAyLjg4NnYxNC42MjFMMTcgMjAuMzk0di0yLjQ1NmwzLTEuNzMxVjQuMTk3bC0zLTEuNzM5em0tNi4wMTYgNi42NzNsMi45NDctMS42NDYtMi45NDctMS42NDYtMi45NDcgMS42NDZ6bTMuMjY4LTEuMDk2bC0yLjg3MSAxLjY3OHYzLjI4N2wyLjg3MS0xLjY3NnpNNy43NzMgOC44NjZsMi44NzEgMS42NzRWNy4yNTZMNy43NzMgNS41Nzd6bS0uMjEyIDMuODc4bDIuODItMS42NDYtMi44Mi0xLjY0Ni0yLjgyIDEuNjQ2em0zLjEzMi0xLjA5OGwtMi44NzEgMS42Nzh2My4yODdsMi44NzEtMS42NzZ6bS02LjI2NCAzLjI4OUw3LjMgMTYuNjA5di0zLjI4NWwtMi44NzEtMS42Nzl6bTEwLjAyOS0yLjE5MWwyLjgyLTEuNjQ2LTIuODItMS42NDYtMi44MiAxLjY0NnptMy4xMzItMS4wOThsLTIuODcxIDEuNjc4djMuMjg3bDIuODcxLTEuNjc2em0tNi4yNjQgMy4yODlsMi44NzEgMS42NzR2LTMuMjg1bC0yLjg3MS0xLjY3OXoiLz4mI3hhOzwvc3ZnPg==;" vertex="1" parent="0oO7P-rnS31lydjLmnYO-144">
          <mxGeometry width="30" height="27" relative="1" as="geometry">
            <mxPoint x="15" y="16" as="offset" />
          </mxGeometry>
        </mxCell>
        <mxCell id="0oO7P-rnS31lydjLmnYO-147" style="edgeStyle=orthogonalEdgeStyle;rounded=0;orthogonalLoop=1;jettySize=auto;html=1;entryX=0.502;entryY=0.996;entryDx=0;entryDy=0;entryPerimeter=0;" edge="1" parent="1" source="0oO7P-rnS31lydjLmnYO-146" target="Mzdmz-6m3bua8gfHEATt-170">
          <mxGeometry relative="1" as="geometry" />
        </mxCell>
        <mxCell id="0oO7P-rnS31lydjLmnYO-152" value="" style="strokeColor=#dddddd;shadow=1;strokeWidth=1;rounded=1;absoluteArcSize=1;arcSize=2;" vertex="1" parent="1">
          <mxGeometry x="781.85" y="26.78" width="133" height="58.74" as="geometry" />
        </mxCell>
        <mxCell id="0oO7P-rnS31lydjLmnYO-153" value="Scheduler" style="editableCssRules=.*;html=1;fontColor=#999999;shape=image;verticalLabelPosition=middle;labelBackgroundColor=#ffffff;verticalAlign=middle;labelPosition=right;align=left;spacingLeft=20;part=1;points=[];imageAspect=0;image=data:image/svg+xml,PHN2ZyB4bWxucz0iaHR0cDovL3d3dy53My5vcmcvMjAwMC9zdmciIHhtbG5zOnY9Imh0dHBzOi8vdmVjdGEuaW8vbmFubyIgd2lkdGg9IjM2MC4zMDM3NjY4NjA4MzYzIiBoZWlnaHQ9IjM3OC4wNTExNTgwNzc0MDg4IiB2aWV3Qm94PSItMC4wMDAxNjI0MjExNDM2MTM3NTU3IC0wLjAwMDEwMDAwNTk0OTIwNzExNTkyIDk1LjMzMDI2MTIzMDQ2ODc1IDEwMC4wMjYxMDAxNTg2OTE0Ij4mI3hhOzxzdHlsZSB0eXBlPSJ0ZXh0L2NzcyI+JiN4YTsJLnN0MHtmaWxsOiM0Mjg1ZjQ7fSYjeGE7CS5zdDF7ZmlsbDojYWVjYmZhO30mI3hhOwkuc3Qye2ZpbGw6IzY2OWRmNjt9JiN4YTs8L3N0eWxlPiYjeGE7CTxwYXRoIGNsYXNzPSJzdDAiIGQ9Ik03OS45NzEgNzcuNzE1bC03LjM1OSA3LjQ4OCA4LjYzOSA4LjQ5IDcuMzU5LTcuNDg4em0tNjUuMDk2LjA2MWwtOC42NDEgOC40OTIgNy4zNjEgNy40ODggOC42MzktOC40OXoiLz4mI3hhOwk8cGF0aCBjbGFzcz0ic3QxIiBkPSJNNzkuNTUzLjIyMWE1LjI1IDUuMjUgMCAwIDAtMy42NiA4Ljk4NEw4Ni4zODkgMTkuNThhNS4yNSA1LjI1IDAgMCAwIDguOTQxLTMuNzY1IDUuMjUgNS4yNSAwIDAgMC0xLjU2LTMuNzA0TDgzLjI3NSAxLjczOEE1LjI1IDUuMjUgMCAwIDAgNzkuNTUzLjIyMXpNMTUuOTE2IDBhNS4yNSA1LjI1IDAgMCAwLTMuNzIzIDEuNTE2TDEuNjk5IDExLjg5MWE1LjI1IDUuMjUgMCAwIDAtLjA0MyA3LjQyNCA1LjI1IDUuMjUgMCAwIDAgNy40MjQuMDQzTDE5LjU3NiA4Ljk4MkE1LjI1IDUuMjUgMCAwIDAgMTUuOTE2IDB6Ii8+JiN4YTsJPHBhdGggY2xhc3M9InN0MCIgZD0iTTQ4LjEzOCAyNi4yNGMxMy4zNDcgMCAyNS40MzIgMTEuMTM2IDI1LjMxIDI2LjQ4MSAwIDE1LjExLTEyLjI2NyAyNS42NzMtMjUuMTg5IDI1LjY3My0xMS4xNDkgMC0xOC4zMTctNS4xNzEtMjEuOTYtMTAuNzM4bDIxLjgzOS0xNS4wOTd6Ii8+JiN4YTsJPHBhdGggY2xhc3M9InN0MiIgZD0iTTgxLjI1IDkzLjY5M2w0LjY2NCA0LjU4NmE1LjI1IDUuMjUgMCAxIDAgNy4zNjEtNy40OWwtNC42NjYtNC41ODR6TTYuMjM0IDg2LjI2OEwxLjU3IDkwLjg1MWE1LjI1IDUuMjUgMCAwIDAtLjA2NSA3LjQyNCA1LjI1IDUuMjUgMCAwIDAgNy40MjQuMDY0bDQuNjY2LTQuNTg0ek00Ny4zNzEgNS41NzhDMjEuMzQ5IDUuNTc4LjE0NiAyNi43NzkuMTQ2IDUyLjgwMXMyMS4yMDMgNDcuMjI1IDQ3LjIyNSA0Ny4yMjUgNDcuMjI1LTIxLjIwMyA0Ny4yMjUtNDcuMjI1UzczLjM5MyA1LjU3OCA0Ny4zNzEgNS41Nzh6bTAgMTBhMzcuMTUgMzcuMTUgMCAwIDEgMzcuMjI1IDM3LjIyM2MwIDIwLjYxNy0xNi42MDcgMzcuMjI1LTM3LjIyNSAzNy4yMjVTMTAuMTQ2IDczLjQxOCAxMC4xNDYgNTIuODAxYTM3LjE1IDM3LjE1IDAgMCAxIDM3LjIyNS0zNy4yMjN6Ii8+JiN4YTs8L3N2Zz4=;" vertex="1" parent="0oO7P-rnS31lydjLmnYO-152">
          <mxGeometry width="29" height="30" relative="1" as="geometry">
            <mxPoint x="17" y="15" as="offset" />
          </mxGeometry>
        </mxCell>
        <mxCell id="0oO7P-rnS31lydjLmnYO-154" value="" style="strokeColor=#dddddd;shadow=1;strokeWidth=1;rounded=1;absoluteArcSize=1;arcSize=2;" vertex="1" parent="1">
          <mxGeometry x="618.74" y="24.78" width="133" height="58.74" as="geometry" />
        </mxCell>
        <mxCell id="0oO7P-rnS31lydjLmnYO-155" value="Workflows" style="editableCssRules=.*;html=1;fontColor=#999999;shape=image;verticalLabelPosition=middle;labelBackgroundColor=#ffffff;verticalAlign=middle;labelPosition=right;align=left;spacingLeft=20;part=1;points=[];imageAspect=0;image=data:image/svg+xml,PHN2ZyB4bWxucz0iaHR0cDovL3d3dy53My5vcmcvMjAwMC9zdmciIHhtbG5zOnhsaW5rPSJodHRwOi8vd3d3LnczLm9yZy8xOTk5L3hsaW5rIiB4bWxuczp2PSJodHRwczovL3ZlY3RhLmlvL25hbm8iIHdpZHRoPSIxOS41MSIgaGVpZ2h0PSIxOS41IiB2aWV3Qm94PSIwIDAgMTkuNTEgMTkuNSI+JiN4YTsJPHBhdGggZD0iTTE3LjI2IDE3LjgxaC0uN3YtMS41aC43YS43Ni43NiAwIDAgMCAuNzUtLjc1di00LjMxYS43Ni43NiAwIDAgMC0uNzUtLjc1aC0zLjYxVjloMy42MWEyLjI1IDIuMjUgMCAwIDEgMi4yNSAyLjI1djQuMzFhMi4yNSAyLjI1IDAgMCAxLTIuMjUgMi4yNXptLTcuOTUgMGgtNC45di0xLjVoNC45eiIgZmlsbD0iIzQyODVmNCIvPiYjeGE7CTxwYXRoIGZpbGw9IiM2NjlkZjYiIGZpbGwtcnVsZT0iZXZlbm9kZCIgZD0iTTUuODggMTAuNUgyLjI2QTIuMjUgMi4yNSAwIDAgMSAuMDEgOC4yNVYzLjk0YTIuMjUgMi4yNSAwIDAgMSAyLjI1LTIuMjVoMXYxLjVoLTFhLjc1Ljc1IDAgMCAwLS43NS43NXY0LjMxYS43Ni43NiAwIDAgMCAuNzUuNzVoMy42MnoiLz4mI3hhOwk8cGF0aCBmaWxsPSIjNDI4NWY0IiBkPSJNMTUuMDYgMy4xOUg5LjU4di0xLjVoNS40OHoiLz4mI3hhOwk8cGF0aCBmaWxsPSIjYWVjYmZhIiBkPSJNNi4zOSAxLjY5Vi4xOWgtM2ExLjEzIDEuMTMgMCAwIDAtMS4xMyAxLjEydjIuMjVhMS4xMyAxLjEzIDAgMCAwIDEuMTMgMS4xM2gzdi0xLjVIMy43NnYtMS41eiIvPiYjeGE7CTxwYXRoIGZpbGw9IiM2NjlkZjYiIGZpbGwtcnVsZT0iZXZlbm9kZCIgZD0iTTEwLjUxIDEuMzF2Mi4yNWExLjEzIDEuMTMgMCAwIDEtMS4xMiAxLjEzaC0zdi0xLjVoMi42MnYtMS41SDYuMzlWLjE5aDNhMS4xMiAxLjEyIDAgMCAxIDEuMTIgMS4xMnoiLz4mI3hhOwk8cGF0aCBmaWxsPSIjYWVjYmZhIiBkPSJNMTcuMDcgNC44OGEyLjQ0IDIuNDQgMCAxIDEgMi40NC0yLjQ0IDIuNDUgMi40NSAwIDAgMS0yLjQ0IDIuNDR6bTAtMy4zOGEuOTQuOTQgMCAxIDAgLjk0Ljk0Ljk0Ljk0IDAgMCAwLS45NC0uOTR6Ii8+JiN4YTsJPHVzZSB4bGluazpocmVmPSIjQiIgZmlsbD0iIzlhYTBhNiIvPiYjeGE7CTxnIGZpbGw9IiNhZWNiZmEiPiYjeGE7CQk8dXNlIHhsaW5rOmhyZWY9IiNCIi8+JiN4YTsJCTxwYXRoIGQ9Ik0xMy4xMiAxNi4zMnYtMS41aC0zQTEuMTMgMS4xMyAwIDAgMCA5IDE1Ljk1djIuMjVhMS4xMiAxLjEyIDAgMCAwIDEuMTIgMS4xMmgzdi0xLjVIMTAuNXYtMS41eiIvPiYjeGE7CTwvZz4mI3hhOwk8cGF0aCBmaWxsPSIjNjY5ZGY2IiBmaWxsLXJ1bGU9ImV2ZW5vZGQiIGQ9Ik0xNy4yNSAxNS45NXYyLjI1YTEuMTMgMS4xMyAwIDAgMS0xLjEzIDEuMTJoLTN2LTEuNWgyLjY0di0xLjVoLTIuNjR2LTEuNWgzYTEuMTQgMS4xNCAwIDAgMSAxLjEzIDEuMTN6Ii8+JiN4YTsJPHBhdGggZmlsbD0iI2FlY2JmYSIgZD0iTTkuNzYgOVY3LjVoLTNhMS4xMyAxLjEzIDAgMCAwLTEuMTMgMS4xMnYyLjI1QTEuMTMgMS4xMyAwIDAgMCA2Ljc2IDEyaDN2LTEuNUg3LjEzVjl6Ii8+JiN4YTsJPHBhdGggZmlsbD0iIzY2OWRmNiIgZmlsbC1ydWxlPSJldmVub2RkIiBkPSJNMTMuODggOC42MnYyLjI1QTEuMTMgMS4xMyAwIDAgMSAxMi43NiAxMmgtM3YtMS41aDIuNjJWOUg5Ljc2VjcuNWgzYTEuMTIgMS4xMiAwIDAgMSAxLjEyIDEuMTJ6Ii8+JiN4YTsJPGRlZnM+JiN4YTsJCTxwYXRoIGlkPSJCIiBkPSJNMi40NSAxOS41YTIuNDQgMi40NCAwIDEgMSAyLjQzLTIuNDQgMi40NCAyLjQ0IDAgMCAxLTIuNDMgMi40NHptMC0zLjM4YS45NC45NCAwIDEgMCAuOTMuOTQuOTQuOTQgMCAwIDAtLjkzLS45NHoiLz4mI3hhOwk8L2RlZnM+JiN4YTs8L3N2Zz4=;" vertex="1" parent="0oO7P-rnS31lydjLmnYO-154">
          <mxGeometry width="30" height="30" relative="1" as="geometry">
            <mxPoint x="17" y="15" as="offset" />
          </mxGeometry>
        </mxCell>
        <mxCell id="0oO7P-rnS31lydjLmnYO-156" style="edgeStyle=orthogonalEdgeStyle;rounded=0;orthogonalLoop=1;jettySize=auto;html=1;entryX=1.012;entryY=0.541;entryDx=0;entryDy=0;entryPerimeter=0;" edge="1" parent="1" source="0oO7P-rnS31lydjLmnYO-152" target="0oO7P-rnS31lydjLmnYO-154">
          <mxGeometry relative="1" as="geometry" />
        </mxCell>
        <mxCell id="0oO7P-rnS31lydjLmnYO-157" style="edgeStyle=orthogonalEdgeStyle;rounded=0;orthogonalLoop=1;jettySize=auto;html=1;entryX=0.988;entryY=0.531;entryDx=0;entryDy=0;entryPerimeter=0;" edge="1" parent="1" source="0oO7P-rnS31lydjLmnYO-154" target="ANfDOpSylxRKEM2ptjQJ-154">
          <mxGeometry relative="1" as="geometry" />
        </mxCell>
      </root>
    </mxGraphModel>
  </diagram>
</mxfile>
